<svg width="193" height="201" viewBox="0 0 193 201" fill="none" xmlns="http://www.w3.org/2000/svg">
<path d="M133.988 191.977C133.788 192.333 133.559 192.709 133.311 193.098C132.828 193.849 132.289 194.665 131.837 195.45C131.613 195.839 131.409 196.224 131.26 196.55C131.112 196.851 131.017 197.219 131.053 197.009C131.059 196.958 131.07 196.871 131.069 196.689C131.06 196.5 131.081 196.239 130.891 195.594C130.738 195.011 130.045 193.736 128.787 193.118C127.55 192.514 126.757 192.649 126.367 192.685C125.599 192.822 125.62 192.906 125.593 192.902C125.618 192.899 125.919 192.72 126.19 192.528C126.761 192.129 127.398 191.621 127.998 191.13C129.212 190.133 130.346 189.151 131.451 188.206C131.542 188.127 131.633 188.049 131.724 187.971C134.776 185.368 137.489 182.962 141.711 179.341C143.857 177.522 146.819 174.963 150.58 172.301C154.537 169.535 159.02 166.752 163.782 164.167C169.46 160.794 177.675 158.46 180.46 156.74L180.203 156.95C182.668 154.879 185.677 153.021 188.669 152.747C191.143 152.608 192.721 152.194 192.911 152.644C192.911 152.644 192.911 152.644 192.911 152.644C192.919 152.665 192.923 152.687 192.924 152.711C192.959 153.215 189.927 154.682 189.452 155.168C189.334 155.324 189.316 155.663 189.25 156.096C189.001 157.342 188.923 158.678 186.549 160.491C186.021 160.901 185.404 161.415 184.729 162.022L184.523 162.19C178.629 165.897 172.298 167.059 167.04 170.099C163.909 171.699 161.385 173.168 160.266 173.879C158.538 174.982 156.594 176.44 154.603 177.975C153.998 178.442 153.384 178.924 152.763 179.411C145.959 184.864 141.956 188.756 136.875 193.727C136.79 193.811 136.705 193.895 136.619 193.98C135.446 195.14 134.239 196.385 132.803 197.769C132.054 198.279 131.302 198.779 130.392 199.298C129.924 199.557 129.449 199.827 128.684 200.111C128.266 200.242 127.837 200.456 126.768 200.438C126.242 200.419 125.393 200.241 124.684 199.665C123.962 199.083 123.654 198.389 123.509 197.895C123.288 197.054 123.368 196.683 123.393 196.339C123.433 196.006 123.493 195.751 123.556 195.521C123.683 195.061 123.826 194.696 123.976 194.346C124.275 193.658 124.599 193.062 124.933 192.49C125.604 191.349 126.322 190.317 127.067 189.314C127.071 189.309 127.075 189.304 127.079 189.298C129.619 184.742 134.045 178.04 135.645 175.254C136.95 172.962 137.452 171.467 138.841 169.09C139.048 168.736 139.27 168.371 139.515 167.975C141.126 165.375 143.55 161.889 146.214 157.778C151.146 150.255 151.606 148.378 154.555 144.075C154.635 143.96 154.717 143.843 154.801 143.724C158.119 139.018 163.889 132.231 168.128 126.289C168.614 125.511 169.102 124.731 169.591 123.951C169.023 124.341 168.457 124.728 167.888 125.119C170.062 122.159 171.373 121.176 173.448 118.522C175.815 115.494 176.745 113.674 178.268 111.654C178.319 111.587 178.369 111.52 178.42 111.454C179.728 109.742 181.817 107.568 183.273 105.402C183.548 104.988 183.75 104.64 183.826 104.461C183.862 104.382 183.866 104.324 183.793 104.482C183.758 104.568 183.692 104.706 183.635 105.072C183.576 105.403 183.577 106.198 183.891 106.889C184.063 107.306 184.455 107.892 184.995 108.295C185.528 108.705 186.092 108.888 186.451 108.961C187.201 109.097 187.446 109.019 187.63 109.011C187.963 108.968 187.972 108.968 188.004 108.986C188.034 109.024 187.958 109.111 187.885 109.2C187.724 109.387 187.494 109.601 186.891 109.998C186.792 110.064 186.446 110.282 185.891 110.647C182.749 112.555 173.41 120.128 172.806 120.621C167.335 124.975 166.469 124.864 162.08 128.344C161.686 128.658 161.285 128.978 160.878 129.305C149.149 138.724 137.614 148.95 127.024 157.991C122.141 162.164 116.955 166.431 111.96 170.453C118.665 162.728 100.677 176.024 108.742 172.672C105.146 175.362 102.428 177.871 99.6234 180.384C97.9552 181.878 96.2514 183.378 94.2778 184.951C90.6583 187.747 88.9453 189.081 82.7352 193.524C82.5206 193.644 82.1855 193.796 82.0112 193.863C81.6048 194.01 81.3053 194.175 80.338 194.323C80.0689 194.351 79.7541 194.399 79.1167 194.316C78.7878 194.264 78.3701 194.19 77.7686 193.878C77.1856 193.587 76.421 192.911 76.04 192.092C75.3101 190.374 75.7251 189.577 75.8072 189.117C75.949 188.65 76.0761 188.413 76.1847 188.203C83.0609 178.66 88.4326 170.108 91.7287 168.523C93.1405 166.498 94.4908 164.611 95.8599 162.72C101.632 154.738 106.606 148.237 107.78 144.39C109.674 141.625 115.52 135.244 117.843 132.28C120.035 129.479 136.479 107.667 139.137 104.079C141.791 100.487 146.434 94.1856 148.544 91.0668C151.199 87.1495 151.792 83.4875 158.377 77.8733C160.125 75.4209 161.588 73.3951 162.855 71.6726C165.751 67.7425 167.956 64.9112 171.915 60.0058C172.934 58.7482 173.311 58.74 173.888 57.9962C175.109 56.4225 177.035 53.6031 179.252 50.8353C180.335 49.4828 181.326 48.3612 182.155 47.4429C182.566 46.9862 182.943 46.5733 183.232 46.2402C183.518 45.9269 183.703 45.6074 183.584 45.8349C183.523 45.9982 183.437 46.2356 183.433 46.6446C183.428 46.787 183.464 47.249 183.657 47.6352C183.833 48.0329 184.217 48.4235 184.497 48.5923C185.037 48.9299 185.46 48.9483 185.688 48.9579C185.85 48.9608 185.962 48.9479 186.049 48.9353C186.359 48.8807 186.353 48.8617 186.388 48.8561C186.431 48.8444 186.389 48.8694 186.355 48.8981C186.285 48.9556 186.207 49.033 186.162 49.1066C186.075 49.2516 186.117 49.3769 186.305 49.4912C183.603 51.3975 180.686 54.0816 177.975 56.63C176.86 57.3608 175.748 58.1068 174.638 58.8666C174.411 59.1162 174.181 59.3701 173.947 59.6284C172.816 60.8836 171.675 62.1656 170.535 63.4431C171.398 60.8124 161.276 71.1951 165.268 68.5921C159.564 73.4194 153.8 78.1498 147.981 82.8423C147.776 81.0037 135.481 93.389 137.135 93.0574C136.492 93.6038 135.813 94.1814 135.183 94.7157C133.638 95.8902 132.178 97.0559 130.679 98.2846C126.488 101.72 122.362 105.36 117.06 109.53C109.911 115.145 110.466 114.479 107.891 115.7C106.264 117.109 104.659 118.496 103.037 119.897C95.6498 128.557 95.028 124.706 81.173 138.082C75.6583 141.047 64.3891 151.154 56.8704 157.797C56.0065 158.561 56.1296 158.768 54.9726 159.811C52.1418 162.361 44.4593 168.252 45.1912 168.642C42.4736 170.578 39.7059 172.553 36.9674 174.501C36.6887 174.753 36.4134 175.002 36.1416 175.249C34.3498 176.865 32.6292 178.421 30.8566 180.016C31.0179 180.194 31.1793 180.371 31.3407 180.548C26.5419 183.394 19.9929 189.108 16.405 191.601C16.0604 191.839 15.7948 191.932 15.3633 192.134C15.1412 192.239 14.8857 192.367 14.5241 192.566C14.3396 192.666 14.1588 192.77 13.8355 192.945C13.774 192.977 13.6463 193.046 13.5275 193.101C13.4703 193.127 13.3483 193.184 13.2151 193.232C13.1803 193.245 13.1428 193.257 13.1015 193.27C13.0401 193.29 12.9568 193.314 12.8612 193.335C12.7643 193.356 12.6494 193.377 12.5021 193.387C12.4284 193.392 12.3465 193.394 12.2543 193.391C12.1463 193.388 11.9058 193.367 11.6766 193.298C11.2091 193.185 10.5543 192.712 10.295 192.179C10.0303 191.679 10.0104 191.248 10.0222 190.968C10.0433 190.655 10.077 190.571 10.1024 190.464C10.1299 190.363 10.1581 190.284 10.1847 190.215C10.2944 189.948 10.3348 189.899 10.3942 189.794C10.4864 189.644 10.5538 189.553 10.6164 189.467C10.6717 189.394 10.7293 189.318 10.7896 189.237C12.6741 186.669 16.2425 182.005 18.8329 179.282C19.5284 177.946 20.2507 176.62 21.0042 175.301C21.7258 174.499 22.4036 173.807 23.0421 173.198C26.306 170.122 28.2084 169.062 30.4615 166.727C30.9559 166.263 39.3917 156.752 39.8014 156.227C43.3738 151.92 41.7377 152.595 52.4953 140.473C52.6713 140.275 52.8469 140.079 53.0222 139.887C54.7113 138.038 56.2978 136.562 57.8735 134.751C60.8883 131.294 69.4599 120.321 69.7263 119.091C73.9246 115.345 83.4343 103.759 86.4613 100.546C87.3794 99.5735 87.9312 99.6596 90.6685 96.6105C92.8842 94.1438 98.1429 87.3974 100.923 84.2376C103.873 80.8865 105.208 79.9371 106.533 78.427C107.782 77.0045 108.666 75.4711 110.34 73.5116C115.556 67.4148 120.7 62.1846 124.823 57.3696C129.987 51.3407 134.1 45.4364 138.112 40.0372C138.778 39.1466 139.404 38.3118 140.042 37.479C141.353 36.0467 142.718 34.7709 144.024 33.256C149.864 26.558 155.652 19.5973 162.413 12.5549C162.768 12.2046 163.12 11.8508 163.447 11.5089C163.609 11.3399 163.768 11.1692 163.894 11.0273C163.955 10.9587 164.013 10.89 164.025 10.8747C164.028 10.8727 164.028 10.8668 163.957 10.9769C163.919 11.0451 163.864 11.0968 163.712 11.4644C163.667 11.5816 163.614 11.7307 163.565 11.9495C163.539 12.0686 163.503 12.2704 163.493 12.5007C163.488 12.6181 163.488 12.7489 163.499 12.8948C163.504 12.9678 163.512 13.0445 163.524 13.1249C163.539 13.2294 163.561 13.3468 163.592 13.467C163.756 14.4766 165.002 15.6806 165.887 15.8465C165.995 15.8782 166.107 15.9042 166.194 15.9206C166.264 15.934 166.331 15.9446 166.396 15.9528C166.524 15.9693 166.641 15.9766 166.747 15.9789C166.958 15.983 167.126 15.9676 167.266 15.9484C167.868 15.8467 167.968 15.7527 168.086 15.7081C168.184 15.6606 168.212 15.6414 168.225 15.6338C168.248 15.6192 168.203 15.6468 168.149 15.6843C168.039 15.7603 167.875 15.8818 167.712 16.0052C167.38 16.2569 167.013 16.5395 166.646 16.8177C165.906 17.3788 165.14 17.9395 164.361 18.4809C158.576 22.412 152.986 26.6726 147.394 30.8609C141.864 35.0244 136.439 39.1631 131.209 43.2131C122.058 50.1632 99.208 67.4323 106.475 64.228C104.818 65.8902 96.3496 72.7127 88.8812 78.9782C83.5709 83.4196 78.7448 87.5621 77.0378 89.0963C72.9295 92.7899 69.9649 96.0344 66.7756 98.9852C57.1616 107.897 50.2629 114.039 38.9212 125.315C36.0008 128.221 33.1137 131.605 31.3135 133.301C31.0276 133.57 30.7391 133.831 30.4492 134.086C28.4964 135.802 26.2508 137.497 23.8881 139.788C22.4277 141.201 20.7339 142.893 18.8019 144.77C17.8293 145.706 16.8221 146.689 15.5498 147.743C14.8679 148.274 14.2885 148.821 12.8772 149.471C12.1969 149.724 10.8831 150.351 8.8638 149.582C6.88467 148.676 6.4152 147.305 6.11013 146.626C5.4684 144.597 6.02693 143.881 6.12466 143.397C6.30194 142.914 6.45343 142.63 6.59284 142.367C6.87183 141.854 7.11589 141.478 7.35914 141.11C7.84113 140.387 8.30038 139.758 8.76355 139.133C9.68859 137.89 10.5972 136.726 11.4946 135.588C14.0048 132.413 16.3465 129.55 18.1645 127.368C19.1906 126.141 19.848 125.954 21.398 124.268C23.9624 121.483 26.5949 118.5 28.6391 116.043C31.4291 112.704 33.0594 110.366 31.8558 110.655C37.7865 104.615 42.7203 98.2943 47.6559 92.0861C49.3108 90.0007 50.9573 87.932 52.6384 85.8794C65.4806 70.2111 88.1146 42.979 101.194 26.7082C102.518 25.0621 103.735 23.5401 104.826 22.1617C111.467 13.9248 111.483 12.7155 119.962 3.99999C120.365 3.61827 120.785 3.22515 121.228 2.81752C121.449 2.61424 121.675 2.4077 121.9 2.20358C122.011 2.1022 122.123 2.00098 122.22 1.91206C122.267 1.86966 122.315 1.82598 122.333 1.80978C122.341 1.80364 122.346 1.79928 122.307 1.84093C122.283 1.86751 122.254 1.89667 122.156 2.01308C122.13 2.04319 122.088 2.09462 122.04 2.15641C121.991 2.22221 121.94 2.28347 121.806 2.48798C121.744 2.58544 121.67 2.70562 121.581 2.87639C121.488 3.08055 121.212 3.52097 121.07 4.51401C121.039 4.78211 121.017 5.0265 121.044 5.46376C121.084 6.08918 121.278 6.92797 121.777 7.72044C122.715 9.40045 124.98 9.98767 125.134 9.95185C126.263 10.1083 126.736 9.94234 127.087 9.87384C127.456 9.77316 127.455 9.74892 127.468 9.74488C127.466 9.74234 127.412 9.76322 127.342 9.794C127.202 9.85591 127.001 9.95456 126.786 10.0635C126.352 10.2839 125.852 10.5496 125.323 10.8273C123.899 11.5769 122.387 12.3471 120.753 13.0708C118.273 14.0871 116.425 14.9644 113.911 16.3916C109.433 18.9465 105.094 21.6235 101.087 24.3282C96.6181 27.3561 92.5862 30.3944 89.3581 33.6619C79.1481 41.0044 71.4757 47.4277 63.6282 52.5643C62.9462 53.4632 62.2673 54.3637 61.5927 55.2651C60.4203 56.2607 59.2528 57.261 58.0917 58.2659C57.5691 58.394 57.0472 58.5225 56.5259 58.6515C56.4888 58.6832 56.4516 58.715 56.4144 58.7469C48.0278 65.8844 38.5455 76.121 31.8664 82.6027C29.2562 85.1177 25.721 88.5686 21.5967 92.5192C20.3967 93.6631 19.1639 94.8219 17.838 96.0154C17.174 96.6116 16.492 97.2136 15.7455 97.8341C15.3712 98.144 14.9837 98.4583 14.5304 98.7947C14.2909 98.9708 14.0525 99.1445 13.6919 99.369C13.5019 99.4827 13.3153 99.6058 12.8705 99.8034C12.6185 99.8908 12.4241 100.057 11.4221 100.171C10.9738 100.152 9.74495 100.437 8.13297 98.9361C6.66748 97.2555 7.00206 96.0126 7.01853 95.505C7.56276 92.68 8.40262 91.6765 9.05002 90.2576C9.72381 88.9394 10.3982 87.6396 11.0518 86.3499C12.3685 83.7567 13.6567 81.1232 14.896 78.5157C18.6123 70.4713 23.6237 63.9881 27.3195 58.9599C28.8605 56.9113 30.2453 55.1167 31.3941 53.6491C36.3289 47.3808 36.2007 46.7407 39.843 43.7945C40.8812 42.3447 41.9259 40.8989 42.978 39.4574C43.4895 38.4384 44.0044 37.4202 44.5236 36.4026C46.9582 33.3769 49.6461 30.1887 52.437 27.031C57.0094 21.8512 61.8664 16.7959 66.0815 12.4394C67.82 10.634 69.7226 8.70139 71.5952 6.73257C71.9409 6.36622 72.2868 5.99474 72.5993 5.64234C72.7515 5.47053 72.9016 5.29543 72.9978 5.17262C73.0424 5.1176 73.0844 5.0514 73.024 5.13926C73.0087 5.16276 72.9815 5.20367 72.9334 5.29262C72.8965 5.3678 72.7982 5.52679 72.69 5.91413C72.6287 6.1946 72.5028 6.56283 72.6438 7.38203C72.736 7.87997 73.0149 8.52262 73.4834 9.01059C73.954 9.50309 74.4296 9.73862 74.845 9.88C75.2606 10.0176 75.5847 10.037 75.7342 10.0444C75.9164 10.0522 76.0627 10.0442 76.1846 10.0324C76.4483 10.0035 76.5226 9.98006 76.6229 9.95714C76.9733 9.86142 76.9676 9.8418 77.0071 9.82973C77.0318 9.81903 77.0185 9.8255 76.997 9.83766C76.9542 9.86148 76.8696 9.9104 76.7847 9.96187C76.6087 10.0682 76.398 10.2021 76.1896 10.3374C75.767 10.6117 75.3203 10.9112 74.8679 11.2162C70.9673 13.8559 66.8514 16.7027 62.8129 19.5705C58.2528 22.8213 53.7152 25.5617 49.6176 28.5621C44.8094 32.0201 40.3057 35.4424 36.3782 38.4545C34.382 39.9846 32.0492 41.6757 29.8272 43.3951C28.1704 44.6764 26.5685 45.9755 25.1965 47.2087C20.5324 51.4314 19.9634 53.0605 14.1592 58.5796C13.1793 59.5135 12.1232 60.5114 10.9743 61.5785C10.2426 62.2575 9.49011 62.9454 8.68352 63.6597C8.27536 64.0208 7.86742 64.3766 7.41915 64.7541C7.1959 64.9417 6.96786 65.1306 6.71267 65.3332C6.58262 65.4361 6.44788 65.5414 6.28076 65.6649C6.19828 65.7255 6.10364 65.7947 5.96892 65.8853C5.89581 65.9338 5.82361 65.983 5.66666 66.0748C5.58642 66.1199 5.48954 66.1799 5.24989 66.2869C5.1697 66.322 5.07514 66.3609 4.95011 66.4038C4.85551 66.4328 4.60995 66.5296 4.14017 66.5834C4.02095 66.596 3.88458 66.6051 3.72408 66.6041C3.53003 66.604 3.09443 66.5809 2.62764 66.4289C2.15371 66.2802 1.55095 65.9643 1.06172 65.4343C0.550641 64.9016 0.218771 64.1295 0.132019 63.5517C0.033772 62.9636 0.0941148 62.5076 0.152748 62.2108C0.193326 62.0107 0.241933 61.8503 0.289571 61.7147C0.385819 61.4448 0.477389 61.2693 0.55582 61.1286C1.29828 59.867 2.06229 58.7426 2.88737 57.5915C6.09101 53.0693 9.24294 46.3062 12.6787 40.8214C16.3361 34.717 19.7908 29.0698 22.2641 24.8729C24.249 21.5114 24.943 19.7943 26.3285 17.4738C27.5167 15.4873 28.6805 13.5806 29.8512 11.727C31.0547 9.82414 32.3094 7.98409 33.6467 6.21935C34.3163 5.33515 35.013 4.4664 35.7164 3.6303C36.0663 3.21309 36.4176 2.80606 36.7124 2.44952C36.8533 2.27927 36.9826 2.11176 37.0093 2.06528C37.0211 2.04758 37.0015 2.05675 36.9192 2.21255C36.8515 2.36019 36.6418 2.73641 36.6472 3.48198C36.658 3.85653 36.7266 4.41063 37.0628 5.03665C37.3759 5.65312 38.0575 6.27823 38.6689 6.53761C38.9746 6.67714 39.2573 6.75346 39.4984 6.79646C39.6976 6.83076 39.8079 6.83877 39.9393 6.8458C40.1885 6.85693 40.3775 6.84099 40.5286 6.82188C40.69 6.80031 40.7672 6.78232 40.8316 6.76833C40.8978 6.75337 40.9532 6.73876 41.0008 6.72523C41.0947 6.69858 41.166 6.67318 41.1954 6.6627C41.344 6.60762 41.3424 6.60401 41.3409 6.60715C41.3248 6.61713 41.2399 6.66328 41.1507 6.71381C40.9676 6.81714 40.7691 6.93217 40.5497 7.05849C40.131 7.30043 39.6862 7.55648 39.2528 7.80351C38.3827 8.29961 37.492 8.79713 36.599 9.28909C34.8151 10.2716 33.0107 11.2408 31.1439 12.2349C28.3715 13.3464 26.3167 14.0567 24.7543 14.5274C20.2388 15.884 19.8173 15.287 17.0611 15.7415C16.1088 15.8785 14.5201 16.2976 12.7239 16.4111C9.23643 16.4902 5.41816 16.5604 4.06892 16.7539C3.88219 16.781 3.7354 16.8004 3.71564 16.7399C3.68663 16.6851 3.77853 16.557 3.88086 16.4339C4.10071 16.1784 4.38998 15.919 4.64321 15.6821C5.1438 15.2128 5.56674 14.7914 4.8594 14.7537C7.54961 13.8039 9.70196 13.2355 11.7735 12.6763C14.67 11.5621 18.7082 9.55574 21.9179 8.30373C25.4359 6.87474 28.951 5.52202 33.2482 3.6727C34.1726 3.19808 35.0779 2.72278 35.9918 2.22903C36.4469 1.98323 36.8969 1.73635 37.3556 1.48298C37.5852 1.35643 37.8146 1.229 38.0724 1.08967C38.1969 1.02278 38.3367 0.947332 38.5188 0.85757C38.6263 0.806098 38.7086 0.762407 38.9392 0.6719C39.0324 0.639078 39.2069 0.561706 39.5771 0.494173C39.7103 0.47162 39.872 0.450823 40.0846 0.449616C40.3159 0.460733 40.4842 0.427021 41.0849 0.618578C41.6137 0.786456 42.2891 1.28801 42.617 1.86275C42.9631 2.43723 43.0339 2.96838 43.0438 3.32013C42.9568 5.0919 42.3893 5.40943 42.1871 5.8033C41.9313 6.15495 41.7335 6.38359 41.5432 6.60843C41.1634 7.0515 40.8337 7.42262 40.5 7.81176C39.8386 8.58042 39.2169 9.34238 38.6004 10.1428C37.3804 11.7265 36.2217 13.4037 35.1167 15.1224C29.1871 24.4622 23.5331 34.1849 18.0001 43.8558C16.3693 46.724 14.8069 49.5744 13.2893 52.4883C12.1696 54.0175 11.0721 55.5868 9.87565 57.1765C9.87512 57.1762 9.87458 57.1759 9.87405 57.1756C9.05448 58.5329 8.26092 59.7477 7.53106 60.8048C6.73371 61.9655 6.09777 63.0409 5.6305 63.9881C5.67886 63.9011 5.73758 63.7901 5.79874 63.6069C5.81387 63.5608 5.82891 63.5099 5.84307 63.4527C5.85619 63.3973 5.87257 63.3335 5.88991 63.1984C5.91863 62.9544 5.9256 62.5979 5.76494 62.1697C5.41706 61.2054 4.42258 60.8116 3.9966 60.7922C3.7212 60.7665 3.70109 60.7796 3.60042 60.7828C3.51651 60.7886 3.44641 60.7981 3.38563 60.8085C3.12897 60.8573 3.07956 60.8863 3.01023 60.9088C2.94884 60.9313 2.89281 60.9561 2.87137 60.9658C2.76332 61.0158 2.73967 61.0315 2.7151 61.0443C2.67787 61.0645 2.68005 61.0618 2.68521 61.0556C2.69806 61.0418 2.73473 61.01 2.77241 60.9759C2.8505 60.9058 2.94014 60.8228 3.03143 60.7364C3.21321 60.564 3.40085 60.3789 3.5814 60.1962C3.94347 59.8298 4.29712 59.4561 4.63245 59.0948C5.30989 58.3655 5.93924 57.6631 6.60171 56.9506C6.92277 56.6041 7.26783 56.2405 7.6102 55.8893C12.6443 50.7303 18.6389 44.7337 25.6452 38.5314C31.6098 33.2713 38.2649 27.9546 45.4674 22.758C49.7922 19.5929 54.5025 16.793 58.7904 13.8015C62.8429 10.9949 66.9355 8.25051 71.1082 5.51298C71.5662 5.2138 72.0298 4.91212 72.5147 4.6068C72.7622 4.45124 73.0131 4.29556 73.2971 4.12869C73.4384 4.04604 73.5841 3.96205 73.7755 3.85987C73.9839 3.75656 74.1065 3.66471 74.6797 3.46131C74.7552 3.43626 74.8728 3.40017 74.9994 3.36964C75.1311 3.3398 75.2642 3.30413 75.5823 3.27548C75.9048 3.27688 76.1772 3.16338 77.1834 3.51576C78.0873 3.74379 79.329 5.30185 79.3331 6.28148C79.4228 6.98968 79.2931 7.47263 79.2281 7.71553C79.1659 7.9339 79.1012 8.094 79.0418 8.22766C78.9329 8.46627 78.8701 8.5694 78.7955 8.69487C78.5583 9.07525 78.4359 9.21484 78.3035 9.38415C78.0522 9.69455 77.8519 9.91709 77.6451 10.1458C77.2387 10.5924 76.8474 11.0006 76.4602 11.4008C69.8281 18.0684 63.4793 24.6309 57.5768 31.4388C48.2446 42.225 39.757 53.0955 32.5758 62.7806C29.889 66.4294 27.4371 69.9234 25.3394 73.263C24.1835 75.1138 22.5708 77.8117 21.0207 81.3455C19.0501 85.9177 15.3133 92.7543 13.9494 96.4562C13.973 96.2476 14.0027 96.0433 13.9356 95.6022C13.8773 95.2161 13.6505 94.5514 13.1278 94.0368C11.9371 92.9769 11.1414 93.2161 10.848 93.1967C10.2205 93.2751 10.173 93.3582 10.0768 93.3856C9.93081 93.4523 9.9649 93.4425 9.98839 93.4253C10.0543 93.3839 10.1925 93.2867 10.3328 93.1803C10.6126 92.9687 10.9308 92.708 11.2424 92.4445C11.8699 91.9132 12.51 91.3396 13.1239 90.7794C14.3645 89.6458 15.5508 88.5189 16.6835 87.4348C20.2714 83.9852 23.2274 81.1621 24.7192 79.8993C26.0494 78.7703 26.7048 78.7342 28.0487 77.461C36.004 69.5316 44.1157 61.7514 52.5283 54.251C56.5508 50.6652 60.632 47.1526 64.7535 43.6916C75.3778 35.399 86.2206 27.1528 97.2998 19.0946C103.692 14.5424 110.164 9.74777 117.572 6.40447C118.718 5.8491 119.853 5.23713 121.003 4.58998C121.579 4.26632 122.157 3.93361 122.765 3.59194C123.07 3.4209 123.381 3.24785 123.73 3.06623C123.904 2.97553 124.086 2.88329 124.306 2.78269C124.537 2.68229 124.742 2.57427 125.252 2.43834C125.439 2.39902 125.686 2.32439 126.223 2.37342C126.373 2.39268 126.463 2.40015 126.732 2.4782C127.046 2.57334 127.44 2.76003 127.795 3.08624C128.554 3.71147 128.735 4.94777 128.691 5.16976C128.665 5.82741 128.513 6.10008 128.429 6.30297C128.346 6.47592 128.324 6.50633 128.281 6.57973C128.116 6.83847 128.095 6.84602 128.038 6.91927C127.96 7.01407 127.92 7.05521 127.887 7.09185C127.821 7.16181 127.783 7.20024 127.743 7.24019C127.668 7.31514 127.611 7.37106 127.552 7.42796C127.437 7.53955 127.33 7.64216 127.225 7.7436C127.015 7.94504 126.807 8.14427 126.603 8.34234C126.191 8.73966 125.784 9.13839 125.378 9.54076C119.234 15.9694 113.356 23.4249 107.473 30.4472C107.234 30.7362 106.991 31.0293 106.745 31.3267C88.7918 53.0783 71.0162 74.9735 53.1825 96.6625C46.6899 104.563 40.0798 112.472 33.4441 120.137C27.9279 126.681 22.4391 133.37 17.1356 140.056C16.2324 141.203 15.346 142.34 14.5014 143.476C14.085 144.037 13.6745 144.604 13.3289 145.125C13.158 145.382 13.0006 145.637 12.9157 145.797C12.8756 145.869 12.8547 145.932 12.8925 145.833C12.9099 145.78 12.9495 145.685 12.9875 145.432C13.0179 145.193 13.069 144.691 12.8134 144.018C12.7931 143.996 12.7852 143.831 12.375 143.422C11.987 142.99 10.9761 142.683 10.556 142.757C10.1027 142.798 10.0467 142.871 10.05 142.859C10.0626 142.853 10.1593 142.801 10.2832 142.718C10.7835 142.385 11.5177 141.75 12.1983 141.123C13.5916 139.837 15.0144 138.412 16.4477 136.993C19.3012 134.157 22.2116 131.29 25.1666 128.493C44.5693 109.967 63.9849 91.3217 84.2169 73.6441C89.3525 69.1574 94.5358 64.7362 99.7564 60.3728C112.885 49.3674 129.622 35.6839 143.29 25.4877C143.753 25.1407 144.186 24.8179 144.631 24.4875C150.414 20.2326 153.154 18.8602 160.566 13.0816C160.618 13.0403 160.67 12.9989 160.722 12.9576C160.905 13.0565 161.092 13.1518 161.277 13.2487C161.935 12.7486 162.555 12.2499 163.165 11.7458C163.473 11.4919 163.773 11.2398 164.106 10.969C164.275 10.8326 164.45 10.6925 164.675 10.5287C164.792 10.4444 164.916 10.3562 165.106 10.2421C165.207 10.1826 165.319 10.1184 165.489 10.0397C165.672 9.96266 165.875 9.85172 166.405 9.76614C166.538 9.74782 166.695 9.73362 166.89 9.73814C166.988 9.74056 167.095 9.74793 167.213 9.76394C167.319 9.77852 167.485 9.80605 167.692 9.8705C168.51 10.0379 169.574 11.1844 169.671 12.0454C169.805 12.7545 169.698 13.1008 169.657 13.3243C169.611 13.5214 169.56 13.6635 169.515 13.7749C169.367 14.1307 169.286 14.2359 169.225 14.3406C169.101 14.5372 169.027 14.6342 168.957 14.7288C168.82 14.9122 168.713 15.0439 168.608 15.1723C168.401 15.4238 168.21 15.6447 168.022 15.8589C167.646 16.2868 167.282 16.6865 166.915 17.0816C164.085 20.2125 161.368 23.711 157.494 28.1758C154.489 31.658 148.661 38.4461 143.407 44.575C139.741 48.849 136.353 52.795 134.467 54.9572C132.143 57.622 132.702 56.4322 130.563 58.9398C126.85 63.2953 119.307 72.8792 114.196 78.8706C109.558 84.3069 101.45 93.1914 97.9303 97.4024C85.4207 112.361 72.0716 128.891 58.3717 144.518C58.1844 144.732 57.9983 144.944 57.8134 145.154C53.968 149.53 48.6977 154.872 47.4998 156.251C45.1598 158.953 44.8113 160.008 43.245 161.859C39.1967 166.602 33.8653 172.611 28.0299 178.21C23.0591 183.024 18.5312 188.356 15.4268 192.794C15.4095 192.818 15.4038 192.832 15.4608 192.735C15.4781 192.705 15.502 192.663 15.5339 192.599C15.5651 192.535 15.6058 192.461 15.6835 192.25C15.72 192.148 15.7611 192.021 15.8005 191.848C15.823 191.738 15.9287 191.308 15.8664 190.709C15.8041 190.113 15.5464 189.17 14.6536 188.389C13.8083 187.649 12.8073 187.526 12.4281 187.524C11.8373 187.516 11.5455 187.611 11.3376 187.669C11.1657 187.722 11.1201 187.743 11.0468 187.773C10.9143 187.829 10.874 187.853 10.8475 187.866C10.7925 187.896 10.8053 187.891 10.8217 187.88C17.564 182.917 25.163 176.547 32.4109 170.675C55.7404 151.609 79.4902 131.963 102.122 113.226C108.97 107.553 117.469 100.466 126.251 93.0508C141.601 80.1317 157.715 65.9869 168.276 56.356C168.883 55.8131 169.378 55.3916 169.782 55.0636C171.847 53.4003 171.805 53.8694 174.401 51.6055C177.885 48.604 179.664 46.8138 181.488 45.4731C181.894 45.1786 182.316 44.8796 182.805 44.5614C183.039 44.4094 183.313 44.2371 183.633 44.0591C183.805 43.9652 183.969 43.8736 184.272 43.7437C184.427 43.6829 184.591 43.5993 185.045 43.4995C185.192 43.4699 185.368 43.4411 185.607 43.4317C185.747 43.4309 186.388 43.3872 187.148 43.7523C187.491 43.9089 188.08 44.3115 188.451 44.9046C188.828 45.4668 188.957 46.1899 188.959 46.5218C188.976 47.1783 188.837 47.5619 188.736 47.8391C182.268 56.5635 175.143 65.3986 167.885 75.4051C162.314 82.9692 157.038 90.1232 153.574 94.6159C151.954 96.7175 150.54 98.0125 149.606 99.29C149.142 99.9237 148.273 101.547 146.827 103.569C133.975 121.544 124.389 134.468 111.554 151.92C108.071 156.656 104.508 161.52 100.919 166.422C94.9017 174.63 88.2394 183.756 82.3776 191.538C82.4115 191.47 82.467 191.381 82.5503 191.112C82.5867 190.846 82.9042 190.326 82.3694 189.03C82.0891 188.414 81.5099 187.893 81.0809 187.677C80.6374 187.445 80.3491 187.397 80.1348 187.361C79.7232 187.307 79.5805 187.339 79.4731 187.348C79.1345 187.404 79.3253 187.379 79.4191 187.332C83.4 184.363 89.7126 178.981 94.8963 174.686C110.638 161.54 126.473 148.274 141.762 135.805C149.124 129.799 154.646 126.254 155.675 125.406C156.106 125.051 156.491 124.711 156.861 124.369C158.5 122.862 159.923 121.25 163.633 118.147C169.006 113.729 174.872 108.798 181.881 104.275C182.516 103.878 183.15 103.487 183.868 103.085C184.233 102.884 184.598 102.684 185.107 102.459C185.377 102.346 185.637 102.223 186.197 102.089C186.493 102.035 186.845 101.925 187.645 102.026C188.046 102.086 188.622 102.249 189.172 102.65C189.725 103.044 190.113 103.62 190.293 104.039C190.817 105.29 190.532 106.156 190.454 106.508C190.339 106.913 190.239 107.122 190.149 107.32C189.97 107.698 189.821 107.949 189.674 108.195C189.383 108.677 189.114 109.074 188.841 109.471C188.297 110.26 187.757 110.997 187.218 111.725C186.133 113.186 185.049 114.597 183.952 116.014C177.892 123.8 171.972 131.263 167.157 137.749C164.903 140.78 162.376 144.335 159.88 147.988C156.264 153.271 152.735 158.815 149.94 163.313C148.699 165.299 146.904 168.16 145.047 171.268C141.194 177.697 136.944 185.045 135.996 187.028C135.148 188.819 135.156 189.887 133.988 191.977ZM79.6958 184.127C79.6268 185.687 87.1706 174.331 83.7428 178.166C82.9797 179.025 79.7269 183.718 79.6958 184.127ZM165.911 15.6089C166.163 15.7278 166.415 15.8458 166.665 15.9652C166.942 15.7258 167.213 15.4886 167.459 15.2776C167.58 15.1735 167.697 15.0756 167.774 15.011C167.809 14.9804 167.839 14.9571 167.815 14.9653C167.801 14.9697 167.775 14.9822 167.7 15.0126C167.621 15.0395 167.513 15.1007 167.155 15.1544C167.05 15.1686 166.924 15.18 166.764 15.1767C166.684 15.1749 166.596 15.1692 166.499 15.1567C166.405 15.144 166.291 15.1271 166.114 15.0763C165.446 14.951 164.499 14.0408 164.373 13.2742C164.35 13.1826 164.333 13.0954 164.321 13.0135C164.312 12.9525 164.306 12.8944 164.302 12.8391C164.294 12.7285 164.294 12.6294 164.298 12.5405C164.305 12.366 164.332 12.2145 164.353 12.1235C164.39 11.9589 164.43 11.8475 164.464 11.7606C164.579 11.4884 164.617 11.4578 164.644 11.4135C164.692 11.3456 164.686 11.3653 164.677 11.3819C164.655 11.4237 164.596 11.5056 164.535 11.587C164.409 11.7533 164.256 11.9408 164.102 12.1265C163.789 12.501 163.455 12.883 163.116 13.2621C163.105 13.2754 163.093 13.2888 163.081 13.3023C163.095 13.2915 163.11 13.2809 163.125 13.2705C163.514 12.9858 163.901 12.6973 164.274 12.4115C164.46 12.2684 164.643 12.1257 164.813 11.9902C164.898 11.9226 164.98 11.8565 165.05 11.8004C165.115 11.7531 165.195 11.6704 165.163 11.7512C165.145 11.7853 165.121 11.7982 165.033 12.0219C165.007 12.0933 164.981 12.165 164.952 12.3158C164.936 12.4055 164.922 12.5155 164.922 12.6558C164.925 12.794 164.926 12.9622 165.023 13.2607C165.184 13.8546 165.897 14.4144 166.352 14.4897C166.741 14.5796 166.91 14.5467 167.069 14.5307C167.373 14.4803 167.418 14.436 167.466 14.4197C167.503 14.4024 167.503 14.4012 167.494 14.4071C167.473 14.4196 167.413 14.459 167.351 14.5031C167.221 14.5953 167.066 14.7126 166.907 14.8347C166.588 15.0804 166.251 15.3462 165.911 15.6089ZM0.00733876 40.4471C-0.0526314 39.5565 0.271631 38.2995 0.288712 37.249C0.363696 32.8482 0.588474 31.2175 0.715959 27.2357C0.905319 21.3317 0.479129 3.80939 2.73191 3.80911C2.73195 3.80911 2.73198 3.80911 2.73202 3.80911C2.75412 3.8091 2.77648 3.81082 2.79909 3.81421C3.22826 3.8756 3.69678 5.36595 4.18215 5.58713C4.6677 5.80794 7.80233 5.64235 7.97855 7.7591C8.21077 10.8282 7.40704 18.1906 7.44266 19.8276C7.46721 20.9466 7.75217 22.3244 7.80277 23.7554C7.96584 28.3692 7.75746 30.7834 8.53153 34.9402C8.12361 36.6029 7.71569 38.2656 7.30777 39.9283C7.49691 42.0977 6.95893 45.3857 6.98856 46.7037C7.01293 47.7849 7.3355 48.4186 7.3505 49.5455C7.36913 50.8094 7.02095 52.7505 7.0734 55.0495C7.15776 58.8186 7.99925 59.4893 8.10611 61.7507C8.2167 64.0958 7.75934 67.7428 8.05545 70.7351C8.14802 71.1104 8.24059 71.4857 8.33316 71.861C8.54251 71.5921 8.75187 71.3232 8.96122 71.0543C9.05867 72.5615 8.62963 73.2096 8.62186 74.5945C8.61249 76.2239 9.01924 77.0553 9.01737 78.1517C9.01548 79.0499 8.68932 80.2678 8.70975 81.4325C8.73787 83.1305 9.2088 82.7592 9.29691 83.6729C9.33114 84.0375 9.59102 90.7777 9.59476 91.158C9.61333 94.05 8.96875 94.3018 8.91239 96.6078C8.75866 103.004 9.27951 109.57 9.47635 115.486C9.56441 118.128 9.52696 120.884 9.42386 123.518C7.77418 119.369 6.4903 128.551 9.07169 125.117C8.70446 128.048 9.40131 130.126 9.28348 132.904C9.20662 134.701 8.84869 135.945 8.85807 138.511C8.87698 143.064 9.8944 148.044 8.05545 149.354C8.37964 154.699 7.71257 159.328 9.33597 161.254C9.43515 162.632 8.46818 166.164 8.33683 167.71C8.21309 169.172 7.77648 180.389 7.75211 182.224C7.72774 184.059 7.70123 187.272 7.84366 188.817C7.99598 190.495 9.27444 191.737 8.34737 194.275L4.99995 190.928C5.39831 191.073 5.82857 191.273 6.29754 191.54C10.3169 191.381 11.7489 191.437 15.4871 191.666C16.1639 191.707 16.2405 191.999 16.6358 191.999C17.4503 191.999 18.8361 191.784 20.29 191.757C22.6809 191.714 24.0453 192.329 23.7788 191.39C25.3551 191.232 26.9313 191.075 28.5076 190.917C29.0606 191.099 29.6135 191.28 30.1665 191.461C31.0092 191.264 31.852 191.066 32.6948 190.868C31.705 192.228 37.6363 191.426 35.7105 190.646C38.766 190.927 41.8216 191.208 44.8772 191.489C44.4509 193.034 51.5863 191.667 50.9856 190.828C51.3352 190.829 51.6849 190.83 52.0345 190.831C55.0955 191.242 57.9064 190.906 61.6374 191.182C65.3681 191.457 65.0179 191.608 66.1524 192.318C67.0303 192.277 67.9082 192.237 68.7861 192.196C73.3927 190.248 72.5785 193.621 80.4669 192.126C82.9872 193.351 89.1999 192.708 93.3192 192.336C93.7985 192.293 93.8067 192.056 94.4451 191.982C96.0059 191.806 99.9884 192.112 99.8522 191.345C101.231 191.567 102.609 191.789 103.988 192.01C105.115 191.871 106.242 191.732 107.369 191.592C107.363 191.353 107.357 191.114 107.352 190.875C109.621 191.69 113.186 191.377 114.945 191.572C115.295 191.611 115.37 191.941 116.458 192.031C117.73 192.138 120.1 192.04 121.615 192.144C122.204 191.778 122.793 191.412 123.382 191.047C126.092 190.848 127.044 191.813 128.635 191.888C128.922 191.901 134.148 191.832 134.43 191.811C136.736 191.648 136.082 190.826 142.75 191.002C143.938 191.034 144.898 191.318 145.971 191.33C147.867 191.351 153.58 190.705 154.029 190.109C156.329 190.855 162.481 190.55 164.293 190.766C164.84 190.832 164.964 191.307 166.645 191.409C168.008 191.491 171.518 191.111 173.246 191.174C175.081 191.244 175.736 191.643 176.558 191.671C177.335 191.697 178.051 191.375 179.109 191.377C182.414 191.388 185.406 191.907 188.017 191.916C188.057 191.917 188.097 191.917 188.137 191.917L185.778 194.275C185.773 190.547 184.834 187.248 184.415 184.122C184.477 183.338 184.682 182.567 184.684 181.745C184.714 171.572 184.889 160.097 185.094 149.895C185.188 145.158 186.483 133.38 184.322 136.524C183.943 134.878 184.815 122.909 184.828 120.633C184.841 118.357 184.453 116.553 184.447 114.764C184.431 109.365 184.71 105.564 184.372 98.9929C184.284 97.2957 183.825 95.4772 183.83 94.4722C183.838 93.2616 184.282 91.9588 184.31 90.3905C184.374 86.6521 184.228 79.6853 184.305 76.0987C184.32 75.4439 184.71 75.2139 184.831 74.2773C185.308 70.6302 185.266 66.5421 184.021 67.2654C184.728 62.5908 184.083 58.2664 184.044 53.9343C183.963 44.7743 184.254 28.0887 183.731 20.109C183.401 15.0775 182.843 15.2062 183.324 7.79827C183.407 6.5211 183.513 5.24833 183.616 3.80911L188.137 8.33008C187.723 8.30055 187.295 8.27126 186.85 8.24279C182.175 7.94284 177.886 6.91146 174.322 8.15429C169.13 7.83196 164.995 8.06054 161.142 6.99767C160.688 7.25259 160.234 7.50752 159.78 7.76244C159.143 7.76875 158.507 7.77506 157.87 7.78136C157.671 7.53824 157.473 7.29512 157.274 7.05199C152.714 6.98652 146.928 7.9858 143.068 7.97851C136.596 7.96726 119.926 7.57904 113.789 7.25097C110.531 7.07675 110.356 7.59746 108.49 6.52709C107.761 6.60155 107.033 6.67601 106.304 6.75048C105.848 6.98485 105.392 7.21923 104.936 7.4536C100.756 7.46298 95.7978 7.09893 91.8156 7.10265C84.5592 7.11015 73.6629 7.75521 66.3761 7.33153C64.549 7.22469 62.265 6.74136 60.4758 6.74681C57.8717 6.75431 57.2388 7.5564 53.9342 7.5714C48.2388 7.59577 37.6319 6.66398 32.2487 6.73522C30.6497 6.75585 29.9037 7.0543 28.7997 7.08617C24.1702 7.22303 20.3694 7.19872 15.9303 7.6599C11.1639 6.89127 11.5756 5.89915 10.0985 4.89806C8.97899 4.14248 5.54631 2.39145 5.05902 1.72971C4.71673 1.2648 5.99473 0.66675 5.51508 0.155003C11.2257 -0.253674 13.6248 0.196225 18.2619 0.916113C26.8254 0.887426 35.3888 0.85874 43.9523 0.830053C44.7314 1.10939 45.5104 1.38873 46.2896 1.66807C46.2896 1.66868 46.2896 1.66929 46.2896 1.6699C49.5782 1.99227 50.972 1.27289 52.7456 1.10959C69.7254 -0.45392 103.145 0.769797 121.838 0.94602C125.867 0.9835 138.97 0.607092 141.734 1.06077C142.45 1.17892 142.649 1.60965 143.41 1.62839C150.212 1.37225 157.014 1.11611 163.816 0.85996C171.82 1.24296 179.98 1.22577 188.137 1.12167L190.788 1.08619L190.824 3.80911C190.902 9.90603 191.028 16.0016 191.072 22.0301C191.352 60.162 191.691 97.913 191.588 135.421C191.567 142.669 191.89 151.868 191.682 158.965C191.596 161.926 190.904 163.16 191.42 167.051C191.233 167.092 191.047 167.133 190.86 167.174C191.085 170.569 191.509 172.739 191.553 176.546C191.588 179.751 191.616 188.233 191.545 191.065C191.509 192.535 191.161 191.987 191.163 193.357C191.163 193.629 191.17 193.938 191.182 194.275L191.222 197.279L188.137 197.321C185.569 197.412 181.323 197.788 178.462 197.788C175.531 197.788 170.589 197.387 168.335 197.445C160.218 197.651 151.377 198.246 142.727 198.087C140.338 198.041 137.265 197.59 136.516 197.603C135.055 197.629 134.619 198.067 133.638 198.124C128.651 198.409 120.877 197.887 115.988 197.867C100.059 197.799 83.1843 197.991 67.3239 197.91C57.3036 197.86 40.6519 197.937 31.4007 197.607C29.4058 197.536 29.9376 197.055 28.2625 197.055C26.4051 197.055 25.3992 197.38 24.5313 197.406C20.0174 197.544 11.4083 197.764 4.99995 197.724L1.59815 197.769L1.55138 194.275C1.56464 192.154 1.60634 190.273 1.68886 188.863C1.75257 187.782 2.12907 186.999 2.1277 186.352C2.1277 186.024 1.87077 185.284 1.8445 184.257C1.61204 175.18 1.76188 168.563 1.84999 159.669C2.01683 142.637 1.53882 122.901 1.7975 105.008C1.85375 101.109 2.59846 98.4359 2.59096 97.8877C2.57594 96.6847 2.07504 95.9146 1.95131 93.4781C1.54463 85.3771 2.07913 74.4669 1.82802 66.7617C1.7043 62.955 1.06845 57.7239 0.927751 53.9778C0.815282 50.9858 1.06471 43.9196 0.785539 42.5934C0.616877 41.7866 0.0751555 41.4133 0.00733876 40.4471ZM8.43998 141.245C7.57386 140.712 8.29365 146.313 8.75858 144.212C8.86326 143.738 8.6648 141.382 8.43998 141.245ZM186.2 168.131C185.953 168.183 185.706 168.234 185.458 168.285C185.561 169.021 185.664 169.756 185.767 170.491C185.916 170.078 186.064 169.665 186.213 169.252C186.209 168.878 186.205 168.505 186.2 168.131Z" fill="black"/>
</svg>
