<svg width="485" height="10" viewBox="0 0 485 10" fill="none" xmlns="http://www.w3.org/2000/svg">
<path d="M461.224 0.00708319C461.803 -0.0516947 462.618 0.274249 463.3 0.292736C466.156 0.37361 467.214 0.60057 469.798 0.733383C473.63 0.930645 485.004 0.527905 485 2.78068C485 2.78072 485 2.78076 485 2.78079C485 2.80289 484.999 2.82525 484.997 2.84786C484.956 3.27694 483.987 3.74347 483.843 4.22854C483.698 4.7138 483.8 7.84863 482.425 8.02202C480.433 8.25014 475.655 7.43656 474.593 7.46998C473.867 7.49303 472.972 7.77615 472.043 7.82483C469.048 7.98173 467.481 7.77012 464.781 8.53862C463.703 8.12848 462.624 7.71834 461.546 7.30819C460.138 7.49443 458.005 6.95205 457.149 6.97991C456.447 7.00284 456.035 7.32456 455.304 7.33805C454.483 7.35499 453.224 7.00422 451.732 7.05358C449.285 7.1329 448.848 7.9735 447.38 8.07733C445.857 8.18477 443.491 7.72254 441.548 8.01465C441.304 8.10671 441.061 8.19878 440.817 8.29085C440.991 8.50056 441.165 8.71027 441.339 8.91998C440.361 9.01542 439.941 8.58551 439.042 8.57589C437.984 8.56433 437.444 8.96998 436.732 8.96663C436.149 8.96354 435.359 8.63575 434.603 8.65463C433.501 8.68047 433.741 9.1519 433.148 9.23879C432.911 9.27252 428.536 9.52338 428.289 9.52662C426.412 9.54132 426.25 8.8964 424.753 8.83695C420.602 8.67467 416.339 9.18673 412.498 9.37565C410.783 9.46018 408.994 9.41903 407.285 9.31241C409.981 7.66828 404.024 6.37212 406.248 8.9581C404.346 8.58694 402.996 9.28101 401.193 9.15947C400.026 9.0802 399.22 8.72061 397.554 8.72655C394.599 8.73937 391.364 9.75012 390.518 7.90943C387.048 8.22646 384.045 7.5532 382.791 9.17402C381.896 9.27135 379.606 8.29966 378.603 8.16623C377.654 8.04055 370.374 7.58892 369.183 7.56209C367.992 7.53527 365.907 7.50446 364.903 7.64482C363.643 7.81845 362.758 9.50021 360.519 7.52714C357.91 7.68105 356.98 7.6228 354.554 7.38911C354.115 7.34685 354.066 7.0545 353.809 7.05371C353.281 7.05262 352.381 7.26673 351.437 7.29113C349.885 7.33105 349.001 6.7143 349.172 7.65389C348.148 7.80925 347.125 7.96461 346.101 8.11997C345.743 7.93796 345.384 7.75594 345.026 7.57393C344.478 7.77035 343.931 7.96677 343.383 8.1632C344.029 6.80539 340.177 7.5995 341.425 8.38194C339.443 8.09668 337.46 7.81142 335.477 7.52617C335.757 5.98205 331.123 7.33893 331.511 8.17961C331.284 8.17792 331.057 8.17623 330.83 8.17455C328.844 7.75989 327.019 8.09193 324.598 7.81135C322.177 7.53079 322.404 7.38085 321.669 6.66883C321.099 6.70835 320.53 6.74787 319.96 6.78738C316.966 8.72903 317.501 5.35774 312.378 6.84133C310.744 5.61377 306.71 6.24849 304.036 6.61417C303.725 6.65664 303.719 6.89425 303.304 6.96666C302.291 7.14078 299.706 6.83 299.793 7.59663C298.899 7.37303 298.005 7.14942 297.11 6.92582C296.378 7.06367 295.647 7.20153 294.915 7.33938C294.918 7.57865 294.921 7.81791 294.925 8.05718C293.453 7.2387 291.139 7.54731 289.997 7.34999C289.77 7.31001 289.722 6.97986 289.016 6.88837C288.191 6.77981 286.653 6.87431 285.669 6.76917C285.286 7.13398 284.903 7.49879 284.52 7.86361C282.761 8.05828 282.144 7.09201 281.112 7.0149C280.926 7.00148 277.533 7.06381 277.35 7.08405C275.854 7.24427 276.276 8.06725 271.948 7.88224C271.177 7.84879 270.555 7.56304 269.858 7.55017C268.628 7.52701 264.918 8.16453 264.625 8.76009C263.134 8.01088 259.14 8.30763 257.964 8.08961C257.609 8.0226 257.53 7.54718 256.439 7.44377C255.555 7.35946 253.276 7.73531 252.154 7.66931C250.963 7.5975 250.539 7.19737 250.005 7.16805C249.501 7.14076 249.036 7.4621 248.349 7.45882C246.204 7.44316 244.263 6.9204 242.568 6.90735C240.117 6.8873 237.949 7.83706 235.897 8.25652C235.388 8.1936 234.889 7.98776 234.355 7.98478C227.752 7.94116 220.304 7.74999 213.682 7.532C210.608 7.43181 202.966 6.12079 205.002 8.2862C203.933 8.66249 196.166 7.77512 194.688 7.75895C193.211 7.74291 192.039 8.12802 190.878 8.13135C187.374 8.14099 184.907 7.85666 180.641 8.18531C179.54 8.27126 178.358 8.72794 177.706 8.72126C176.92 8.71214 176.075 8.26636 175.057 8.23606C172.631 8.16732 168.109 8.30405 165.781 8.22242C165.356 8.20655 165.207 7.81636 164.6 7.69325C162.233 7.21223 159.58 7.24806 160.047 8.4938C157.014 7.78085 154.206 8.41969 151.394 8.45338C145.448 8.52173 134.618 8.20886 129.438 8.72122C126.171 9.04445 126.253 9.60291 121.446 9.11124C120.379 9.0022 119.317 8.8559 118.022 8.72576C114.988 8.41956 112.207 7.38244 109.891 8.62049C106.521 8.29122 103.837 8.51427 101.338 7.44624C101.043 7.70055 100.748 7.95487 100.452 8.20919C100.039 8.21464 99.6261 8.2201 99.2129 8.22555C99.0844 7.98216 98.9561 7.73877 98.8277 7.49538C95.8678 7.42381 92.1103 8.41534 89.6047 8.40288C85.4038 8.38297 74.5845 7.97245 70.6017 7.63616C68.4872 7.45758 68.3723 7.97806 67.1638 6.90519C66.6906 6.97868 66.2174 7.05217 65.7442 7.12566C65.4477 7.35942 65.1512 7.59318 64.8547 7.82695C62.1415 7.83073 58.9241 7.46004 56.3393 7.45844C51.6293 7.45623 44.5553 8.0867 39.8264 7.65327C38.6407 7.54399 37.1592 7.0576 35.9978 7.06066C34.3075 7.06467 33.8951 7.86592 31.7501 7.87649C28.0532 7.89324 21.1704 6.94725 17.676 7.01129C16.6381 7.02978 16.1533 7.32723 15.4366 7.35762C12.4314 7.48828 9.96441 7.45889 7.0821 7.91413C3.98985 7.13912 4.25916 6.14755 3.30242 5.14448C2.57734 4.38741 0.35285 2.6318 0.037922 1.9694C-0.183295 1.50404 0.64747 0.907696 0.33719 0.395307C4.04472 -0.00572568 5.60104 0.447383 8.60941 1.17347C14.1679 1.15625 19.7264 1.13902 25.2848 1.1218C25.79 1.40218 26.2951 1.68256 26.8002 1.96294C26.8002 1.96355 26.8002 1.96416 26.8002 1.96477C28.9342 2.29154 29.8403 1.57403 30.9919 1.41311C42.0165 -0.12768 63.7064 1.14076 75.8394 1.342C78.454 1.38487 86.96 1.026 88.7531 1.48337C89.2174 1.60248 89.3457 2.03348 89.8398 2.05324C94.2554 1.8062 98.6709 1.55916 103.086 1.31212C112.164 2.00011 121.551 1.46673 130.7 1.38248C155.451 1.15418 179.956 0.865185 204.301 1.01849C209.006 1.04881 214.977 0.738413 219.583 0.956003C221.505 1.04625 222.305 1.7396 224.831 1.22928C224.858 1.41569 224.884 1.60211 224.91 1.78852C227.114 1.56809 228.523 1.14695 230.994 1.10893C233.075 1.0776 238.58 1.06128 240.419 1.13629C241.373 1.17387 241.017 1.52137 241.906 1.52144C243.428 1.51896 246.681 1.04424 248.782 1.04856C250.685 1.05248 253.892 1.46023 255.355 1.40513C260.624 1.20977 266.363 0.626993 271.978 0.797919C273.528 0.846202 275.522 1.30184 276.008 1.29024C276.957 1.26596 277.24 0.827928 277.878 0.772853C281.115 0.494587 286.16 1.02621 289.333 1.05343C299.672 1.14224 310.626 0.973386 320.921 1.07522C327.424 1.13925 338.233 1.08434 344.237 1.42665C345.532 1.50056 345.186 1.98036 346.273 1.9826C347.479 1.98499 348.132 1.66173 348.696 1.63664C352.596 1.46096 361.205 1.15058 364.886 1.48997C365.588 1.55513 366.096 1.93268 366.515 1.93218C366.728 1.93262 367.209 1.67667 367.876 1.65178C373.768 1.43146 378.063 1.59016 383.835 1.69018C394.89 1.8798 407.702 1.42821 419.315 1.71084C421.846 1.7723 423.579 2.52059 423.935 2.51383C424.716 2.50042 425.217 2.00055 426.799 1.88008C432.058 1.48424 439.138 2.03334 444.14 1.79254C446.611 1.67392 450.008 1.04507 452.44 0.909385C454.382 0.800921 458.968 1.0598 459.83 0.782409C460.354 0.614827 460.597 0.0736067 461.224 0.00708319ZM395.781 8.3048C396.129 7.4394 392.491 8.15169 393.854 8.61943C394.161 8.72475 395.691 8.52945 395.781 8.3048ZM225.522 6.44984C225.555 6.6973 225.587 6.94477 225.62 7.19223C226.098 7.09027 226.575 6.98831 227.053 6.88635C226.785 6.73707 226.517 6.5878 226.249 6.43852C226.007 6.44229 225.764 6.44607 225.522 6.44984Z" fill="#4A4A4A"/>
</svg>
