<svg width="106" height="91" viewBox="0 0 106 91" fill="none" xmlns="http://www.w3.org/2000/svg">
<path d="M3.66672 36.5826C3.39191 36.4757 3.12934 36.1221 2.82762 35.9737C1.74469 35.4545 1.3502 35.2269 0.469017 34.9736L2.38339 30.1514C2.4587 30.2088 2.53799 30.2674 2.62183 30.3273C2.67235 30.3634 2.72605 30.401 2.77996 30.4381C3.64127 31.0527 5.48839 31.8918 6.99888 32.1139L6.71242 32.1153C6.74974 32.1169 6.78605 32.1183 6.82173 32.1198C8.12141 32.1632 9.59586 32.1312 9.67801 32.7171C9.67801 32.7171 9.67801 32.7171 9.67801 32.7171C9.67801 32.7172 9.67802 32.7172 9.67802 32.7172C9.67802 32.7172 9.67802 32.7172 9.67802 32.7172C9.68049 32.7298 9.68235 32.7427 9.68359 32.7559C9.70746 33.0055 9.20998 33.3755 9.18007 33.6697C9.14773 33.9638 9.56229 35.7557 8.75378 36.016C8.38391 36.1271 7.8018 36.216 7.13117 36.2261C7.08108 36.2268 7.03117 36.2271 6.9816 36.227L6.77137 36.2281C5.32945 36.0758 3.90141 35.4219 3.47377 35.2783C3.01993 35.1364 2.40848 35.0749 1.84669 34.8357C1.23695 34.5761 0.756613 34.3089 0.322266 34.0579C0.211795 33.9939 0.104631 33.931 -4.45843e-05 33.8695L1.28476 30.6332C2.10966 30.7514 2.93332 30.8978 3.99543 31.0198C4.57809 31.5143 5.10235 32.035 5.58377 32.5682C6.43693 32.8772 7.36813 33.8497 7.80877 34.1316C8.1654 34.3548 8.48888 34.3416 8.85499 34.5957C9.26941 34.8829 9.74968 35.5104 10.463 36.057C11.6254 36.9596 12.1545 36.7643 12.8575 37.3188C13.5911 37.9032 14.4087 39.0968 15.3394 39.817C15.4817 39.8847 15.6251 39.9544 15.7686 40.0249C15.7881 39.8596 15.8069 39.6939 15.8257 39.5287C16.2847 39.9277 16.2522 40.2772 16.6223 40.6894C17.043 41.1609 17.4432 41.2404 17.7303 41.569C17.8672 41.7263 17.98 41.967 18.1161 42.2093C18.1994 42.3574 18.2914 42.5062 18.4032 42.6367C18.4107 42.6456 18.4183 42.6543 18.4261 42.6629C18.8683 43.1602 18.9933 42.8654 19.2647 43.1081C19.3807 43.1967 21.1543 45.1785 21.2382 45.305C21.935 46.2086 21.6758 46.5227 22.1761 47.2759C23.558 49.367 25.2088 51.3733 26.4553 53.3827C26.5561 53.5448 26.655 53.7107 26.7512 53.8786C26.8251 54.0076 26.8975 54.138 26.9683 54.2695C27.3147 54.9121 27.6249 55.5828 27.8942 56.2463C26.2879 55.2085 27.1195 58.7949 27.9715 56.9145C28.2546 58.0636 28.9656 58.656 29.3067 59.7151C29.5232 60.3995 29.4958 60.9365 29.8354 61.8911C30.4396 63.5778 31.5638 65.3065 30.6269 66.0943C30.8766 66.753 31.0422 67.4016 31.1941 67.9885C31.2086 68.0445 31.223 68.1 31.2373 68.155C31.5172 69.2285 31.7754 70.0737 32.4775 70.401C32.6529 70.9127 32.3639 72.3712 32.4 72.9695C32.4556 73.5363 32.9452 77.8301 33.0163 78.5315C33.1094 79.2324 33.2636 80.4577 33.4205 81.0403C33.5475 81.51 34.0304 81.8477 34.083 82.4263C34.0891 82.4929 34.09 82.562 34.0847 82.634C34.0628 82.9313 33.9333 83.2871 33.621 83.7064C33.7789 85.3202 33.6995 85.9107 33.4944 87.3413C33.4563 87.5971 33.2897 87.6184 33.2821 87.7643C33.2748 87.9147 33.295 88.1178 33.3238 88.3192C33.338 88.4137 33.3565 88.5211 33.3725 88.5583C33.3773 88.5698 33.3954 88.5871 33.3608 88.459C33.3338 88.3966 33.3336 88.2921 33.1023 88.0265C32.9936 87.908 32.7896 87.7489 32.5279 87.6723C32.2624 87.5943 32.0417 87.6106 31.8706 87.6482C31.7035 87.6872 31.6126 87.7349 31.5406 87.7746C31.1917 87.9828 31.0836 88.1935 31.0167 88.3035C30.9753 88.3787 30.9529 88.4337 30.9364 88.4771C30.9023 88.5716 30.9026 88.5825 30.8946 88.6123C30.8828 88.6634 30.8844 88.664 30.8834 88.6712C30.8836 88.6774 30.8877 88.6589 30.8917 88.6392C30.9002 88.5973 30.9103 88.5442 30.9211 88.4878C30.9424 88.3808 30.9658 88.2747 30.987 88.1795C31.0747 87.783 31.1241 87.5756 30.7768 87.6177C30.7408 87.0128 30.7096 86.3992 30.6821 85.7914C30.8014 85.5882 30.9205 85.3888 31.04 85.1848C30.9643 84.857 30.8909 84.5183 30.8173 84.1931C31.5117 84.6356 31.3181 82.3491 30.8209 83.0329C30.9792 82.3835 31.1389 81.7352 31.2999 81.086C31.376 80.7848 31.4523 80.4751 31.5281 80.165C31.5728 79.9825 31.617 79.8038 31.6619 79.6178C32.4685 79.8714 32.0319 77.1025 31.5615 77.2781C31.5765 77.147 31.5915 77.0161 31.6068 76.8838C31.9524 75.7489 31.891 74.6704 32.1998 73.2749C32.5095 71.8806 32.5751 72.0221 33.0012 71.6378C33.0194 71.3034 33.0381 70.9695 33.0576 70.6348C32.2535 68.7635 33.9717 69.3002 33.6129 66.2131C34.3212 65.4316 34.4055 63.3972 34.5399 61.8267C34.5528 61.6684 34.5649 61.516 34.5766 61.3713C34.5913 61.1898 34.4696 61.161 34.4817 60.915C34.4895 60.7653 34.5235 60.5672 34.5659 60.3456C34.6915 59.6834 34.8891 58.8524 34.5859 58.827C34.8139 58.3335 35.0447 57.8427 35.2824 57.3507C35.3128 56.9125 35.3493 56.4682 35.3927 56.0243C35.2713 55.9945 35.15 55.9646 35.0287 55.9348C35.6638 55.182 35.9279 53.7887 36.2775 53.1571C36.3464 53.0321 36.5145 53.0636 36.7173 52.6759C36.9515 52.2246 37.2925 51.3335 37.628 50.8166C37.5699 50.5187 37.5197 50.2164 37.4783 49.9092C37.9676 48.8724 38.6258 48.8282 39.0401 48.3332C39.0894 48.2221 40.4762 46.5905 40.575 46.525C40.9308 46.1097 40.9219 45.8972 41.2739 45.4442C41.4916 45.1614 41.8507 44.7857 42.5757 44.2164C42.6417 44.1647 42.7112 44.1111 42.7833 44.0563C43.1497 43.7789 43.5321 43.6585 43.8642 43.4052C44.4356 42.9531 46.0462 41.3755 46.032 41.0357C46.98 40.8109 48.9652 39.3881 49.6765 39.1454C49.8877 39.0688 50.0402 39.2467 50.6621 38.9839C51.16 38.7657 52.3852 38.0067 53.0936 37.8072C53.5963 37.6572 53.9184 37.6699 54.1696 37.669C54.2732 37.6729 54.3662 37.6717 54.4609 37.6502C54.7384 37.5871 54.9496 37.363 55.3235 37.2525C55.3725 37.2381 55.4212 37.2242 55.4696 37.2107C56.5897 36.8971 57.6864 36.7789 58.592 36.4898C59.9579 36.0526 61.0366 35.2182 62.1594 34.6742C62.4606 34.6183 62.7756 34.6335 63.0846 34.549C64.1136 34.2682 65.192 34.0067 66.2994 33.7823C66.6208 33.7172 66.9465 33.6562 67.2714 33.5998C70.0086 33.1322 72.7848 32.9248 75.3886 32.8849C75.7331 32.8808 76.1638 32.896 76.6524 32.9295C76.8873 32.9466 77.1556 32.9675 77.4341 32.9999C77.5836 33.0182 77.7067 33.031 77.9452 33.0765C77.9996 33.0884 78.0705 33.1008 78.2018 33.1417C78.2832 33.1741 78.2775 33.148 78.5473 33.2982C78.6641 33.3739 78.8375 33.4853 79.0098 33.7669C79.0778 33.868 79.2106 34.1897 79.1963 34.4722C79.1922 34.7632 79.0873 35.0126 78.9846 35.1704C78.8859 35.3267 78.7592 35.4404 78.7162 35.4758C78.6775 35.5081 78.6422 35.5343 78.6098 35.5565C78.545 35.6008 78.4915 35.6303 78.4447 35.6541C78.3514 35.7011 78.2796 35.7261 78.2508 35.7358C78.1747 35.7616 78.1106 35.7785 78.0473 35.7936C77.499 35.9067 76.9821 35.9861 76.5508 36.065C75.5553 36.2429 74.9713 36.4374 75.5842 36.8264C74.927 37.1769 70.1763 37.0092 69.3088 36.9356C68.4219 36.921 67.7136 37.0826 67.0164 37.0528C66.2839 37.0207 65.6295 36.9637 64.9781 36.8999C64.6942 36.8718 64.4067 36.8437 64.114 36.817C63.1966 36.7328 62.2206 36.6631 60.9754 36.6299C60.3248 36.6133 59.6087 36.7609 59.2233 36.7183C58.7594 36.6668 58.2817 36.405 57.6817 36.3216C56.2528 36.134 53.5559 35.8086 52.1445 35.4309C51.8903 35.3649 51.8382 35.168 51.4834 35.019C51.4172 34.991 51.351 34.9632 51.2852 34.9358C51.1925 34.8967 51.1 34.8587 51.0081 34.8222C49.8375 34.3603 48.6673 34.067 48.7563 34.6211C47.1043 33.7566 45.3951 33.4561 43.7468 32.5759C42.8252 32.0738 41.6561 31.3298 40.6474 30.1253C40.6395 30.1159 40.6316 30.1064 40.6238 30.0969C38.1585 27.1598 36.9282 22.9806 36.4008 20.6621C36.332 20.3791 36.2731 20.1376 36.2198 19.92C36.2079 19.8724 36.1962 19.8258 36.1847 19.7803C35.9037 18.6192 35.7039 18.2399 35.6986 15.8425C35.7009 15.1999 35.7263 14.5613 35.7473 13.787C35.7974 11.9662 36.2233 10.3223 35.6962 8.94646C35.8457 6.94641 35.8036 5.34687 36.3344 3.89167C36.2336 3.71171 36.1332 3.53215 36.0333 3.35109C36.0357 3.29767 36.0381 3.2442 36.0405 3.19071C36.0495 2.9942 36.0589 2.80624 36.0691 2.61229C36.075 2.60857 36.0809 2.60486 36.0868 2.60116C36.19 2.53798 36.2938 2.46865 36.3972 2.40535C36.4188 2.13607 36.4317 1.84584 36.4297 1.58425C36.4292 1.46662 36.4206 1.28361 36.4097 1.32453C36.4091 1.33325 36.4092 1.36215 36.4186 1.42264C36.4221 1.44438 36.4337 1.51351 36.4662 1.60929C36.4856 1.66334 36.4977 1.70239 36.5523 1.80757C36.6209 1.93181 36.7327 2.11629 36.9897 2.30006C37.2051 2.47893 37.7591 2.62751 38.1112 2.52896C38.291 2.49074 38.429 2.42713 38.5326 2.36743C38.6047 2.32536 38.6469 2.2949 38.6908 2.26139C38.8529 2.13502 38.9275 2.02755 38.9499 2.00042C39.009 1.92229 39.0297 1.88293 39.0382 1.87136C39.0723 1.81772 39.0502 1.87714 39.0401 1.92473C38.9262 2.38498 38.8058 3.02488 38.696 3.57746C38.6898 3.60834 38.6835 3.63952 38.677 3.67099C38.5569 4.28477 38.4328 4.88762 38.2836 5.37949C37.6034 7.71417 35.5132 13.7612 34.513 15.9241C34.0016 17.0769 34.1565 17.2112 33.502 17.7306C33.421 18.0034 33.3393 18.2715 33.2522 18.5452C33.2585 18.6493 33.2645 18.7532 33.2702 18.8567C33.2753 18.9471 33.2804 19.0373 33.2855 19.1271C33.2856 19.1291 33.2857 19.1311 33.2858 19.1331C32.6465 20.587 31.7458 22.2612 31.1037 23.6365C29.935 26.1482 28.2822 30.0211 26.3578 32.2944C25.8831 32.8652 25.1577 33.47 24.6018 33.9734C24.5688 34.0035 24.5371 34.0327 24.5066 34.061C24.3895 34.1697 24.2921 34.2717 24.2059 34.3698C23.8221 34.8046 23.6702 35.1597 22.9071 35.827C21.8515 36.7394 19.7905 38.2859 17.4835 38.3482C17.3657 38.3522 17.2497 38.3554 17.1338 38.358C16.1757 38.3798 15.2878 38.3293 14.6036 38.2588C13.9628 38.19 13.6506 38.198 13.1994 38.094C12.3976 37.9006 11.6403 37.596 10.9831 37.0861C10.9542 37.0637 10.9253 37.0413 10.8964 37.019C10.2015 36.4826 9.52287 35.9598 8.76934 35.416C7.4764 34.1431 7.73496 34.0768 7.4367 33.5557C7.21301 33.1591 6.42374 32.0651 6.31169 31.8363C6.24902 31.6709 6.76248 31.8624 6.6611 31.6573C8.53792 32.9371 9.10847 33.6042 10.386 34.8331C10.8428 35.2035 11.3008 35.5729 11.7599 35.9383C11.7882 35.9608 11.8165 35.9833 11.8449 36.0057C13.1466 36.9859 15.1853 36.9017 17.0144 36.738C17.1226 36.7276 17.2301 36.7165 17.3384 36.7046C17.8122 36.6511 18.2744 36.5205 18.7225 36.3252C18.9881 36.2959 19.2603 36.2462 19.5358 36.1791C19.5359 36.1793 19.5359 36.1794 19.536 36.1796C20.5818 35.6574 20.8335 35.121 21.2871 34.6673C21.7726 34.1685 22.3013 33.5914 22.9087 32.9662C23.0113 32.861 23.1164 32.7542 23.2239 32.6469C26.186 29.4682 28.6473 23.1696 30.9255 18.1203C30.9575 18.0467 30.9896 17.973 31.0217 17.8992C31.901 15.8666 32.5869 13.883 33.1266 12.2187C33.6087 10.7863 34.8018 5.98429 35.2802 5.0251C35.4055 4.7737 35.6022 4.76182 35.6928 4.48021C35.825 3.94337 35.9596 3.40398 36.1032 2.8652C36.1116 2.83382 36.12 2.80281 36.1282 2.77217C36.296 2.16155 36.429 1.60015 36.6773 0.890945C36.6969 0.839976 36.7159 0.790602 36.7513 0.715053C36.7726 0.671588 36.7804 0.651569 36.8264 0.573899C36.8473 0.539454 36.872 0.501109 36.9072 0.45483C36.9588 0.391292 37.0323 0.289226 37.2238 0.167407C37.3564 0.0808201 37.6802 -0.0544595 38.0393 0.0231981C38.4061 0.106591 38.5785 0.287929 38.6939 0.426159C38.8074 0.572836 38.8377 0.66102 38.8584 0.706319C38.8807 0.760215 38.895 0.804804 38.9061 0.843728C38.9468 1.00024 38.9442 1.02542 38.9535 1.09325C38.9634 1.1827 38.966 1.24886 38.9683 1.30465C38.9751 1.52621 38.9714 1.67889 38.969 1.84488C38.9633 2.16648 38.9542 2.4786 38.9478 2.78516C38.9435 2.97927 38.9402 3.16434 38.9373 3.357C38.9291 3.91474 38.9253 4.47076 38.9256 5.02792C38.4774 9.73914 38.6835 14.6798 39.3601 19.3427C39.3667 19.3865 39.3734 19.43 39.3802 19.4732C39.45 19.9206 39.5324 20.3642 39.6271 20.8033C40.2081 23.4919 41.3254 26.1032 43.0148 28.1006C43.0198 28.1064 43.0248 28.1122 43.0299 28.1181C44.9209 30.2275 48.5204 31.0638 51.7807 31.9358C51.8728 31.9592 51.9657 31.9827 52.0594 32.0062C55.9301 32.9063 60.1925 33.1531 64.3678 33.4624C64.6558 33.4825 64.9453 33.5026 65.2314 33.5225C68.4216 33.7401 71.628 33.7639 74.7054 33.3917C75.1353 33.3384 75.5845 33.2683 76.0304 33.1809C76.4461 33.0993 76.8712 33.0004 77.2603 32.8851C77.26 32.8847 77.2438 32.8875 77.1936 32.9056C77.1786 32.9114 77.1021 32.9379 76.9885 33.0032C76.9295 33.0377 76.855 33.0842 76.7575 33.1662C76.63 33.2747 76.1153 33.7353 76.1716 34.5856C76.1869 34.7814 76.2384 34.9704 76.3075 35.1277C76.3607 35.2488 76.4155 35.3402 76.4739 35.4238C76.5904 35.5886 76.7053 35.6944 76.8004 35.7708C76.9898 35.9194 77.1232 35.9723 77.1921 36.0023C77.2848 36.0402 77.3392 36.0547 77.3772 36.0651C77.4559 36.0846 77.4475 36.0812 77.4549 36.0836C77.4477 36.0846 77.3393 36.0778 77.2332 36.0764C77.0228 36.073 76.785 36.0769 76.5361 36.0842C76.0499 36.099 75.5428 36.1267 75.0454 36.1576C74.0466 36.2201 73.0759 36.2968 72.1909 36.3529C71.1035 36.4272 70.6007 36.1374 69.2229 36.6028C69.194 36.5141 69.165 36.4255 69.136 36.3369C68.6559 36.4564 68.2509 36.5864 67.8561 36.718C67.5704 36.8134 67.2884 36.9101 66.9908 37.0065C66.6444 37.1178 66.2743 37.2275 65.8365 37.3387C64.6923 37.6062 61.6827 38.494 60.6571 38.7966C60.1259 38.9468 60.2702 38.7216 59.7788 38.8801C59.0244 39.1235 57.555 39.8081 56.3729 40.2051C56.2376 40.2507 56.1041 40.2931 55.9791 40.3299C55.6843 40.4167 55.3305 40.5038 54.9498 40.5858C54.1048 40.7503 53.0668 41.0928 52.5544 41.3677C50.0133 42.7148 47.5631 44.8847 45.0654 46.8482C45.004 46.8965 44.9395 46.9454 44.8737 46.9938C44.3841 47.3535 43.8006 47.7094 43.4441 47.9472C43.3186 48.0289 43.226 48.0951 43.1801 48.1391C42.8213 48.4877 42.8774 48.7533 42.6709 49.0072C41.5958 50.2567 40.0623 52.3104 39.4754 53.9417C38.6486 56.0684 38.1356 58.498 37.6317 60.9868C37.5366 61.4589 37.4429 61.9301 37.3474 62.4086C36.7667 65.3914 36.3903 68.5342 36.0062 71.5497C35.6997 73.9681 35.3496 77.4359 34.9852 80.5415C34.9472 80.8624 34.909 81.1797 34.8712 81.4842C34.706 82.818 34.5555 84.0416 34.4168 85.0337C34.3139 85.7755 34.0699 85.5506 34.0183 86.1775C33.9618 86.8776 34.1137 87.2627 34.1053 87.5905C34.0993 87.8348 34.0931 88.1105 34.0846 88.4185C34.0813 88.5339 34.0779 88.6555 34.0721 88.7904C34.0689 88.8604 34.066 88.9277 34.0579 89.025C34.0541 89.0695 34.0493 89.1242 34.0362 89.2112C34.0282 89.2597 34.0228 89.3013 33.9963 89.4085C33.9825 89.4591 33.9712 89.5132 33.9178 89.6498C33.8882 89.7204 33.8692 89.7719 33.7907 89.9073C33.6903 90.0665 33.5353 90.3183 33.1264 90.5601C32.9155 90.6674 32.6593 90.8406 32.0301 90.8224C31.7457 90.8102 31.3736 90.6939 31.117 90.521C30.8677 90.3578 30.714 90.1852 30.5979 90.026C30.4062 89.7557 30.3415 89.5527 30.2999 89.4322C30.255 89.2918 30.236 89.2018 30.2188 89.1169C30.1597 88.7966 30.1551 88.6332 30.1427 88.4552C30.1239 88.126 30.1203 87.8498 30.115 87.5725C30.106 87.0242 30.0985 86.4897 30.0812 85.9663C30.0487 84.9168 29.9774 83.9069 29.9055 83.057C29.9008 82.9999 29.896 82.9432 29.8911 82.8871C29.8452 82.368 29.809 81.8998 29.7953 81.5231C29.7807 81.122 29.9624 80.8027 29.9279 80.5634C29.911 80.4431 29.721 80.1918 29.649 79.8143C29.0027 76.4928 28.6325 74.0426 27.9534 70.8011C27.8314 70.2287 27.6994 69.6503 27.5573 69.068C27.5443 69.0147 27.5312 68.9615 27.5181 68.9083C26.5006 64.7289 24.8818 60.4191 22.7712 56.4902C22.7075 56.3702 22.6433 56.2503 22.5786 56.1304C21.8808 54.8367 21.1412 53.5741 20.3927 52.3499C19.6458 51.1298 19.4428 50.0652 19.3222 49.8998C19.0567 49.5407 18.6454 49.4833 18.0512 48.8051C17.1585 47.7869 16.2007 46.559 15.2066 45.3502C15.1031 45.2243 15.0001 45.0996 14.8979 44.9763C13.7826 43.6289 12.6375 42.3345 11.5789 41.3894C10.5458 40.4565 8.87365 39.4565 7.79371 38.707C6.93451 38.0637 4.99857 36.5678 4.51382 36.5157C4.23079 36.4694 3.95418 36.6912 3.66672 36.5826ZM29.9392 62.9925C29.3838 62.9562 30.4486 64.9111 30.4746 64.0453C30.4823 63.8476 30.0869 63.0008 29.9392 62.9925ZM68.4159 34.1208C68.3766 34.0033 68.3371 33.886 68.2975 33.7686C68.0232 33.8652 67.748 33.9646 67.4762 34.0665C67.6476 34.1096 67.8186 34.1537 67.9893 34.1988C68.1317 34.1721 68.2735 34.1461 68.4159 34.1208Z" fill="black"/>
<path d="M49.7958 61.1726C49.7008 61.1626 49.6848 60.9332 49.6001 60.8832C49.2932 60.7065 49.2808 60.5917 49.0503 60.4648L50.9681 55.6462C50.9887 55.6682 51.0103 55.6901 51.033 55.7121C51.0473 55.726 51.0623 55.7401 51.0775 55.7539C51.3362 55.9877 51.8009 56.1749 52.0857 56.3608L51.7985 56.3622C51.8093 56.3653 51.8193 56.3685 51.8289 56.3718C52.1515 56.5083 52.872 56.6664 52.9519 57.2435C52.9519 57.2435 52.9519 57.2435 52.9519 57.2435C52.9519 57.2436 52.9519 57.2436 52.9519 57.2436C52.9519 57.2436 52.9519 57.2436 52.9519 57.2436C52.9543 57.2562 52.9566 57.269 52.9586 57.282C52.997 57.5287 52.8269 57.8356 52.8459 58.1209C52.8624 58.4065 53.2407 60.2022 52.899 60.3809C52.7434 60.4561 52.4707 60.4931 52.1377 60.4782C52.1143 60.477 52.0911 60.4755 52.0684 60.4738L51.8576 60.4749C51.1304 60.3518 50.473 59.9352 50.2699 59.8763C50.0525 59.8177 49.7265 59.8732 49.4525 59.7751C49.1563 59.6692 48.9301 59.548 48.7265 59.4385C48.6766 59.4115 48.6282 59.3853 48.5808 59.3602L49.8679 56.1262C50.2587 56.1653 50.6889 56.2059 51.2532 56.1344C51.489 56.494 51.6736 56.857 51.8249 57.2176C52.241 57.3032 52.5533 57.8883 52.747 58.0006C52.9063 58.0909 53.1101 57.9941 53.273 58.1014C53.457 58.2217 53.5908 58.5889 53.9059 58.8083C54.4195 59.1714 54.8419 58.8702 55.1704 59.0834C55.5135 59.3093 55.7505 59.934 56.22 60.1689C56.304 60.1756 56.3892 60.1838 56.4734 60.1914C56.5357 60.0716 56.5964 59.9501 56.6573 59.8292C56.8791 59.9781 56.7562 60.23 56.912 60.4082C57.0883 60.6114 57.3662 60.5527 57.4879 60.6935C57.5462 60.7612 57.5628 60.8917 57.5969 61.0155C57.6167 61.0877 57.6425 61.1577 57.6863 61.2121C57.6916 61.2186 57.6971 61.2249 57.7029 61.2309C57.8994 61.4379 58.079 61.2069 58.2192 61.2922C58.2779 61.3224 59.1118 62.1224 59.1494 62.1769C59.455 62.5641 59.1631 62.8313 59.361 63.1657C59.9073 64.0925 60.7671 64.8565 61.3717 65.7063C61.4205 65.7748 61.4672 65.8455 61.5118 65.9179C61.5445 65.9711 61.5759 66.0252 61.6063 66.0801C61.7625 66.3628 61.8875 66.6669 61.9842 66.9715C60.7788 66.7708 60.7278 68.4978 61.9084 67.3155C61.9156 67.8684 62.4439 68.0328 62.5548 68.5134C62.6241 68.823 62.4965 69.0997 62.6449 69.5119C62.909 70.2367 63.7274 70.8917 62.7132 71.396C62.8548 71.6654 62.923 71.9407 62.9897 72.1877C62.9957 72.2103 63.0018 72.2327 63.008 72.2548C63.1333 72.7072 63.2781 73.053 63.9225 73.1154C64.0296 73.3259 63.5769 74.0099 63.5462 74.2682C63.5266 74.5159 63.5755 76.3349 63.5958 76.6283C63.6254 76.9223 63.6791 77.4358 63.7928 77.6745C63.8847 77.8675 64.3442 77.9805 64.3557 78.2316C64.3573 78.2612 64.3543 78.2921 64.3456 78.3244C64.3078 78.4642 64.1625 78.6366 63.8369 78.8348C63.9496 79.5486 63.8847 79.8183 63.708 80.412C63.6756 80.5161 63.5096 80.5203 63.505 80.5785C63.5006 80.6369 63.5252 80.7183 63.5538 80.7798C63.5677 80.8073 63.5846 80.8366 63.5937 80.8047C63.5957 80.7826 63.6057 80.7608 63.5713 80.6216C63.5496 80.5542 63.5293 80.4399 63.3745 80.2203C63.2784 80.0951 63.1637 79.961 62.9114 79.825C62.67 79.6959 62.3762 79.6554 62.1684 79.6762C61.8292 79.7164 61.7396 79.7862 61.6224 79.8449C61.2793 80.0504 61.1702 80.2549 61.0975 80.3744C61.055 80.4509 61.0316 80.5075 61.014 80.5534C60.9775 80.6529 60.9758 80.6711 60.9666 80.7053C60.9517 80.7687 60.952 80.7774 60.9491 80.7963C60.946 80.8225 60.9477 80.8248 60.9495 80.8247C60.9535 80.8224 60.9604 80.8054 60.9678 80.7875C60.9827 80.7523 61.0009 80.7103 61.0172 80.6748C61.0866 80.5176 61.1268 80.4313 60.7825 80.4339C60.7196 80.18 60.6591 79.9208 60.6005 79.6631C60.7088 79.5841 60.8168 79.5066 60.9248 79.4269C60.8317 79.2861 60.74 79.139 60.6482 78.9985C61.3652 79.2235 61.0374 78.2539 60.5838 78.5107C60.7035 78.2438 60.823 77.9781 60.9422 77.7127C60.9966 77.5966 61.0509 77.4763 61.1048 77.3562C61.1377 77.2828 61.1701 77.2122 61.2029 77.1378C62.0198 77.294 61.4124 76.1154 60.9561 76.159C60.9628 76.1048 60.9695 76.0517 60.9762 75.9974C61.248 75.5462 61.1187 75.0919 61.3329 74.5273C61.5473 73.9635 61.621 74.0269 62.0174 73.8949C62.0124 73.756 62.0076 73.6171 62.0031 73.4779C61.0696 72.6305 62.8205 72.9876 62.2126 71.6506C62.8537 71.373 62.7473 70.5058 62.6953 69.817C62.6899 69.7571 62.6844 69.6992 62.6794 69.6439C62.6724 69.5667 62.5502 69.5407 62.5331 69.4349C62.5232 69.3706 62.5329 69.2887 62.5481 69.1969C62.5927 68.9234 62.684 68.5804 62.3856 68.5322C62.5472 68.3413 62.7102 68.1501 62.8756 67.9594C62.8474 67.7659 62.8221 67.5683 62.8006 67.3678C62.6795 67.337 62.5585 67.3062 62.4374 67.2754C62.9454 67.0149 62.971 66.3848 63.1795 66.1221C63.2207 66.0707 63.385 66.1171 63.498 65.9571C63.6292 65.7713 63.7533 65.3659 63.9287 65.1485C63.8091 64.9684 63.695 64.7825 63.5872 64.5907C63.7682 64.0783 64.2974 64.2024 64.4995 63.993C64.5245 63.9449 65.1368 63.1909 65.1766 63.1579C65.3237 62.9434 65.2474 62.7784 65.3889 62.5101C65.4572 62.3648 65.5922 62.1924 65.8898 61.9747C65.9181 61.9541 65.9487 61.9324 65.9804 61.9108C66.1423 61.8006 66.3563 61.8154 66.4992 61.7114C66.743 61.5268 67.3192 60.7094 67.2188 60.4223C67.7519 60.5018 68.5703 59.8162 68.9204 59.7584C69.0226 59.741 69.1539 59.9344 69.441 59.844C69.6691 59.7695 70.1747 59.3356 70.5155 59.2555C70.7717 59.1925 70.9455 59.2598 71.0773 59.29C71.1138 59.3047 71.1471 59.3135 71.1787 59.3087C71.2892 59.2919 71.3447 59.1123 71.4918 59.0695C71.511 59.064 71.5307 59.0588 71.5499 59.0541C71.9955 58.9446 72.4855 59.027 72.8573 58.9101C73.418 58.7338 73.7835 58.1238 74.2254 57.7756C74.3579 57.7682 74.5071 57.8301 74.6379 57.7944C75.0787 57.6748 75.5444 57.5658 76.0247 57.4758C76.1612 57.4501 76.2989 57.4265 76.4354 57.4051C77.6249 57.2227 78.7901 57.176 79.9044 57.1996C80.0529 57.2032 80.2388 57.2266 80.4568 57.261C80.5628 57.2785 80.682 57.2981 80.821 57.3236C80.8988 57.338 80.9542 57.3468 81.1172 57.3805C81.1569 57.3899 81.2049 57.3979 81.3188 57.4332C81.3937 57.4629 81.3738 57.4343 81.6277 57.5713C81.7376 57.6405 81.9018 57.7412 82.0752 58.0056C82.1462 58.112 82.2737 58.3738 82.281 58.6664C82.2937 58.9566 82.1994 59.2218 82.0984 59.3894C81.9983 59.5588 81.8855 59.6656 81.8199 59.7222C81.7817 59.7548 81.7471 59.7809 81.7156 59.8029C81.6525 59.8466 81.6017 59.8749 81.5583 59.8971C81.4722 59.9408 81.4101 59.9621 81.3872 59.9697C81.3249 59.9905 81.2781 60.002 81.2356 60.0116C80.976 60.0473 80.7477 60.0688 80.5586 60.1041C80.1227 60.1835 79.878 60.3436 80.1832 60.7718C79.8882 61.0288 77.8153 60.7112 77.457 60.6749C77.0799 60.664 76.7757 60.8385 76.4786 60.8262C76.1679 60.813 75.8914 60.7795 75.6169 60.7439C75.5002 60.7283 75.3817 60.7128 75.2609 60.6989C74.8845 60.6557 74.4821 60.6298 73.9615 60.6595C73.6896 60.6756 73.379 60.8615 73.2177 60.8411C73.0236 60.8162 72.8363 60.5844 72.5854 60.5402C71.9893 60.4409 70.8385 60.3352 70.2091 60.1418C70.0961 60.1075 70.0965 59.922 69.9449 59.8237C69.9205 59.8077 69.8959 59.792 69.8714 59.7767C69.8315 59.7499 69.7913 59.7244 69.7513 59.7006C69.2843 59.4248 68.7784 59.3343 68.731 59.8473C68.0805 59.2867 67.2902 59.3035 66.4985 58.8749C66.062 58.6324 65.4727 58.2527 64.9385 57.6035C64.9375 57.6022 64.9365 57.601 64.9355 57.5998C63.7631 56.1697 63.248 54.2861 62.917 53.2434C62.8773 53.1228 62.8408 53.0195 62.8062 52.9259C62.7964 52.9008 62.7867 52.8764 62.7772 52.8527C62.5818 52.3579 62.4197 52.1947 62.515 51.166C62.5423 50.8911 62.5885 50.6188 62.6288 50.291C62.7238 49.5183 63.1592 48.8337 62.6277 48.2567C62.77 47.42 62.6946 46.7472 63.1817 46.1536C63.0757 46.0754 62.9699 45.997 62.8643 45.9177C62.8649 45.8969 62.8655 45.8761 62.8661 45.8553C62.8687 45.7703 62.8713 45.6896 62.8743 45.607C62.8801 45.6056 62.8858 45.6043 62.8915 45.603C62.9922 45.5805 63.0931 45.5552 63.1937 45.5331C63.205 45.4232 63.206 45.3023 63.1952 45.2103C63.1911 45.1807 63.1761 45.0779 63.1722 45.2234C63.1732 45.2488 63.1754 45.2956 63.1912 45.3787C63.2041 45.4394 63.2213 45.5202 63.277 45.6509C63.3346 45.729 63.4829 46.3247 64.4132 46.4999C64.8562 46.5612 65.2323 46.3795 65.3664 46.2905C65.4808 46.2183 65.5549 46.1523 65.6112 46.0976C65.7268 45.9809 65.7538 45.9339 65.7811 45.8982C65.8346 45.822 65.8524 45.7881 65.8655 45.7675C65.9131 45.6863 65.9083 45.7054 65.9145 45.7112C65.9232 45.8452 65.9075 46.1391 65.9007 46.3679C65.9001 46.38 65.8995 46.3923 65.8988 46.4047C65.8921 46.6568 65.8715 46.9103 65.8088 47.1095C65.5288 48.0515 64.5072 50.518 63.9999 51.3959C63.7393 51.8625 63.9111 51.9623 63.4095 52.0926C63.3893 52.2128 63.3686 52.3315 63.3452 52.4532C63.3732 52.5092 63.4009 52.5652 63.4283 52.6213C63.4514 52.6661 63.4744 52.7108 63.4974 52.7554C63.4979 52.7564 63.4984 52.7575 63.4989 52.7585C63.2266 53.3528 62.7708 54.0059 62.4968 54.5715C61.9999 55.6022 61.3987 57.2625 60.4614 58.2251C60.2297 58.4658 59.8351 58.6812 59.5767 58.9123C59.5589 58.9283 59.5421 58.944 59.526 58.9594C59.4831 59.0015 59.4495 59.0447 59.4217 59.0883C59.2916 59.2899 59.2917 59.4952 58.9598 59.7753C58.5053 60.1508 57.4888 60.8317 56.3353 60.8136C56.2863 60.8118 56.2379 60.8098 56.1895 60.8076C55.775 60.7889 55.3882 60.7397 55.085 60.7001C54.8011 60.6618 54.6538 60.6986 54.4445 60.6469C54.0722 60.5511 53.703 60.4027 53.3594 60.1418C53.3477 60.133 53.3359 60.1243 53.3242 60.1157C53.0325 59.9009 52.7451 59.6962 52.4161 59.4984C51.951 58.9004 52.1391 58.7752 52.0987 58.4615C52.0692 58.2238 51.8898 57.5995 51.8749 57.4234C51.876 57.3013 52.1515 57.3311 52.14 57.1875C52.9884 57.7067 53.1618 58.0086 53.629 58.5868C53.8156 58.7377 54.0024 58.8878 54.1892 59.036C54.2003 59.0449 54.2115 59.0537 54.2227 59.0625C54.5785 59.3417 55.3671 59.2864 56.069 59.1878C56.1093 59.1824 56.1494 59.1768 56.19 59.171C56.3334 59.1462 56.4716 59.0989 56.6134 59.0282C56.7175 59.0645 56.8329 59.0915 56.9563 59.1093C56.9564 59.1094 56.9565 59.1096 56.9566 59.1097C57.366 58.9593 57.3891 58.6441 57.5373 58.4428C57.7002 58.2205 57.8874 57.9674 58.123 57.6862C58.1612 57.6407 58.2008 57.5944 58.2418 57.5476C59.144 56.3752 60.1967 53.7949 61.1363 51.751C61.1492 51.7222 61.1621 51.6933 61.175 51.6644C61.5291 50.87 61.814 50.0715 62.0289 49.3989C62.2201 48.8212 62.5819 46.835 62.8891 46.4703C62.9685 46.3754 63.1542 46.4009 63.1955 46.2865C63.2357 46.0604 63.2774 45.8328 63.3247 45.6011C63.3272 45.5888 63.3297 45.5767 63.3322 45.5647C63.3891 45.3007 63.4175 45.0943 63.5308 44.729C63.5396 44.7034 63.5524 44.6687 63.573 44.6223C63.586 44.594 63.5964 44.5709 63.6227 44.5238C63.6707 44.4582 63.6341 44.4467 63.8772 44.2162C63.9504 44.1639 63.9804 44.105 64.2662 44.0026C64.5112 43.9021 64.9921 43.9726 65.1876 44.122C65.4144 44.2673 65.5143 44.4259 65.5748 44.5324C65.6262 44.6289 65.6348 44.6587 65.653 44.7078C65.712 44.8933 65.7037 44.9132 65.7139 44.9707C65.7241 45.0531 65.7254 45.0923 65.7277 45.1267C65.7346 45.2575 65.7359 45.3206 65.7386 45.3947C65.7434 45.5354 65.7473 45.6621 65.7526 45.7867C65.7558 45.8668 65.7594 45.9426 65.7632 46.0211C65.7741 46.2451 65.7867 46.4681 65.8009 46.6914C65.463 48.5794 65.6478 50.5955 65.953 52.4187C65.9566 52.4395 65.9603 52.4602 65.9639 52.4806C65.9935 52.6449 66.0269 52.8072 66.0637 52.9676C66.2923 53.9718 66.7382 54.9401 67.331 55.608C67.3315 55.6086 67.3321 55.6093 67.3327 55.6099C67.7953 56.1473 69.2234 56.5132 70.5267 56.8151C70.567 56.8245 70.6076 56.834 70.6487 56.8435C72.0785 57.146 73.8267 57.2362 75.5154 57.3445C75.6337 57.3517 75.7528 57.359 75.8708 57.3663C77.1278 57.4423 78.3889 57.4443 79.5476 57.305C79.7091 57.2853 79.8754 57.2565 80.0353 57.2204C80.1828 57.1873 80.3306 57.1463 80.4468 57.1047C80.4238 57.1104 80.3887 57.1192 80.323 57.1433C80.3012 57.1516 80.2088 57.185 80.087 57.2559C80.0233 57.2934 79.9445 57.3432 79.8434 57.4294C79.6911 57.5574 79.1782 58.0533 79.2632 58.9073C79.2834 59.1001 79.3457 59.2971 79.4099 59.4331C79.461 59.5438 79.5194 59.639 79.5778 59.7195C79.6955 59.8807 79.8103 59.9843 79.9059 60.0596C80.0947 60.2054 80.2367 60.262 80.3022 60.2901C80.4011 60.3304 80.4636 60.3474 80.5113 60.3602C80.6141 60.3855 80.6159 60.3835 80.6445 60.3892C80.7145 60.401 80.6793 60.3983 80.6556 60.4008C80.5991 60.4039 80.513 60.4086 80.4227 60.4146C80.2443 60.4268 80.048 60.4432 79.8552 60.4591C79.4672 60.491 79.0848 60.5206 78.7352 60.5234C78.3085 60.5288 78.0802 60.2108 77.5654 60.5475C77.5455 60.4574 77.5255 60.3674 77.5054 60.2774C77.3213 60.351 77.1698 60.4374 77.024 60.5226C76.9219 60.5823 76.8218 60.6417 76.7172 60.6963C76.584 60.7635 76.4406 60.8238 76.266 60.8724C75.8241 60.9865 74.6386 61.3416 74.2151 61.444C73.9974 61.4943 74.0243 61.3066 73.8252 61.371C73.5196 61.4708 72.9513 61.8574 72.4532 62.0485C72.3959 62.0706 72.3398 62.0899 72.2859 62.1059C72.165 62.1415 72.0175 62.1708 71.8566 62.1954C71.5929 62.2084 71.1846 62.2739 71.0025 62.3906C70.1043 62.9514 69.2721 63.9544 68.2725 64.6944C68.2478 64.7126 68.221 64.7305 68.1938 64.7471C67.9971 64.8674 67.7398 64.9556 67.5751 65.0245C67.5136 65.0452 67.469 65.064 67.4525 65.0819C67.336 65.2102 67.4609 65.4055 67.4094 65.5021C67.1473 65.9733 66.5208 66.5163 66.2986 67.1147C66.0015 67.8716 65.8063 68.8235 65.6144 69.836C65.5792 70.0215 65.5443 70.2082 65.5085 70.3984C65.2982 71.5548 65.156 72.8422 64.9914 74.0661C64.86 75.0458 64.7287 76.4565 64.562 77.7319C64.5451 77.8598 64.5279 77.9873 64.5107 78.1095C64.4338 78.6526 64.3583 79.1493 64.2758 79.5491C64.2149 79.8462 63.9597 79.7407 63.9415 79.9947C63.9218 80.2766 64.091 80.441 64.0981 80.5734C64.1035 80.6731 64.1097 80.7828 64.1149 80.9137C64.1168 80.9607 64.1186 81.0128 64.1189 81.0769C64.1189 81.1102 64.1192 81.1428 64.1152 81.2032C64.1133 81.2307 64.1111 81.2657 64.1007 81.336C64.0945 81.374 64.0898 81.4108 64.0657 81.5071C64.0536 81.5516 64.0414 81.6072 63.99 81.7369C63.9602 81.8063 63.9458 81.8491 63.863 81.9907C63.7638 82.1464 63.6092 82.3921 63.2111 82.6277C63.0173 82.7257 62.7746 82.8947 62.16 82.8759C61.8814 82.8634 61.5179 82.7478 61.2693 82.5785C61.0291 82.4199 60.8817 82.2525 60.7725 82.1016C60.435 81.5767 60.476 81.4308 60.432 81.2978C60.3856 81.0508 60.3837 80.9613 60.3729 80.8604C60.3565 80.6804 60.3475 80.5602 60.3368 80.4404C60.3163 80.2069 60.2951 80.001 60.2727 79.8023C60.2284 79.4053 60.1814 79.0466 60.1664 78.7479C60.1655 78.7288 60.1646 78.7099 60.1637 78.6912C60.1524 78.4862 60.1509 78.2986 60.1661 78.1461C60.1824 77.9847 60.3879 77.8395 60.3733 77.7441C60.3664 77.6961 60.1992 77.6087 60.1607 77.4597C59.816 76.1479 59.7178 75.1572 59.4759 73.8591C59.4321 73.6291 59.3825 73.3976 59.3275 73.1655C59.3227 73.1452 59.3179 73.125 59.313 73.1048C58.9168 71.4408 58.2211 69.8092 57.4067 68.296C57.3832 68.2519 57.3596 68.2077 57.3359 68.1635C57.0677 67.6639 56.7881 67.1688 56.5141 66.679C56.2417 66.1922 56.3877 65.6155 56.3373 65.5508C56.2277 65.4114 55.9149 65.4951 55.6452 65.2556C55.2386 64.8935 54.8652 64.4075 54.4863 63.921C54.4485 63.8726 54.4111 63.8247 54.3741 63.7772C53.95 63.2333 53.5204 62.706 53.0768 62.3717C52.6415 62.0392 51.8427 61.8346 51.416 61.604C51.0711 61.3993 50.4421 60.7893 50.2263 60.8717C50.0964 60.9146 49.8973 61.1807 49.7958 61.1726ZM62.5517 70.0332C62.0292 70.1109 62.7183 70.8693 62.8848 70.4528C62.9229 70.3572 62.6887 70.0124 62.5517 70.0332ZM76.9951 58.028C76.967 57.9087 76.9387 57.7895 76.9103 57.6703C76.7983 57.7403 76.6862 57.8115 76.5758 57.8837C76.6566 57.9435 76.7365 58.0038 76.8159 58.0646C76.8758 58.052 76.9353 58.0399 76.9951 58.028Z" fill="black"/>
<path d="M77.8656 21.2974C77.797 21.3039 77.8032 21.0891 77.7475 21.0547C77.5491 20.9365 77.5765 20.8445 77.4274 20.7372L79.2882 15.8584C79.3104 15.8869 79.334 15.9151 79.3597 15.9428C79.3694 15.9534 79.3796 15.964 79.3899 15.9745C79.5693 16.1478 79.8657 16.2505 80.0265 16.4278L79.7513 16.4291C79.7641 16.4343 79.7749 16.4397 79.7851 16.4453C80.0117 16.5892 80.6179 16.7797 80.6954 17.3559C80.6954 17.3559 80.6954 17.3559 80.6954 17.3559C80.6954 17.3559 80.6955 17.356 80.6955 17.356C80.6955 17.356 80.6955 17.356 80.6955 17.356C80.6978 17.3686 80.7 17.3814 80.702 17.3944C80.7402 17.641 80.6107 17.9386 80.634 18.2229C80.6547 18.5076 81.0128 20.3067 80.7351 20.472C80.608 20.5415 80.3872 20.5686 80.1036 20.5509C80.0715 20.5487 80.0398 20.5458 80.0092 20.5424L79.8085 20.5433C79.2051 20.4242 78.6723 20.0712 78.5021 20.0297C78.317 19.9878 78.0331 20.068 77.7964 19.9966C77.5408 19.9195 77.3455 19.8242 77.1695 19.7387C77.0992 19.7045 77.0319 19.6717 76.9652 19.6418L78.2139 16.3678C78.5044 16.381 78.8615 16.3832 79.3078 16.2789C79.5105 16.6149 79.658 16.9506 79.7778 17.2848C80.1316 17.3256 80.3889 17.8563 80.5485 17.9382C80.6874 18.0085 80.869 17.8928 81.0079 17.9761C81.1656 18.0699 81.2625 18.3982 81.5331 18.5677C81.9707 18.846 82.3653 18.5153 82.6524 18.6771C82.9466 18.8438 83.1252 19.3894 83.5401 19.5494C83.6159 19.5454 83.6922 19.542 83.7688 19.5393C83.833 19.4231 83.8967 19.3066 83.9601 19.1899C84.1525 19.2986 84.0291 19.546 84.1575 19.686C84.3119 19.8553 84.5654 19.7645 84.6697 19.8788C84.7212 19.9355 84.7288 20.0516 84.7513 20.1579C84.7662 20.2276 84.7882 20.294 84.8341 20.338C84.8724 20.375 84.9115 20.3921 84.9503 20.3971C85.0818 20.4132 85.2121 20.288 85.3082 20.335C85.36 20.3561 86.0882 20.9798 86.1209 21.0238C86.3839 21.3356 86.095 21.6047 86.2607 21.8792C86.718 22.6397 87.4895 23.2188 88.028 23.9021C88.0715 23.9572 88.1127 24.0141 88.1521 24.0732C88.2035 24.1502 88.2514 24.2304 88.2958 24.3128C88.4043 24.5143 88.4915 24.7292 88.5598 24.9458C87.4047 24.8827 87.2747 26.3699 88.4715 25.25C88.4544 25.726 88.9616 25.8237 89.0518 26.2285C89.1078 26.4889 88.9724 26.735 89.1028 27.075C89.3346 27.6714 90.1218 28.1775 89.1044 28.66C89.2352 28.877 89.2938 29.103 89.352 29.3051C89.3613 29.3377 89.3708 29.3698 89.3805 29.4013C89.4885 29.7504 89.6348 30.0092 90.2478 30.0292C90.348 30.1997 89.8799 30.7873 89.8424 31.0013C89.8154 31.2077 89.8184 32.7013 89.8333 32.9415C89.8561 33.1819 89.899 33.6014 90.008 33.7957C90.0886 33.9392 90.4767 34.0185 90.5485 34.1917C90.564 34.2346 90.566 34.2813 90.549 34.3322C90.509 34.4536 90.3612 34.6007 90.0332 34.7702C90.1376 35.3671 90.0711 35.6023 89.8972 36.0689C89.8657 36.1482 89.6999 36.1501 89.6962 36.1909C89.6929 36.2266 89.7134 36.2785 89.7385 36.287C89.7492 36.2848 89.77 36.292 89.76 36.1683C89.7376 36.0999 89.7894 36.0116 89.519 35.6234C89.4332 35.5162 89.3247 35.4035 89.1385 35.2941C88.9583 35.1856 88.7042 35.119 88.5258 35.114C88.1173 35.1067 87.9558 35.2093 87.8266 35.2691C87.5188 35.4424 87.3925 35.6318 87.3139 35.7512C87.2506 35.8547 87.2359 35.8927 87.2127 35.9448C87.1711 36.0451 87.1635 36.0797 87.1534 36.1127C87.1347 36.1809 87.1321 36.198 87.1274 36.2192C87.1203 36.2538 87.1192 36.2601 87.1182 36.2638C87.1157 36.2494 87.1617 36.1293 87.1956 36.0713C87.2635 35.9397 87.3027 35.8736 86.9588 35.8682C86.8936 35.6584 86.8307 35.4454 86.7693 35.2341C86.8765 35.1721 86.9834 35.1118 87.0903 35.0489C86.9957 34.9325 86.9022 34.8111 86.8089 34.6934C87.5275 34.8954 87.1874 34.096 86.7382 34.2941C86.8298 34.125 86.9212 33.9565 87.0125 33.7866C87.0885 33.6524 87.1645 33.5112 87.2393 33.3744C87.2709 33.3149 87.302 33.2588 87.3335 33.1998C88.151 33.346 87.5259 32.3748 87.0713 32.399C87.0773 32.3548 87.0831 32.3116 87.089 32.2679C87.3529 31.9089 87.217 31.5354 87.4219 31.0816C87.6269 30.6285 87.7014 30.6821 88.0946 30.5864C88.0874 30.4732 88.0804 30.36 88.0737 30.2464C87.1298 29.5248 88.8804 29.876 88.2535 28.7602C88.7846 28.5898 88.7847 28.0673 88.739 27.5567C88.7233 27.41 88.7001 27.2672 88.6818 27.1396C88.6728 27.0755 88.551 27.0475 88.5311 26.9601C88.5193 26.9074 88.5273 26.8384 88.5398 26.7641C88.5773 26.5393 88.6603 26.2602 88.3638 26.2025C88.5203 26.0515 88.6787 25.8994 88.8394 25.7501C88.809 25.5839 88.7813 25.4159 88.7584 25.2426C88.6386 25.2074 88.5187 25.1722 88.3988 25.137C88.8988 24.9493 88.9234 24.4077 89.1299 24.1973C89.1705 24.1567 89.3313 24.214 89.4422 24.0873C89.5709 23.9401 89.6948 23.5997 89.8652 23.4315C89.7517 23.2563 89.6446 23.0747 89.5441 22.8877C89.7262 22.4515 90.224 22.6435 90.4125 22.4879C90.439 22.4494 90.9972 21.8641 91.0294 21.8389C91.0507 21.8101 91.0669 21.7817 91.0794 21.7533C91.1634 21.5282 90.9715 21.2715 91.5734 20.872C91.5978 20.856 91.6233 20.8399 91.6502 20.8237C91.7893 20.74 91.9802 20.7795 92.1009 20.7C92.3077 20.5577 92.7781 19.8577 92.6794 19.5728C93.1536 19.7109 93.8521 19.1493 94.1608 19.1304C94.2511 19.1245 94.3689 19.3262 94.6189 19.2705C94.8156 19.2247 95.2621 18.8544 95.5703 18.8098C95.6051 18.8043 95.638 18.8017 95.669 18.8014C95.8348 18.8202 95.9437 18.9518 96.0293 18.9411C96.12 18.9292 96.1574 18.7545 96.2779 18.7198C96.2937 18.7154 96.3095 18.7114 96.3254 18.7077C96.6919 18.6231 97.1039 18.7361 97.4085 18.6461C97.8681 18.5104 98.1519 17.9356 98.5106 17.6204C98.6204 17.6218 98.7464 17.6924 98.8544 17.6653C99.1616 17.5889 99.4836 17.5197 99.8151 17.4614C99.9899 17.4304 100.166 17.4039 100.339 17.3815C101.312 17.2582 102.256 17.2403 103.175 17.2797C103.286 17.2849 103.428 17.3072 103.595 17.3395C103.682 17.356 103.766 17.374 103.886 17.398C103.946 17.4114 103.997 17.419 104.157 17.4546C104.195 17.4641 104.276 17.4796 104.399 17.5258C104.433 17.5525 104.653 17.5686 104.985 17.9408C105.073 18.059 105.134 18.1132 105.234 18.4059C105.316 18.663 105.305 18.9842 105.223 19.2161C105.064 19.6787 104.755 19.8578 104.754 19.8662C104.503 20.0427 104.393 20.0529 104.357 20.0683C104.306 20.0838 104.266 20.0928 104.23 20.1001C103.976 20.1234 103.759 20.1313 103.58 20.1622C103.221 20.2222 103.024 20.3759 103.28 20.8124C103.039 21.0506 101.336 20.7054 101.046 20.6759C100.738 20.6655 100.49 20.8423 100.247 20.833C99.9792 20.8226 99.7428 20.7904 99.5069 20.7579C99.4241 20.746 99.3399 20.7344 99.2537 20.724C98.9503 20.6875 98.6235 20.6686 98.201 20.7089C97.9803 20.7306 97.7256 20.9231 97.5948 20.9066C97.4373 20.8864 97.2879 20.6596 97.0844 20.6224C96.601 20.5388 95.663 20.473 95.1512 20.3211C95.0595 20.294 95.0624 20.1099 94.9409 20.0233C94.885 19.9834 94.8277 19.946 94.7691 19.9114C94.7537 19.9023 94.7384 19.8935 94.7231 19.8848C94.3586 19.6625 93.9714 19.6301 93.9176 20.1208C93.3988 19.6156 92.7456 19.6936 92.0888 19.3837C91.7229 19.2052 91.2352 18.9434 90.7168 18.4455C90.6316 18.3625 90.5461 18.272 90.4644 18.1763C89.4785 17.0191 89.0343 15.5751 88.7173 14.7526C88.6658 14.622 88.619 14.5143 88.5756 14.4197C88.5538 14.3723 88.5329 14.3279 88.5129 14.2853C88.3518 13.9624 88.2287 13.7675 88.3188 13.0028C88.347 12.7743 88.394 12.5487 88.4349 12.2781C88.5313 11.6408 88.9659 11.0795 88.4326 10.6088C88.5721 9.92416 88.4921 9.3724 88.9737 8.8921C88.8671 8.8272 88.7606 8.76185 88.6543 8.696C88.6552 8.65806 88.6561 8.62006 88.657 8.58202C88.6583 8.53393 88.6597 8.48744 88.6611 8.44139C88.6669 8.44036 88.6726 8.43934 88.6783 8.43832C88.7787 8.42 88.8792 8.40139 88.9796 8.38451C88.9899 8.29345 88.9896 8.19509 88.979 8.11552C88.9737 8.07802 88.9654 8.03328 88.9538 8.04898C88.9511 8.0563 88.9476 8.06265 88.9467 8.1026C88.9467 8.12387 88.9456 8.14189 88.952 8.20149C88.9645 8.2588 88.9467 8.32184 89.0708 8.6103C89.1372 8.72512 89.3863 9.34825 90.306 9.43834C90.7133 9.46576 91.0564 9.28664 91.1562 9.22058C91.2661 9.15198 91.339 9.08883 91.3949 9.03586C91.511 8.92173 91.5365 8.87894 91.5662 8.84128C91.5943 8.80332 91.6136 8.77408 91.6289 8.75017C91.6737 8.68036 91.6859 8.65816 91.6961 8.64514C91.7467 8.59589 91.7279 8.73325 91.736 8.81508C91.739 8.90864 91.7419 9.00742 91.7424 9.10507C91.7426 9.12665 91.7425 9.14869 91.7421 9.17114C91.7465 9.36099 91.7355 9.55268 91.6852 9.70305C91.4491 10.4556 90.543 12.4385 90.0873 13.1413C89.8534 13.5138 90.0249 13.6137 89.5422 13.6835C89.528 13.7837 89.5129 13.8835 89.4961 13.9843C89.511 14.0093 89.526 14.0343 89.5408 14.0594C89.5808 14.123 89.6206 14.1864 89.6603 14.2496C89.6608 14.2505 89.6614 14.2514 89.662 14.2523C89.4303 14.7279 89.0233 15.24 88.7889 15.6945C88.3651 16.5194 87.8733 17.8863 87.0234 18.6573C86.8294 18.8346 86.5032 18.9804 86.272 19.1446C86.2581 19.1537 86.2448 19.1633 86.2323 19.1736C86.1807 19.2159 86.1446 19.2614 86.1165 19.3088C86.0135 19.48 86.0275 19.6684 85.7396 19.893C85.3603 20.1853 84.4917 20.6812 83.544 20.6424C83.4788 20.6378 83.4143 20.6328 83.3504 20.6275C83.0093 20.5993 82.6907 20.5472 82.4394 20.5099C82.2045 20.474 82.0791 20.514 81.9039 20.4691C81.5999 20.388 81.295 20.2673 80.9997 20.0538C80.9847 20.0432 80.9697 20.0327 80.9546 20.0223C80.7128 19.8557 80.4739 19.6987 80.1978 19.5532C79.8314 19.0533 80.0067 18.9161 79.9943 18.6303C79.9855 18.4138 79.874 17.8543 79.8692 17.6857C79.8767 17.5694 80.1197 17.5718 80.1176 17.4366C80.8374 17.8377 80.9649 18.0887 81.3354 18.572C81.489 18.6904 81.6424 18.8079 81.7958 18.924C81.81 18.9347 81.8242 18.9454 81.8385 18.956C82.0801 19.1375 82.699 19.0883 83.2485 19.0064C83.3 18.9994 83.3517 18.9918 83.4038 18.9837C83.4962 18.9653 83.5849 18.9353 83.6764 18.8924C83.7568 18.9417 83.8488 18.984 83.9498 19.0187C83.9499 19.0189 83.9499 19.019 83.95 19.0192C84.2772 18.9363 84.2799 18.6515 84.3907 18.4903C84.5143 18.3117 84.6592 18.1093 84.8452 17.8818C84.8961 17.8198 84.9503 17.7558 85.0083 17.6902C85.659 16.819 86.5435 14.8012 87.3168 13.2047C87.3343 13.1679 87.3518 13.1309 87.3693 13.0939C87.6561 12.4865 87.8908 11.866 88.0663 11.3398C88.2256 10.8789 88.497 9.27203 88.7855 8.98875C88.8598 8.91547 89.044 8.94745 89.0797 8.85635C89.1082 8.68376 89.138 8.51007 89.1728 8.3313C89.1771 8.30905 89.1813 8.2873 89.1854 8.26606C89.2055 8.16196 89.226 8.05826 89.2499 7.94849C89.2858 7.81758 89.2604 7.79522 89.3949 7.48532C89.4096 7.45729 89.4256 7.42367 89.4737 7.35313C89.4992 7.31876 89.5176 7.28454 89.6121 7.18968C89.6573 7.14605 89.7161 7.09437 89.8058 7.03887C89.9015 6.97617 90.1856 6.84008 90.5146 6.8829C91.2153 6.99897 91.3611 7.48291 91.3981 7.53466C91.4459 7.6424 91.463 7.7185 91.4735 7.76438C91.4898 7.83794 91.4955 7.89559 91.4984 7.92059C91.5099 8.04294 91.5092 8.07266 91.5119 8.11957C91.5158 8.20022 91.5183 8.25739 91.5212 8.31427C91.5268 8.4252 91.5324 8.5267 91.5391 8.62587C91.542 8.66904 91.5451 8.7119 91.5482 8.7553C91.5626 8.95429 91.5786 9.15292 91.5965 9.35101C91.2812 10.8244 91.4528 12.4154 91.72 13.8118C91.7261 13.8423 91.7325 13.8726 91.739 13.9026C91.7694 14.043 91.8035 14.1812 91.8408 14.3172C92.0326 15.0236 92.3816 15.6934 92.8049 16.1359C92.8237 16.1541 92.8443 16.1725 92.8669 16.1911C93.2515 16.5303 94.4115 16.7911 95.4523 17.004C95.463 17.0062 95.4738 17.0083 95.4848 17.0105C96.6521 17.2267 98.0982 17.2898 99.4963 17.3687C99.5808 17.3733 99.6654 17.3779 99.7493 17.3825C100.767 17.4369 101.784 17.437 102.715 17.335C102.843 17.3207 102.974 17.2988 103.101 17.2707C103.236 17.241 103.37 17.2031 103.47 17.1655C103.447 17.1709 103.413 17.179 103.354 17.1992C103.335 17.2062 103.267 17.2285 103.164 17.2805C103.112 17.3073 103.048 17.3423 102.965 17.4001C102.912 17.4396 102.916 17.4293 102.791 17.5404C102.672 17.6518 102.512 17.8195 102.38 18.1202C102.246 18.4128 102.191 18.871 102.302 19.2472C102.328 19.3408 102.36 19.4285 102.397 19.5083C102.426 19.571 102.451 19.618 102.48 19.667C102.537 19.763 102.597 19.8433 102.655 19.9107C102.891 20.177 103.068 20.2613 103.188 20.3252C103.325 20.3909 103.345 20.3928 103.388 20.4089C103.426 20.4221 103.457 20.4314 103.484 20.4389C103.596 20.4688 103.618 20.4699 103.646 20.4756C103.736 20.4905 103.708 20.4876 103.698 20.4907C103.666 20.4944 103.599 20.4987 103.535 20.504C103.4 20.5147 103.252 20.5279 103.104 20.5399C102.81 20.564 102.515 20.5832 102.244 20.5765C101.903 20.5693 101.714 20.2456 101.305 20.5598C101.287 20.4693 101.27 20.3788 101.252 20.2883C101.105 20.3537 100.984 20.4325 100.868 20.5097C100.744 20.5916 100.625 20.6719 100.487 20.7347C100.421 20.764 100.35 20.7898 100.27 20.8111C99.9183 20.8981 98.9698 21.1623 98.6293 21.2309C98.4543 21.2643 98.468 21.0821 98.3082 21.1309C98.0631 21.2067 97.6167 21.5449 97.2216 21.7042C97.1765 21.7225 97.1314 21.7385 97.0886 21.7512C96.9227 21.8002 96.6898 21.8282 96.45 21.8498C96.2914 21.8391 96.0888 21.8594 95.9863 21.9217C95.3045 22.3266 94.657 23.1448 93.8399 23.6886C93.8199 23.7019 93.7982 23.7143 93.7754 23.7261C93.5413 23.8461 93.1869 23.8923 93.1286 23.9489C93.0743 24.0022 93.0645 24.0731 93.0645 24.1436C93.0755 24.2225 93.1019 24.3013 93.0801 24.3431C92.8781 24.7131 92.3596 24.9869 92.1706 25.4055C91.9242 25.9257 91.7549 26.6449 91.5973 27.4442C91.5519 27.6724 91.5071 27.907 91.4608 28.1457C91.3064 28.9724 91.1937 29.916 91.0628 30.8153C90.9487 31.6001 90.8396 32.7352 90.6948 33.7648C90.6737 33.9131 90.6515 34.0648 90.629 34.2076C90.5676 34.5935 90.5061 34.9404 90.4368 35.229C90.3799 35.4663 90.1238 35.376 90.1088 35.5795C90.0925 35.8064 90.2633 35.9407 90.2718 36.0472C90.2784 36.126 90.2856 36.2154 90.2927 36.317C90.2963 36.3667 90.3002 36.4193 90.3031 36.4831C90.3044 36.5171 90.306 36.5495 90.3047 36.6037C90.304 36.6303 90.3035 36.6589 90.2964 36.7225C90.2933 36.7499 90.2874 36.7969 90.2729 36.8681C90.2618 36.9183 90.2517 36.9676 90.2178 37.0706C90.1952 37.1367 90.1652 37.2189 90.1054 37.3342C90.0558 37.4111 89.906 37.7797 89.3641 38.0888C89.1772 38.1802 88.9633 38.3203 88.4112 38.3226C88.1695 38.3207 87.8272 38.2408 87.5725 38.0961C87.306 37.9475 87.1517 37.7939 87.0238 37.6409C86.8 37.3614 86.7372 37.1646 86.695 37.0565C86.6506 36.9306 86.6314 36.8463 86.6166 36.7804C86.565 36.5243 86.5651 36.442 86.5539 36.3498C86.5378 36.1848 86.5288 36.0883 86.518 35.9914C86.4974 35.8041 86.4763 35.651 86.4554 35.5033C86.4138 35.2101 86.3751 34.9571 86.3689 34.7464C86.3682 34.721 86.3677 34.696 86.3674 34.6716C86.3626 34.5264 86.3664 34.3938 86.3833 34.2823C86.4031 34.1529 86.6113 34.031 86.599 33.9546C86.5932 33.9164 86.4287 33.8519 86.394 33.7342C86.0835 32.6954 86.0148 31.9009 85.8204 30.867C85.7875 30.696 85.7499 30.5243 85.708 30.3527C85.7011 30.3244 85.6942 30.2963 85.6871 30.2683C85.366 28.9804 84.7918 27.7544 84.1394 26.6089C84.105 26.5478 84.0702 26.4865 84.0353 26.4253C83.8143 26.0377 83.5857 25.6513 83.3643 25.2653C83.1447 24.8823 83.3229 24.3657 83.2805 24.3156C83.1886 24.2079 82.8918 24.3187 82.6604 24.1442C82.3395 23.9012 82.0553 23.5623 81.7725 23.2135C81.7162 23.1442 81.6609 23.0756 81.6066 23.0082C81.2631 22.582 80.9185 22.1691 80.5482 21.9263C80.1823 21.6824 79.5042 21.6114 79.156 21.4585C78.88 21.3249 78.4042 20.8454 78.2304 20.9535C78.1206 21.0108 77.945 21.2911 77.8656 21.2974ZM88.9924 27.5238C88.476 27.6248 89.1269 28.2181 89.3053 27.8564C89.3461 27.7736 89.1276 27.4964 88.9924 27.5238ZM100.806 18.0271C100.781 17.9072 100.756 17.7873 100.732 17.6674C100.641 17.7321 100.551 17.7978 100.461 17.8642C100.528 17.9275 100.594 17.9914 100.66 18.0555C100.709 18.0458 100.757 18.0363 100.806 18.0271Z" fill="black"/>
</svg>
