<svg width="75" height="93" viewBox="0 0 75 93" fill="none" xmlns="http://www.w3.org/2000/svg">
<path d="M17.0309 77.4312C16.7316 77.8316 16.053 78.2534 15.65 78.6887C15.2053 79.1688 14.8188 79.5729 14.4839 79.9129C14.4702 79.9269 14.4565 79.9408 14.443 79.9546C13.444 80.9709 12.7347 81.6134 11.5524 82.8401C9.18217 85.3093 2.52607 93.1717 1.15288 92.0068C1.15288 92.0068 1.15288 92.0068 1.15288 92.0068C1.15287 92.0068 1.15285 92.0068 1.15283 92.0068C1.15283 92.0068 1.15283 92.0068 1.15283 92.0068C1.14231 91.9953 1.13237 91.983 1.12303 91.9699C0.935139 91.7343 1.38389 90.8671 1.22822 90.5323C1.08236 90.1912 -0.536442 88.7045 0.183942 87.7736C1.26424 86.4109 4.53805 83.6257 5.16036 82.896C5.57756 82.4069 5.96178 81.6801 6.49522 81.0321C8.09239 79.0892 9.11914 78.1241 10.237 76.2089C10.2471 76.1919 10.2571 76.1749 10.2672 76.1577C10.3236 76.059 10.3808 75.9571 10.4389 75.8517C11.2948 75.321 12.1453 74.7954 13.0087 74.2547C13.7376 73.2356 15.3059 72.0369 15.7865 71.4636C16.1878 70.9853 16.2744 70.547 16.6927 70.0592C17.1706 69.5002 18.0951 68.8242 18.9612 67.7894C20.3615 66.1165 20.1774 65.4346 20.9959 64.3942C21.8319 63.33 23.4815 61.942 24.4693 60.5046C24.5646 60.2982 24.6602 60.0914 24.756 59.8843C24.5425 59.9054 24.3291 59.9263 24.1159 59.947C24.6452 59.2418 25.1165 59.1601 25.6513 58.5592C26.2827 57.85 26.3851 57.3018 26.8058 56.8239C27.1508 56.4325 27.7897 56.0493 28.2231 55.5325C28.8576 54.7776 28.4681 54.7228 28.7717 54.2822C28.892 54.1094 31.3292 51.0415 31.4717 50.8726C32.5642 49.5987 32.9996 49.7839 33.9077 48.7988C36.4237 46.0662 38.6388 42.9447 40.768 40.2495C41.7142 39.0513 42.7762 37.8484 43.8195 36.7327C43.1384 39.3097 47.2705 35.8295 44.6068 36.1854C45.9023 35.0545 46.3025 33.8284 47.4069 32.6423C48.1102 31.8882 48.7726 31.4868 49.716 30.3438C50.2859 29.6522 50.8111 28.8855 51.3075 28.1893C51.3827 28.0838 51.4569 27.9802 51.5304 27.8791C52.423 26.6545 53.2383 25.7188 54.1273 25.859C55.9098 23.3065 57.9046 21.5098 57.6979 19.9361C58.1329 19.267 59.8914 18.0659 60.4872 17.412C61.1009 16.8015 65.0067 11.7416 65.4557 10.8514C66.0026 9.9861 66.8218 8.44084 66.9711 7.70553C67.0228 7.4843 67.0026 7.25749 66.9583 7.04484C66.9172 6.8574 66.8583 6.6752 66.8139 6.52272C66.7629 6.32972 66.7258 6.16714 66.7917 6.14957C66.8266 6.14042 66.8897 6.18344 67.0323 6.25878C67.1672 6.33143 67.4261 6.41742 67.6033 6.30853C67.7492 6.4091 67.5233 6.32953 67.281 6.35233C67.0298 6.36162 66.742 6.39529 66.4529 6.43713C65.8681 6.52409 65.2526 6.63451 64.3915 6.82841C64.2746 6.85499 64.1526 6.88348 64.0272 6.91343C63.9442 6.93332 63.8739 6.93988 63.8126 6.93876C63.6115 6.93351 63.5109 6.8408 63.3487 6.89605C62.9164 7.0434 62.238 7.44595 61.4788 7.76223C60.2328 8.28211 59.3512 8.20487 59.7433 8.74176C58.9591 9.19058 58.185 9.65027 57.4114 10.1211C57.0731 10.1371 56.7327 10.1556 56.394 10.1747C56.0131 10.5018 55.6367 10.83 55.26 11.161C55.3658 10.0626 52.5439 12.0533 53.776 12.0514C52.1229 12.6484 50.4732 13.2767 48.8316 13.9302C48.7727 13.7107 48.5883 13.656 48.3387 13.7107C48.2664 13.7265 48.1887 13.7516 48.107 13.7845C47.1091 14.1836 45.531 15.7616 45.9592 16.0108C45.7823 16.1075 45.6046 16.2047 45.4273 16.302C43.7405 16.9117 42.4245 17.9159 40.4191 18.7977C38.4094 19.6778 38.5437 19.481 37.7238 19.3657C37.2882 19.6309 36.8475 19.8971 36.4052 20.1623C34.6359 22.6024 34.0043 20.3328 30.3464 23.3072C29.6673 23.2667 28.7828 23.5533 27.8168 23.9957C27.7618 24.0209 27.7065 24.0466 27.6508 24.0729C26.2482 24.7345 24.7196 25.693 23.5439 26.4273C23.3067 26.5752 23.3736 26.725 23.065 26.9314C22.3043 27.4316 20.1646 28.2711 20.4773 28.7098C19.7051 28.932 18.9376 29.1603 18.171 29.4003C17.6523 29.7898 17.1378 30.1852 16.6334 30.5859C16.7185 30.7276 16.8035 30.8692 16.8886 31.0109C15.4946 31.1515 13.9208 32.402 13.0719 32.8553C12.9025 32.9438 12.7319 32.7799 12.215 33.0899C11.6067 33.4486 10.665 34.3238 10.0749 34.8428C10.0363 35.2444 10.034 35.6238 10.0495 36.0009C9.40407 37.0314 8.70995 37.0424 8.45836 37.655C8.44188 37.7013 8.34121 38.0926 8.37348 38.5002C8.39509 38.9123 8.56515 39.352 8.68808 39.5807C8.72367 39.649 8.75084 39.6954 8.7597 39.7084C9.02693 40.0908 9.27159 40.1569 9.61524 40.3813C10.0153 40.6239 10.4851 41.0644 11.8869 42.2641C12.3534 42.6581 12.6644 43.1241 13.1451 43.4629C13.9717 44.0868 16.9609 45.3007 17.3808 45.0414C18.2459 46.1239 21.476 47.4804 22.3587 48.0385C22.6214 48.21 22.5461 48.5375 23.3979 49.0002C24.0821 49.3752 26.0375 49.9483 26.9338 50.3741C27.8875 50.831 28.1307 51.2268 28.5624 51.4274C28.9691 51.6157 29.4347 51.5698 29.9997 51.8025C31.7608 52.5312 33.241 53.4986 34.6484 54.0587C36.683 54.8689 38.7221 54.9634 40.5389 55.3636C40.942 55.5655 41.3217 55.8618 41.7634 56.0356C42.2696 56.2352 42.8067 56.4483 43.3217 56.6548C44.157 56.9895 44.9893 57.3271 45.8308 57.6725C50.2029 59.4692 54.7444 61.4615 58.8489 63.468C60.7151 64.3569 64.4089 66.7471 65.7558 67.2106C66.2451 67.3704 66.4598 67.2581 66.1975 66.6805C66.5961 66.8063 67.7933 67.5753 69.0223 68.6158C69.9207 69.3667 70.8479 70.2666 71.5964 71.0097C71.9663 71.3762 72.3187 71.7178 72.5021 71.8778C72.5441 71.9157 72.5736 71.9397 72.556 71.9354C72.5276 71.9322 72.4983 71.8902 72.1791 71.8208C72.0405 71.7952 71.7502 71.7569 71.3906 71.8457C71.003 71.9336 70.6069 72.1987 70.3955 72.4553C70.1808 72.7108 70.1147 72.8869 70.064 73.0202C70.0244 73.1333 70.0085 73.2131 69.999 73.2701C69.9465 73.6052 69.9809 73.7187 69.9821 73.761C69.9892 73.8134 69.9946 73.834 69.9957 73.8391C70.0023 73.8368 69.8827 73.5166 69.7718 73.3017C69.653 73.0598 69.5254 72.8358 69.3922 72.6061C69.1267 72.1501 68.8603 71.7221 68.6423 71.2639C68.5999 71.1748 68.5569 71.0846 68.5136 70.9934C67.2554 68.3732 66.3894 66.3476 64.5078 63.1927C64.0048 62.3532 63.2495 61.5471 62.9841 61.0392C62.6565 60.4106 62.5544 59.6178 62.1428 58.8081C61.827 58.1886 61.4123 57.4149 60.9542 56.5727C60.4036 55.5605 59.7888 54.4697 59.2371 53.4904C58.8312 52.7695 58.4595 52.1081 58.1769 51.5827C57.9982 51.2494 58.1483 51.0118 57.9465 50.5032C57.162 48.5231 55.9428 46.4836 55.4692 47.2444C54.4953 44.6723 52.8701 42.698 51.5971 40.5025C50.5924 38.7688 49.327 36.4689 48.052 34.0259C47.5727 33.108 47.0905 32.1799 46.6118 31.2583C44.9635 28.0873 43.3718 25.0142 42.2189 23.0607C40.7251 20.5216 40.4332 20.7504 38.8194 16.721C38.4655 15.8323 38.1304 14.9237 37.7029 13.8408C36.6987 11.2961 36.2326 8.75354 34.6346 7.21297C34.2148 6.12705 33.7749 5.11915 33.3921 4.20169C33.3175 4.02127 33.252 3.86481 33.2113 3.76763C33.1799 3.67548 33.1298 3.6246 33.3072 3.80241C33.4007 3.88493 33.5831 4.06676 33.992 4.22385C34.3972 4.39201 35.0159 4.38284 35.3404 4.26106C36.0103 3.99998 35.9568 3.85674 35.9662 3.8473C35.8265 3.8529 35.3407 4.3921 34.9152 4.80397C34.9559 5.08157 34.9913 5.37885 35.0345 5.66659C34.8899 5.97897 34.7476 6.29925 34.6088 6.61999C34.4215 6.65848 34.2322 6.70247 34.0473 6.73716C33.5909 7.73156 33.2119 8.9364 32.8723 10.135C32.6701 10.8541 32.4695 11.6029 32.2775 12.2923C32.0472 13.1147 31.8198 13.8775 31.5778 14.5117C30.2325 17.9969 26.7008 27.0085 25.3094 30.2955C24.5675 32.0402 24.8426 32.2459 23.8429 33.0402C23.7448 33.4544 23.6466 33.8691 23.5485 34.2836C23.5985 34.5826 23.6486 34.8811 23.6985 35.1798C22.8874 37.4708 21.7081 40.105 20.9342 42.2896C20.2595 44.1941 19.5047 46.5988 18.7201 48.9982C18.5996 49.3661 18.4803 49.7284 18.3622 50.0837C17.6143 52.3374 16.7729 54.495 15.9548 56.2229C15.4964 57.1862 14.7413 58.3276 14.3543 59.2937C13.7892 60.7019 14.0361 61.1833 13.2946 62.957C12.4321 65.0208 10.8941 68.2286 9.7906 71.028C9.72721 71.1881 9.66535 71.3454 9.60511 71.4998C9.15079 72.6634 8.7415 73.7496 8.45508 74.5918C8.15597 75.4705 8.12801 75.9271 7.93175 76.5285C7.0985 79.0821 6.36342 81.1754 5.68643 83.6727C4.45241 86.1905 4.13267 85.8262 3.44119 86.4868C2.93772 86.9821 1.43147 88.6262 1.11096 88.4481C0.901712 88.4148 0.91628 87.9385 0.648115 87.9621C1.68864 85.406 2.30611 83.8217 3.48523 81.4611C4.73079 77.8733 5.97759 74.2561 7.2374 70.6639C7.29288 70.5055 7.34857 70.3458 7.40451 70.1847C7.73315 69.2379 8.05819 68.2897 8.37868 67.3397C8.63662 66.9533 8.89881 66.56 9.15988 66.1777C9.16013 66.1777 9.16038 66.1778 9.16063 66.1779C9.91922 64.4175 9.86878 63.5403 10.1145 62.5314C11.0383 58.8449 12.3631 53.8483 14.2086 48.607C14.3328 48.256 14.4599 47.8979 14.59 47.5328C17.491 39.3761 20.9014 30.5783 23.1418 24.5481C23.9509 22.3457 26.3384 15.1026 27.1878 13.6884C27.4017 13.3315 27.7037 13.3065 27.87 12.8992C28.0941 12.222 28.3211 11.542 28.5525 10.8575C28.7925 10.1463 29.043 9.41587 29.2874 8.71349C30.1768 6.30077 30.7974 4.07093 32.3518 1.43454C32.474 1.27774 32.6132 1.10621 32.8037 0.910948C33.0667 0.67603 33.3155 0.321271 34.201 0.0627732C34.6292 -0.0575687 35.2793 -0.0022192 35.6911 0.206013C36.1234 0.412215 36.3419 0.640151 36.5143 0.828811C37.1046 1.56027 37.1793 1.93434 37.3734 2.33586C40.2177 8.99532 43.6341 15.543 46.9137 21.968C48.1439 24.3818 49.3876 26.7797 50.6488 29.1677C51.1304 30.0795 51.6132 30.9872 52.1014 31.8989C55.5888 38.4334 59.5326 44.7298 63.2316 51.2613C63.8225 52.3061 64.4062 53.3566 64.9799 54.4141C67.5941 59.2518 70.1855 64.044 72.6067 69.0443C72.8965 69.6515 73.1839 70.2662 73.465 70.9107C73.601 71.2233 73.745 71.5643 73.8809 71.9224C73.9491 72.1031 74.0173 72.2898 74.0899 72.5264C74.1246 72.6409 74.1631 72.7748 74.1996 72.9438C74.2145 73.0126 74.2409 73.1493 74.2554 73.283C74.2653 73.3906 74.3004 73.6573 74.2336 74.0376C74.1808 74.2856 74.1358 74.5726 73.8322 75.0458C73.5565 75.5424 72.66 76.0934 72.0566 76.1C71.433 76.1423 71.1423 76.0155 70.9208 75.9447C70.6986 75.8623 70.5603 75.7887 70.4351 75.7196C69.9711 75.4505 69.763 75.2671 69.5281 75.0826C69.0837 74.7206 68.717 74.3923 68.3523 74.0757C67.6273 73.4421 66.9256 72.8487 66.2021 72.2957C65.59 71.8272 64.9623 71.3864 64.3239 70.9856C64.135 70.867 63.9451 70.7525 63.7469 70.6383C60.3927 68.7091 55.7742 66.9224 52.2818 65.3208C50.7298 64.6147 50.2454 63.9156 48.0283 63.3923C48.0537 63.2682 48.079 63.144 48.1043 63.0197C46.6429 62.5576 45.5391 62.3333 44.1578 61.8917C43.7597 61.764 43.3536 61.6248 42.889 61.4498C42.5605 61.3261 42.1354 61.1648 41.6325 60.9733C39.535 60.1746 36.2614 58.9296 35.0289 58.41C34.241 58.0797 34.6228 57.9739 33.8767 57.6858C32.6011 57.1959 29.756 56.431 27.9974 55.7131C26.4034 55.0701 23.8334 53.6858 22.6055 53.1814C18.1891 51.346 13.2129 49.5603 8.85352 46.0994C7.76642 45.2366 6.63117 43.7384 6.19894 43.0747C6.14962 43.004 6.11112 42.9499 6.07467 42.9034C5.51539 42.1768 5.13195 41.9231 4.78584 41.4234C4.72007 41.3233 4.65749 41.2139 4.59952 41.0896C3.45357 39.077 4.14495 35.4723 5.66898 33.71C7.11545 31.7956 8.78677 30.6241 10.0226 29.6982C15.1526 26.0266 20.7708 23.5431 26.1311 20.9152C26.1856 20.8888 26.2398 20.8624 26.294 20.8361C29.3678 19.3422 32.3808 17.8151 35.3063 16.2797C38.2819 14.7353 42.3154 12.4157 46.2547 10.3307C46.3268 10.2927 46.399 10.2548 46.4711 10.217C49.226 8.77067 51.8872 7.49808 53.9449 6.63272C55.0347 6.17666 54.8886 6.61091 55.7887 6.20006C56.7877 5.74795 57.2468 5.30616 57.7147 5.08551C58.8876 4.53623 60.5796 3.76423 62.5356 3.06678C62.7456 2.9925 62.9492 2.92241 63.1653 2.85109C64.5211 2.44047 65.8485 1.93861 67.8982 2.05769C68.4244 2.11098 69.0475 2.2256 69.7315 2.60711C70.4186 2.97531 71.0615 3.71358 71.3337 4.40329C71.8688 5.81575 71.6419 6.67041 71.5335 7.37151C71.4653 7.71018 71.3777 8.02476 71.2889 8.29641C71.179 8.63363 71.0631 8.92406 70.9533 9.17208C70.6468 9.85804 70.1941 10.2028 70.016 10.5763C69.9263 10.7614 69.878 11.2615 69.5844 11.8364C66.9433 16.7706 64.4557 19.7356 61.2367 23.8473C59.3838 26.1745 57.4401 28.5998 55.4265 31.0822C55.3461 31.1814 55.2652 31.2811 55.1838 31.3813C50.5482 37.0847 45.6414 43.008 40.8597 48.3603C39.3458 50.054 37.9342 50.8871 37.7297 51.1311C37.2795 51.6662 37.2496 52.2348 36.3851 53.3613C33.5075 57.1067 29.0474 61.6332 26.2152 65.1162C24.8172 66.8363 23.1377 69.4133 21.7685 71.1109C20.6795 72.463 17.8118 75.4358 17.4561 76.1305C17.2293 76.5643 17.3655 76.9827 17.0309 77.4312ZM50.9492 29.3141C51.0743 29.6096 51.5233 29.1278 51.8406 28.6282C51.9128 28.5145 51.9785 28.3996 52.0328 28.2921C52.2564 27.8571 52.3025 27.537 51.8698 27.8493C51.8287 27.8791 51.7706 27.9398 51.7029 28.0209C51.6334 28.104 51.5537 28.2096 51.4723 28.3249C51.1998 28.7113 50.9055 29.2111 50.9492 29.3141ZM48.7628 59.9205C48.7972 59.7556 48.8314 59.5906 48.8656 59.4255C48.4384 59.3255 48.0254 59.2322 47.5936 59.1322C47.7835 59.3166 47.9707 59.5001 48.1553 59.6826C48.3564 59.7611 48.5568 59.8396 48.7628 59.9205Z" fill="black"/>
</svg>
