<svg width="129" height="127" viewBox="0 0 129 127" fill="none" xmlns="http://www.w3.org/2000/svg">
<path d="M62.4653 36.9007C62.1474 36.9583 61.6762 36.7856 61.2949 36.8089C59.704 36.9131 59.0947 36.8514 57.6884 37.0256C57.5633 37.0422 57.4222 37.0642 57.2721 37.0906C57.2632 37.0922 57.2541 37.0937 57.2451 37.0953C54.8806 37.3254 50.0008 39.8526 49.3276 38.7268C49.3276 38.7268 49.3276 38.7268 49.3276 38.7268C49.3276 38.7268 49.3276 38.7267 49.3276 38.7267C49.3276 38.7267 49.3276 38.7267 49.3276 38.7267C49.3214 38.7142 49.3158 38.7012 49.3107 38.6878C49.2133 38.4335 49.5983 37.9156 49.5408 37.6029C49.4849 37.2897 48.5525 35.5372 49.264 35.0741C50.2858 34.3833 53.3123 33.7475 53.948 33.5761C54.3799 33.4278 54.879 33.101 55.4445 32.9313C55.7597 32.8367 56.0472 32.7616 56.3225 32.6954C56.333 32.6929 56.3434 32.6904 56.3538 32.688C57.6515 32.3843 58.5364 32.2657 59.8599 31.6945C60.5579 31.8709 61.2457 32.0627 61.9247 32.2692C62.7787 32.0749 64.1023 32.3581 64.6251 32.3309C65.055 32.3057 65.3055 32.0947 65.7607 32.0862C66.1325 32.0792 66.6512 32.2032 67.2656 32.2883C67.2921 32.2919 67.3187 32.2955 67.3454 32.299C67.5504 32.3259 67.7654 32.3478 67.9943 32.3598C69.5481 32.4642 69.9564 32.0093 70.9946 32.2167C71.8082 32.3849 72.8777 33.0267 73.7361 33.5335C73.7659 33.5505 73.7958 33.5674 73.8257 33.5842C74.0804 33.7269 74.3359 33.8589 74.5919 33.9682C74.7571 33.9997 74.9229 34.0331 75.0884 34.068C75.0685 33.8914 75.0466 33.7144 75.0228 33.5371C75.6024 33.8295 75.6748 34.2189 76.1486 34.559C76.7035 34.9631 77.1426 34.9658 77.5073 35.2542C77.8057 35.4914 78.0639 35.9811 78.4382 36.2873C78.5184 36.353 78.5876 36.4016 78.65 36.4385C78.685 36.4591 78.7177 36.4757 78.7483 36.4891C79.033 36.6142 79.1449 36.4532 79.3921 36.6167C79.5375 36.6899 81.6405 38.4994 81.7379 38.6235C82.5692 39.4749 82.3229 39.8399 82.9255 40.5742C82.9731 40.6329 83.0227 40.6937 83.0707 40.7525C83.0928 40.7794 83.1147 40.8062 83.1366 40.8329C84.0231 41.9055 85.0094 43.0845 85.8259 44.2523C85.8446 44.2786 85.8632 44.3049 85.8819 44.3314C86.5424 45.2588 87.1471 46.2743 87.6088 47.1876C87.8839 47.7295 88.124 48.288 88.3365 48.846C88.3452 48.8688 88.3538 48.8916 88.3625 48.9146C88.5255 49.3474 88.6725 49.7804 88.806 50.2087C87.2017 49.0744 87.6989 52.7516 88.8146 50.8851C88.9958 52.0555 89.7071 52.6695 89.9956 53.7391C90.1799 54.4313 90.1153 54.9728 90.4333 55.9445C90.6138 56.4974 90.8587 57.0517 91.0714 57.5842C91.0757 57.5951 91.08 57.606 91.0843 57.6168C91.5301 58.7334 91.8124 59.7444 91.1008 60.2794C91.7512 62.1596 91.6717 63.9368 92.5323 64.7158C92.5325 64.7159 92.5326 64.7161 92.5328 64.7162C92.6111 64.7871 92.6968 64.8471 92.792 64.9019C92.9309 65.4464 92.4317 67.0146 92.3436 67.6954C92.3229 67.8801 92.2877 68.4336 92.2012 69.1199C92.2002 69.128 92.1992 69.1361 92.1981 69.1443C92.029 70.6489 91.5724 73.1582 91.3784 73.7196C91.2204 74.3737 90.8538 75.4412 90.559 76.1501C90.5519 76.1681 90.5448 76.1858 90.5379 76.2034C90.4963 76.3107 90.46 76.41 90.4314 76.4977C90.186 77.2418 90.8637 78.2577 89.0924 78.871C88.5072 80.0438 88.1563 80.5788 87.517 81.3652C87.5024 81.383 87.4876 81.4009 87.4726 81.4189C87.3301 81.5905 87.1719 81.7736 86.9902 81.9753C86.8008 82.1848 86.6352 82.098 86.5356 82.2265C86.3305 82.491 86.0746 83.0235 85.6819 83.4854C85.0329 84.2457 84.3524 84.3516 84.8451 84.6938C84.4468 85.224 84.0298 85.7358 83.6041 86.2323C83.5432 86.248 83.4831 86.2629 83.4224 86.2781C83.3951 86.285 83.3678 86.2918 83.3405 86.2986C83.1838 86.3369 83.0271 86.3743 82.8706 86.4106C82.6887 86.7221 82.503 87.0315 82.314 87.339C82.1001 86.4412 80.5416 88.2772 81.4414 88.1936C80.357 88.7988 79.2671 89.3669 78.1408 89.9011C78.0597 89.7128 77.9108 89.666 77.7284 89.7114C77.706 89.717 77.6832 89.7238 77.6601 89.7319C77.0085 89.9793 75.7984 91.3036 76.1286 91.5629C75.9901 91.6322 75.8505 91.6996 75.7103 91.765C75.0726 91.9321 74.5108 92.1385 73.9498 92.3474C73.9309 92.3544 73.9119 92.3615 73.8928 92.3686C73.2999 92.5888 72.6828 92.8186 71.9445 92.9763C70.4847 93.2809 70.5853 93.1402 70.0283 92.856C69.7136 92.9773 69.3971 93.0961 69.0744 93.2115C69.0641 93.2151 69.0538 93.2188 69.0436 93.2225C69.0407 93.2258 69.0378 93.2291 69.0349 93.2324C67.7479 94.606 67.3526 93.3555 65.4433 93.6597C65.433 93.6612 65.4226 93.6627 65.4121 93.6642C65.0893 93.7114 64.7102 93.7988 64.2474 93.9289C63.4919 93.3971 62.0093 93.359 60.5867 93.1956C60.5833 93.1952 60.5798 93.1948 60.5763 93.1944C60.0235 93.1359 59.4889 93.0733 59.024 93.006C58.8314 92.9777 58.7867 93.1175 58.5264 93.0859C57.884 93.015 56.442 92.2996 56.3291 92.7557C55.8518 92.4318 55.385 92.0993 54.9224 91.7505C54.8386 91.7316 54.7526 91.7114 54.669 91.6916C54.6656 91.6908 54.6622 91.6899 54.6588 91.6891C54.2887 91.6002 53.9083 91.4992 53.5113 91.3653C53.4433 91.4966 53.3754 91.628 53.3076 91.7594C52.6118 90.8952 51.3631 89.9967 50.9117 89.429C50.9092 89.4261 50.9067 89.4231 50.9043 89.4201C50.877 89.387 50.8514 89.3544 50.8278 89.3223C50.7446 89.2069 50.863 89.0381 50.596 88.6939C50.2832 88.2907 49.5881 87.6589 49.228 87.1757C48.9031 87.1603 48.5774 87.1419 48.2507 87.1206C47.4306 86.3982 47.6357 85.7119 47.2629 85.2009C47.2412 85.1711 47.0835 84.9888 46.8795 84.7493C46.8783 84.7479 46.8771 84.7465 46.8759 84.7451C46.4452 84.2446 45.8261 83.4783 45.7743 83.421C45.1506 82.7317 44.8282 83.2775 43.4411 80.9286C43.2011 80.5075 43.1546 80.0834 42.943 79.7069C42.8588 79.5569 42.7172 79.3488 42.5463 79.116C42.5441 79.113 42.5418 79.1099 42.5396 79.1069C41.9517 78.3151 41.0412 77.2228 40.7198 77.227C40.7093 76.198 39.494 74.0551 39.3411 73.3169C39.2935 73.0962 39.5487 72.9359 39.3532 72.2844C39.3047 72.1212 39.2019 71.8943 39.0775 71.6321C39.0716 71.6197 39.0657 71.6072 39.0597 71.5947C38.7831 71.019 38.416 70.2875 38.2936 69.8158C38.1026 69.077 38.2779 68.7412 38.2056 68.4037C38.1397 68.0849 37.8659 67.8375 37.7756 67.3789C37.6957 66.9628 37.6605 66.5381 37.6628 66.1128C37.663 66.0869 37.6633 66.0611 37.6637 66.0355C37.6917 65.1672 37.8085 64.3464 37.8153 63.5931C37.8262 62.3068 37.5529 61.0409 37.599 59.7493C37.6003 59.711 37.6019 59.6727 37.6037 59.6345C37.608 59.4187 37.6187 59.2049 37.6395 58.9941C37.7745 58.6889 37.9998 58.4193 38.1147 58.093C38.7239 56.3618 39.5899 54.5943 40.677 52.9686C40.7003 52.9338 40.7237 52.8988 40.7472 52.8639C41.5961 51.5995 42.6163 50.3936 43.7354 49.3677C43.7684 49.3372 43.8017 49.3068 43.835 49.2765C44.5593 48.6215 45.2998 48.0015 46.0993 47.4287C46.4394 47.187 46.9063 46.8982 47.4979 46.6141C47.5424 46.5929 47.588 46.5715 47.6335 46.5507C49.7507 45.5239 52.6697 45.3011 51.3777 44.4627C51.8027 44.1778 54.1459 43.9501 55.9346 44.1306C55.9662 44.1331 55.9977 44.1356 56.0291 44.1382C57.0135 44.222 57.8312 44.3416 58.1599 44.3632C59.0782 44.4258 59.8259 44.2445 60.5546 44.3205C61.2501 44.3945 61.8779 44.4938 62.5242 44.6214C62.546 44.6257 62.5676 44.6301 62.5892 44.6344C63.9173 44.9106 65.2595 45.2367 67.112 45.8241C67.8198 46.0481 68.6676 46.1348 69.0581 46.343C69.5292 46.5932 69.8841 47.1155 70.442 47.4791C70.534 47.5389 70.629 47.6005 70.7308 47.6668C70.7421 47.6742 70.7535 47.6816 70.7649 47.689C71.9381 48.4513 73.6358 49.6 74.8058 50.7666C74.8156 50.7764 74.8253 50.7861 74.8349 50.7958C74.9953 50.9576 75.1418 51.1128 75.2701 51.2562C75.4614 51.4726 75.3515 51.7138 75.5643 52.0715C76.4112 53.4632 77.2923 54.9635 77.8103 54.2956C78.0831 55.0922 78.3961 55.795 78.7252 56.465C78.7329 56.4808 78.7407 56.4965 78.7484 56.5123C79.2313 57.4901 79.7933 58.4573 80.1533 59.5353C80.3559 60.1431 80.554 60.8505 80.7085 61.6393C80.7135 61.6652 80.7186 61.6912 80.7235 61.7174C81.0397 63.453 81.2325 65.4169 80.946 67.6335C80.9404 67.6736 80.9345 67.7136 80.9284 67.7536C80.5959 69.8135 80.1674 71.8996 79.2959 73.6949C79.2712 73.7453 79.2464 73.795 79.2216 73.8438C79.1502 73.9905 79.0789 74.139 79.0091 74.2847C78.0166 76.1771 78.3833 76.5033 75.796 78.7392C75.2029 79.2104 74.5712 79.6332 73.7918 80.0958C73.6841 80.1596 73.5788 80.2185 73.4704 80.2767C73.4353 80.2955 73.4001 80.314 73.3648 80.3324C71.8231 81.1032 70.3038 81.5393 69.2636 82.7533C68.3766 83.0892 67.5022 83.4373 66.3567 83.5411C66.3126 83.5446 66.2685 83.5476 66.2244 83.55C65.1922 83.5842 64.2172 83.5527 63.2794 83.2241C63.0938 83.3708 62.9042 83.5159 62.7098 83.6586C62.4383 83.6617 62.1641 83.66 61.8864 83.6523C61.8057 83.5123 61.7268 83.3717 61.6495 83.2305C61.0269 83.1839 60.3354 83.1648 59.5884 83.0842C59.5683 83.082 59.5482 83.0798 59.528 83.0776C57.9987 82.9064 56.5254 82.5919 55.5087 82.1231C54.722 81.7619 53.5889 81.1549 52.4102 80.3649C52.402 80.3594 52.3938 80.3539 52.3856 80.3484C51.3653 79.6409 50.2581 78.9044 49.222 77.487C49.2143 77.4759 49.2066 77.4648 49.199 77.4537C47.9464 75.569 47.4131 73.7215 47.1598 72.632C47.0958 72.3479 47.0378 72.1218 46.9867 71.9344C46.9823 71.9182 46.9779 71.9022 46.9736 71.8864C46.7902 71.1968 46.675 70.999 47.0463 70.3008C46.9552 69.9929 46.8741 69.679 46.8039 69.362C46.6511 69.1718 46.5017 68.9752 46.3562 68.7736C46.3272 68.1511 46.3635 67.4927 46.4499 66.846C46.4533 66.8206 46.4567 66.7952 46.4602 66.7697C46.6337 65.5005 46.9833 64.2086 47.3475 63.1002C47.5651 62.4306 47.8423 61.6879 48.2203 60.9266C48.2361 60.8948 48.252 60.863 48.2681 60.8312C48.8613 59.7422 49.3851 58.3953 51.0609 57.1571C51.1038 57.1278 51.1474 57.099 51.1915 57.0708C52.8368 56.059 54.3188 55.6745 55.6687 55.4996C56.4818 55.4021 57.5213 55.5727 58.329 55.5723C58.9926 55.5719 59.3945 55.4585 59.9228 55.4019C59.9429 55.3999 59.9632 55.3979 59.9837 55.3962C60.3564 55.3601 60.8008 55.3488 61.474 55.5512C62.251 55.7931 63.3077 56.266 64.2211 57.2468C64.2329 57.2596 64.2448 57.2725 64.2565 57.2855C64.9863 58.1325 66.2998 59.6906 66.2466 61.651C66.2464 61.6609 66.2462 61.6708 66.246 61.6807C66.1873 62.7364 66.0502 63.7197 65.9261 64.4794C65.8105 65.1693 65.8631 65.5272 65.7198 66.023C65.3328 67.325 64.6357 68.5636 63.4974 69.4847C63.4926 69.4885 63.4879 69.4923 63.4831 69.4962C63.0125 69.8858 62.5426 70.2823 62.026 70.7165C60.1529 71.504 60.0231 70.9746 59.2986 70.8256C59.0205 70.7616 58.4809 70.6625 58.0449 70.4678C57.6069 70.278 57.262 70.0197 57.1654 69.8774C57.0434 69.6761 57.4359 69.3775 57.2643 69.1591C58.6398 68.8209 59.4586 68.3732 61.0528 67.6972C61.2912 67.5264 61.5198 67.358 61.7575 67.1795C61.7598 67.1778 61.762 67.1761 61.7642 67.1744C63.0141 66.2472 63.1111 63.9166 62.9267 61.811C62.9264 61.8084 62.9261 61.8058 62.9257 61.8032C62.8878 61.5359 62.7665 61.2718 62.4898 60.9207C62.4928 60.6675 62.4516 60.3815 62.382 60.0804C62.3823 60.0802 62.3825 60.0799 62.3828 60.0797C62.254 59.8949 62.1119 59.7387 61.9678 59.6033C61.9623 59.5982 61.9567 59.5931 61.9511 59.5882C61.5291 59.2334 61.0859 59.3426 60.7007 59.2725C60.3237 59.2076 59.8896 59.1641 59.4009 59.1444C59.3893 59.1441 59.3777 59.1438 59.366 59.1436C57.7715 59.092 55.1802 59.6624 53.413 60.6773C53.405 60.6823 53.3966 60.6877 53.388 60.6934C53.0277 60.9002 52.372 61.8042 51.8278 62.7813C51.8158 62.8022 51.8038 62.8232 51.792 62.8442C51.0791 64.1017 50.6367 65.6104 50.4319 67.1516C50.4293 67.1712 50.4267 67.1907 50.4242 67.2102C50.2464 68.5431 50.2818 69.7816 50.5463 70.9781C50.5492 70.9912 50.552 71.0044 50.5549 71.0175C50.8178 72.2141 51.2121 73.2932 51.6627 74.1721C51.7982 74.4362 52.0236 74.8219 52.3167 75.216C52.3196 75.2198 52.3226 75.2238 52.3257 75.2277C52.6911 75.7236 53.6313 76.4483 54.5124 76.9956C54.5197 77.0002 54.5269 77.0047 54.5341 77.0093C55.5118 77.6285 56.3896 78.1055 56.7046 78.3725C56.9073 78.5448 56.869 78.7956 57.1178 78.9205C58.1482 79.3152 59.2177 79.6324 60.2316 79.7871C60.2455 79.7892 60.2594 79.7912 60.2733 79.7931C61.4855 79.962 62.8349 79.8951 64.1928 79.7495C64.7446 79.7618 65.3074 79.7508 65.8774 79.7248C65.8912 79.7247 65.9055 79.7244 65.9203 79.7239C67.3543 79.6055 69.4343 78.2502 71.1829 77.0548C71.2078 77.0375 71.2327 77.0202 71.2574 77.0028C73.1362 75.6872 74.4773 73.8942 75.5745 71.7719C75.5878 71.7467 75.6011 71.7212 75.6143 71.6951C75.6314 71.6615 75.6487 71.6266 75.6652 71.5919C76.2198 70.4208 76.4486 68.7704 76.6349 67.152C76.6375 67.1279 76.6399 67.1036 76.6423 67.079C76.7654 65.709 76.5694 64.0899 76.2578 62.5804C76.2538 62.5613 76.2497 62.5421 76.2456 62.523C75.9492 61.1345 75.4161 59.7595 74.748 58.3791C74.7416 58.3657 74.7351 58.3525 74.7287 58.3393C73.9157 56.6503 72.9597 55.2682 71.6498 54.0307C71.6436 54.0248 71.6374 54.0189 71.6312 54.013C70.7248 53.1659 69.4969 52.3146 68.3056 51.5711C68.296 51.5652 68.2865 51.5593 68.2769 51.5534C66.2407 50.282 64.1649 49.4877 61.8019 49.1011C61.7848 49.0982 61.7677 49.0953 61.7503 49.0924C59.9257 48.7986 57.9018 48.6453 56.0199 48.6302C55.9939 48.6301 55.968 48.6301 55.9422 48.6301C54.8556 48.6301 53.7919 48.7142 52.7856 48.9125C51.7259 49.1185 50.6462 49.5281 49.6176 50.1395C49.5957 50.1526 49.5729 50.1665 49.5498 50.1807C48.6968 50.7136 47.6795 51.6152 46.8167 52.3943C46.7904 52.4181 46.7642 52.4418 46.7383 52.4653C46.5872 52.6026 46.4404 52.7385 46.298 52.872C45.5877 53.5576 44.951 53.6118 44.454 54.9141C44.3474 54.8597 44.2406 54.8056 44.1337 54.7517C44.094 54.8302 44.0565 54.9074 44.021 54.9837C44.0057 55.0164 43.9909 55.0488 43.9764 55.0809C43.5615 56.0167 43.3945 56.7588 42.9229 57.8478C42.6547 58.4596 42.1822 59.6948 41.8635 60.8415C41.857 60.8646 41.8505 60.8876 41.8441 60.9105C41.6683 61.5392 41.5873 62.1488 41.5394 62.502C41.4809 62.9758 41.27 62.784 41.2541 63.2475C41.2379 63.7824 41.4048 64.7513 41.5802 65.7088C41.5834 65.7242 41.5867 65.7397 41.59 65.7553C41.6637 66.1057 41.7584 66.4715 41.828 66.7973C42.0038 67.7015 42.3278 69.4338 42.6615 70.2313C42.6662 70.2428 42.6709 70.2541 42.6756 70.2652C42.6782 70.2714 42.6809 70.2776 42.6835 70.2836C43.6344 72.4764 45.0162 74.7678 46.301 77.0006C46.3027 77.0035 46.3044 77.0065 46.3061 77.0095C46.6138 77.541 46.9182 78.0684 47.2176 78.5922C47.6407 79.3446 48.0384 80.4182 48.207 80.6353C48.5304 81.0579 48.845 81.0194 49.0867 81.2804C49.3488 81.5622 49.6263 81.8901 49.9179 82.2456C49.919 82.2469 49.9201 82.2482 49.9212 82.2495C50.9936 83.5639 52.2806 85.25 53.2792 86.2495C53.3951 86.3662 53.511 86.4811 53.6277 86.5952C53.6302 86.5976 53.6326 86.6 53.6351 86.6024C54.5353 87.4866 55.0256 87.8573 56.1473 88.3489C56.15 88.35 56.1527 88.3512 56.1553 88.3524C57.7688 89.0556 59.5894 89.6769 61.2683 90.0434C61.2711 90.044 61.2739 90.0446 61.2767 90.0452C62.5916 90.3258 63.8597 90.4095 65.2145 90.322C65.2235 90.3214 65.2325 90.3209 65.2415 90.3203C66.2618 90.264 67.0643 90.1086 68.089 89.8289C68.1015 89.8255 68.1141 89.8221 68.1267 89.8187C68.2867 89.7752 68.4481 89.73 68.61 89.6838C69.7023 89.3709 71.0531 88.9325 72.4175 88.4288C72.4348 88.4224 72.4519 88.4161 72.4689 88.4097C73.6836 87.9695 74.6411 87.482 75.745 86.7732C75.7621 86.7623 75.7794 86.7513 75.7967 86.7403C77.4162 85.703 78.945 84.5862 80.0693 83.7707C80.5318 83.4331 80.6571 83.5711 80.9132 83.4604C80.9333 83.4516 80.9541 83.4413 80.9759 83.4291C81.033 83.3971 81.0966 83.3522 81.1706 83.2874C81.6816 82.8383 81.8032 82.44 82.0127 82.2142C82.6542 81.5258 83.536 80.4591 84.3319 79.2256C84.3427 79.2092 84.3534 79.1927 84.3641 79.1762C85.3858 77.6055 86.3398 75.7861 86.9416 74.8117C86.9974 74.7217 87.0621 74.6446 87.1281 74.5773C87.1383 74.5678 87.1486 74.5585 87.159 74.5493C87.3151 74.4115 87.4799 74.3066 87.531 74.1757C87.5691 74.0784 87.5016 73.8064 87.5794 73.4942C87.9427 72.0093 88.0027 70.5065 88.1083 68.9153C88.1087 68.9088 88.1091 68.9024 88.1095 68.896C88.1827 67.7969 88.0849 66.7036 87.9182 65.337C87.9182 65.3369 87.9181 65.3368 87.9181 65.3366C87.9031 65.212 87.8869 65.084 87.8701 64.9568C87.6131 63.0167 87.1374 60.9902 86.5187 58.9448C86.5156 58.9346 86.5125 58.9243 86.5094 58.9141C85.6941 56.2489 84.6519 53.4873 83.5824 50.8369C83.5738 50.8157 83.5652 50.7946 83.5566 50.7735C82.9713 49.3414 82.4063 48.0361 81.7094 46.8464C81.6958 46.8229 81.6822 46.7993 81.6685 46.7757C81.5155 46.5121 81.3633 46.2579 81.208 46.0096C80.5 44.88 80.2261 43.8355 80.0938 43.6798C80.0539 43.6349 80.0103 43.5952 79.9648 43.5605C79.9399 43.5414 79.914 43.5233 79.887 43.5058C79.6036 43.3236 79.2263 43.2227 78.6981 42.7456C77.7682 41.907 76.7525 40.8907 75.7032 39.9296C75.6802 39.9085 75.6571 39.8875 75.6341 39.8665C74.3987 38.735 73.0797 37.7089 71.8208 37.0278C71.7951 37.0137 71.7694 36.9998 71.7438 36.9861C71.5648 36.8901 71.3953 36.8053 71.2336 36.7325C70.1276 36.1948 68.5809 36.2914 67.2734 36.2965C67.2192 36.2962 67.1614 36.2952 67.0987 36.2936C67.0768 36.293 67.0543 36.2924 67.0314 36.2917C65.9218 36.2388 63.6507 36.1651 63.2123 36.3623C62.9237 36.4841 62.8101 36.8365 62.4653 36.9007ZM90.4939 57.0696C90.2302 57.0536 90.2879 57.4181 90.4381 57.7688C90.4426 57.7795 90.4473 57.7901 90.452 57.8007C90.6512 58.2469 90.9917 58.6552 91.03 58.1562C91.0363 58.0738 90.9754 57.877 90.889 57.6736C90.8845 57.6629 90.8799 57.6522 90.8752 57.6414C90.752 57.3586 90.5837 57.0742 90.4939 57.0696ZM41.4467 53.4312C41.3884 53.4039 41.33 53.3766 41.2717 53.3494C41.1858 53.3093 41.0999 53.2694 41.0138 53.2295C40.9046 53.5227 40.8019 53.8167 40.7053 54.1118C40.873 54.0129 41.0415 53.9164 41.2109 53.822C41.2836 53.6988 41.3583 53.5749 41.4333 53.4529C41.4378 53.4456 41.4422 53.4384 41.4467 53.4312Z" fill="black"/>
<path d="M63.5345 1.52082C63.4936 1.49887 63.7102 1.45742 63.7205 1.42712C63.7213 1.42484 63.7222 1.42258 63.7231 1.42034C63.7233 1.41983 63.7235 1.41932 63.7237 1.41881C63.7724 1.29962 63.9161 1.2477 63.993 1.13701C64.1143 0.978082 63.771 0.514588 65.2683 0.298075C65.2683 0.298075 65.2683 0.298075 65.2683 0.298075C65.2684 0.298072 65.2684 0.298069 65.2684 0.298066C65.2684 0.298066 65.2684 0.298066 65.2684 0.298066C65.2832 0.296242 65.2981 0.294456 65.3132 0.29271C65.5996 0.259569 65.9185 0.273513 66.2431 0.2414C66.5679 0.209652 68.6573 -0.0556831 68.7846 0.0105731C68.9544 0.107954 68.4502 0.472415 68.4789 0.534696C68.4995 0.578953 68.6951 0.620024 68.7337 0.677652C68.8576 0.864332 68.7231 0.969061 69.2506 1.11887C69.1411 1.15221 69.0314 1.1842 68.9217 1.21633C68.9189 1.21717 68.916 1.21801 68.9131 1.21885C68.7545 1.26434 68.5957 1.30951 68.4367 1.35376C68.5666 1.43784 68.2077 1.57728 68.2282 1.62725C68.2451 1.66967 68.4621 1.69116 68.4724 1.73643C68.4853 1.785 68.2517 1.8625 68.2866 1.94873C68.3426 2.0913 68.9074 2.12308 68.9782 2.20945C69.0514 2.3006 68.7419 2.43331 68.9384 2.54756C69.0002 2.5629 69.0621 2.57842 69.1239 2.59413C69.2647 2.58667 69.4055 2.5792 69.5464 2.57172C69.6105 2.63157 69.3219 2.64702 69.3155 2.6999C69.3077 2.76098 69.58 2.7968 69.5776 2.83881C69.5754 2.8733 69.3553 2.91079 69.3678 2.95522C69.3849 3.02022 69.7014 3.01279 69.7595 3.04837C69.7822 3.06231 69.9487 3.31774 69.9507 3.33098C69.9596 3.43657 69.5268 3.43549 69.4861 3.51679C69.3749 3.74736 69.7149 3.99741 69.8376 4.21812C69.8926 4.31455 69.8631 4.41621 69.79 4.50786C68.6922 4.31736 67.8192 4.6199 69.5517 4.55774C69.3014 4.65543 69.7642 4.74609 69.6806 4.84535C69.6263 4.90728 69.385 4.94264 69.3869 5.03721C69.3896 5.12593 69.5878 5.22623 69.5728 5.30238C69.5722 5.30535 69.5713 5.30828 69.57 5.31117C69.5441 5.36738 69.3695 5.40612 68.8327 5.40582C69.0396 5.60847 68.5876 5.75392 69.6652 5.86585C69.7286 5.91682 69.0785 6.01861 68.9885 6.07174C68.9035 6.1199 68.5938 6.51139 68.5745 6.57687C68.5551 6.64347 68.532 6.75623 68.6236 6.81568C68.7372 6.88958 69.8484 6.98374 68.5396 7.05557C68.6377 7.20332 68.5976 7.25537 68.4399 7.38227C68.4114 7.40545 68.2184 7.40063 68.2175 7.41481C68.2161 7.44404 68.3561 7.49951 68.3708 7.55284C68.3948 7.64013 67.9873 7.67227 68.6065 7.68737C68.7073 7.74788 68.808 7.80868 68.9085 7.86977C68.7881 7.88501 68.6677 7.90031 68.5474 7.91557C68.6758 7.95077 68.804 7.98606 68.9322 8.02142C68.0407 7.95013 68.5566 8.18427 69.0724 8.13558C68.8814 8.2388 68.6908 8.34032 68.5006 8.44284C67.4894 8.38651 68.3713 8.67958 68.9213 8.68021C68.9198 8.69271 68.9182 8.70522 68.9167 8.71774C68.6419 8.81652 68.8554 8.9277 68.6677 9.05371C68.4803 9.18035 68.3831 9.16383 67.9182 9.18539C67.943 9.21818 67.9678 9.25092 67.9926 9.2834C69.2497 9.50168 67.0602 9.38084 68.015 9.70496C67.2166 9.76156 67.6226 10.0026 67.8536 10.1611C67.8804 10.1795 68.0338 10.1865 68.0797 10.2116C68.19 10.2729 67.9849 10.4072 68.4787 10.4241C68.3328 10.4674 68.1871 10.5107 68.0416 10.5539C68.1288 10.5985 68.2159 10.6432 68.3029 10.6876C68.4565 10.6943 68.6102 10.701 68.7639 10.7077C68.2349 10.7658 68.4281 10.9031 68.2991 10.9608C68.273 10.9723 68.0615 10.9654 68.0015 11.0019C67.9304 11.0445 67.9877 11.1326 67.9185 11.1841C68.1507 11.216 68.3828 11.248 68.6148 11.2801C68.7345 11.3836 68.1169 11.3892 68.0656 11.4442C68.0567 11.4542 68.0888 11.6443 68.1012 11.6551C68.1997 11.7429 68.7234 11.7445 68.5944 11.9795C68.5712 12.0213 68.3886 12.0471 68.3787 12.0854C68.3612 12.1532 68.7538 12.3793 69.128 12.4142C68.6511 12.4736 68.8263 12.7059 68.6857 12.7641C68.6425 12.7817 68.3439 12.7707 68.276 12.8283C68.2208 12.8749 68.4498 13.014 68.4051 13.0741C68.3567 13.1377 68.1055 13.1485 68.0858 13.1772C68.0673 13.2045 68.2666 13.241 68.2625 13.2792C68.2463 13.3981 67.9155 13.4881 67.9028 13.5824C67.8838 13.718 68.4661 13.8709 68.7179 14.0008C68.6772 14.027 68.5483 14.0477 68.5447 14.0773C68.495 14.4447 68.3504 14.8543 68.193 15.2163C68.1195 15.3849 67.2994 15.7582 68.6145 15.734C68.6391 15.7423 68.654 15.7546 68.6611 15.7699C68.6648 15.7781 68.6663 15.7872 68.6659 15.797C68.6589 15.9367 68.2637 16.2119 68.2499 16.2803C68.2332 16.362 68.4567 16.4422 68.4523 16.5058C68.4386 16.6947 68.2574 16.825 68.4246 17.0682C68.4685 17.1298 68.7271 17.2157 68.7185 17.2509C68.7076 17.2939 68.4425 17.323 68.4184 17.3773C68.3632 17.5039 68.4104 17.7633 68.3473 17.8841C68.3353 17.9064 68.1122 17.8994 68.0383 17.9289C67.7499 18.0432 67.7557 18.1886 68.459 18.2093C68.0363 18.3462 68.3743 18.529 68.3698 18.6809C68.359 19.0105 68.109 19.5925 68.3349 19.8966C68.4771 20.0843 68.7635 20.1032 68.4683 20.3494C68.4031 20.4054 68.3193 20.4591 68.2427 20.525C68.0605 20.6841 67.5248 20.7997 68.1246 20.9722C67.9355 21.146 68.0238 21.3025 67.4851 21.4072C67.6075 21.4325 67.7296 21.4578 67.8515 21.483C67.8513 21.506 67.851 21.5289 67.8508 21.5517C67.7316 21.55 67.6124 21.5491 67.4933 21.5478C67.4409 21.7127 67.8933 21.9554 67.8684 22.1002C67.8284 22.336 67.5631 22.9448 67.3778 23.1722C67.2797 23.2892 67.5187 23.3296 67.0139 23.339C67.0441 23.3729 67.0743 23.4067 67.1043 23.4403C67.2096 23.4733 67.315 23.5056 67.4198 23.5411C67.4022 23.6778 67.2743 23.826 67.199 23.976C67.1911 23.9917 67.1838 24.0072 67.1773 24.0226C67.1674 24.0437 67.1599 24.0646 67.1557 24.0854C67.1024 24.3565 67.2951 24.8451 67.027 25.0803C66.9599 25.1389 66.7192 25.1667 66.7021 25.2355C66.6764 25.3365 67.027 25.4653 66.9921 25.6022C66.9332 25.8373 66.3725 26.1251 66.2981 26.3655C66.2766 26.4372 66.3859 26.5305 66.3749 26.5876C66.3206 26.8366 66.2335 26.9998 66.1591 27.443C65.5783 27.5719 65.2578 27.1908 64.903 26.8833C64.771 26.7635 64.5456 26.5507 64.4489 26.279C64.3411 26.0094 64.4087 25.7115 64.44 25.5607C64.4993 25.3416 64.2685 25.0761 64.3318 24.8339C63.6741 24.8288 63.5522 25.0501 63.5158 25.1537C63.4891 25.2751 63.5783 25.3907 63.7181 25.4813C63.7399 25.4341 63.8422 25.1904 63.9079 24.9587C64.0377 24.9811 64.1682 25.0009 64.2986 25.0206C64.2989 25.0207 64.2991 25.0208 64.2994 25.0209C64.4751 24.9698 64.1713 24.8224 64.1156 24.7474C63.8015 24.3252 63.9452 23.861 64.1527 23.3876C64.1567 23.3807 64.1607 23.3735 64.1649 23.3659C64.2866 23.1375 64.4256 22.8109 64.4759 22.5676C64.5054 22.4339 64.3478 21.9662 64.5662 21.8853C64.6234 21.8649 64.8291 21.8743 64.8393 21.848C64.7278 21.5989 64.6109 21.3479 64.4885 21.0966C64.8259 20.6246 64.5582 20.0843 64.4982 19.5759C64.3486 18.2025 64.1122 16.8317 64.2239 15.4887C64.2245 15.4826 64.225 15.4765 64.2255 15.4704C64.2257 15.468 64.2259 15.4656 64.2261 15.4632C64.2449 15.2109 64.0646 14.8767 64.1981 14.6368C64.2541 14.534 64.6793 14.5183 64.3682 14.3606C64.4825 14.3661 64.5968 14.3715 64.7112 14.3769C64.5779 14.2467 64.3196 14.1564 64.2971 14.0192C64.2787 13.9037 64.2702 13.6018 64.3171 13.5041C64.3407 13.4533 64.5563 13.4846 64.5567 13.4359C64.556 13.352 64.2615 13.1578 64.2643 13.0428C64.2669 12.938 64.5225 12.7762 64.4885 12.6937C64.3678 12.3978 63.9995 12.0646 64.1065 11.7614C64.1367 11.6778 64.4258 11.5818 64.4185 11.5547C64.4031 11.5018 64.1247 11.4731 64.0896 11.4364C63.9117 11.2502 64.2494 10.9885 64.2668 10.8146C64.3227 10.2481 64.2117 9.63978 64.276 9.07552C64.3168 8.71847 64.2788 8.12164 64.5038 7.79852C64.5523 7.72962 64.868 7.76065 64.8696 7.70046C64.8714 7.63361 64.6585 7.58919 64.642 7.55749C64.5267 7.33756 64.3209 6.85496 64.546 6.65917C64.5892 6.62207 64.8395 6.6038 64.8392 6.58073C64.8395 6.56901 64.6699 6.53638 64.6535 6.49894C64.5081 6.16682 64.6138 5.93278 64.6818 5.61678C64.7155 5.45745 64.7203 5.29032 64.7123 5.12248C64.7122 5.11954 64.712 5.1166 64.7119 5.11367C64.6885 4.63294 64.5649 4.12869 64.7059 3.66572C64.7476 3.52775 65.2497 3.45139 65.2452 3.43038C65.2364 3.38643 64.9012 3.35139 64.8206 3.26129C64.5556 2.96859 64.9236 2.59501 64.7589 2.32925C64.6779 2.1978 64.2525 2.0182 64.1579 1.90249C64.0828 1.80696 64.2476 1.59762 64.0588 1.56556C63.9449 1.54513 63.5809 1.54534 63.5345 1.52082ZM69.103 5.12432C68.5255 5.0823 68.9968 5.30419 69.3107 5.23979C69.3814 5.22501 69.253 5.13485 69.103 5.12432ZM67.5716 14.5145C67.7235 14.5217 67.8755 14.529 68.0274 14.5362C67.9664 14.5058 67.9054 14.4748 67.8442 14.4449C67.7517 14.4542 67.6592 14.4638 67.5668 14.4733C67.5684 14.4871 67.57 14.5008 67.5716 14.5145Z" fill="black"/>
<path d="M61.3436 124.701C61.3027 124.723 61.5192 124.764 61.5296 124.795C61.5304 124.797 61.5313 124.799 61.5322 124.801C61.5324 124.802 61.5326 124.802 61.5328 124.803C61.5815 124.922 61.7252 124.974 61.8021 125.085C61.9233 125.244 61.5801 125.707 63.0774 125.924C63.0774 125.924 63.0774 125.924 63.0774 125.924C63.0774 125.924 63.0775 125.924 63.0775 125.924C63.0775 125.924 63.0775 125.924 63.0775 125.924C63.0922 125.925 63.1071 125.927 63.1222 125.929C63.4087 125.962 63.7276 125.948 64.0522 125.98C64.377 126.012 66.4664 126.277 66.5937 126.211C66.7635 126.114 66.2593 125.749 66.288 125.687C66.3085 125.643 66.5042 125.602 66.5427 125.544C66.6666 125.357 66.5322 125.253 67.0597 125.103C66.9502 125.069 66.8405 125.037 66.7308 125.005C66.728 125.004 66.7251 125.004 66.7222 125.003C66.5636 124.957 66.4048 124.912 66.2458 124.868C66.3757 124.784 66.0168 124.644 66.0373 124.594C66.0542 124.552 66.2711 124.53 66.2815 124.485C66.2944 124.437 66.0607 124.359 66.0957 124.273C66.1517 124.13 66.7165 124.099 66.7873 124.012C66.8604 123.921 66.551 123.788 66.7475 123.674C66.8093 123.659 66.8712 123.643 66.933 123.628C67.0738 123.635 67.2146 123.642 67.3554 123.65C67.4196 123.59 67.131 123.575 67.1245 123.522C67.1168 123.461 67.3891 123.425 67.3867 123.383C67.3845 123.348 67.1644 123.311 67.1769 123.266C67.194 123.201 67.5105 123.209 67.5686 123.173C67.5913 123.159 67.7578 122.904 67.7597 122.891C67.7686 122.785 67.3358 122.786 67.2952 122.705C67.184 122.474 67.5239 122.224 67.6467 122.004C67.7017 121.907 67.6722 121.805 67.599 121.714C66.5013 121.904 65.6283 121.602 67.3608 121.664C67.1104 121.566 67.5733 121.476 67.4897 121.376C67.4353 121.314 67.1941 121.279 67.1959 121.184C67.1987 121.096 67.3969 120.995 67.3819 120.919C67.3813 120.916 67.3804 120.913 67.3791 120.91C67.3532 120.854 67.1786 120.816 66.6417 120.816C66.8487 120.613 66.3967 120.468 67.4742 120.356C67.5377 120.305 66.8876 120.203 66.7976 120.15C66.7126 120.102 66.4029 119.71 66.3836 119.645C66.3642 119.578 66.3411 119.465 66.4327 119.406C66.5463 119.332 67.6575 119.238 66.3487 119.166C66.4468 119.018 66.4067 118.966 66.249 118.839C66.2205 118.816 66.0275 118.821 66.0266 118.807C66.0252 118.778 66.1652 118.722 66.1799 118.669C66.2039 118.582 65.7963 118.549 66.4156 118.534C66.5164 118.474 66.6171 118.413 66.7175 118.352C66.5971 118.337 66.4768 118.321 66.3565 118.306C66.4849 118.271 66.6131 118.236 66.7413 118.2C65.8497 118.272 66.3657 118.037 66.8815 118.086C66.6905 117.983 66.4999 117.881 66.3097 117.779C65.2985 117.835 66.1804 117.542 66.7304 117.541C66.7289 117.529 66.7273 117.516 66.7258 117.504C66.451 117.405 66.6644 117.294 66.4768 117.168C66.2894 117.041 66.1921 117.058 65.7273 117.036C65.7521 117.003 65.7769 116.971 65.8017 116.938C67.0588 116.72 64.8692 116.841 65.8241 116.517C65.0257 116.46 65.4317 116.219 65.6626 116.061C65.6895 116.042 65.8428 116.035 65.8888 116.01C65.9991 115.949 65.794 115.814 66.2878 115.798C66.1419 115.754 65.9962 115.711 65.8507 115.668C65.9379 115.623 66.025 115.578 66.112 115.534C66.2656 115.527 66.4193 115.521 66.573 115.514C66.044 115.456 66.2372 115.319 66.1082 115.261C66.0821 115.249 65.8706 115.256 65.8106 115.22C65.7394 115.177 65.7967 115.089 65.7276 115.038C65.9598 115.006 66.1919 114.974 66.4239 114.942C66.5436 114.838 65.926 114.832 65.8747 114.777C65.8658 114.767 65.8979 114.577 65.9103 114.567C66.0088 114.479 66.5325 114.477 66.4035 114.242C66.3802 114.2 66.1977 114.175 66.1878 114.136C66.1703 114.068 66.5628 113.842 66.9371 113.807C66.4601 113.748 66.6354 113.516 66.4948 113.458C66.4516 113.44 66.153 113.451 66.0851 113.393C66.0299 113.347 66.2589 113.208 66.2142 113.148C66.1658 113.084 65.9146 113.073 65.8948 113.044C65.8764 113.017 66.0757 112.981 66.0716 112.942C66.0554 112.824 65.7246 112.734 65.7119 112.639C65.6929 112.504 66.2752 112.351 66.527 112.221C66.4863 112.195 66.3574 112.174 66.3537 112.144C66.3041 111.777 66.1595 111.367 66.0021 111.005C65.9286 110.837 65.1084 110.463 66.4236 110.488C66.4482 110.479 66.4631 110.467 66.4702 110.452C66.4739 110.444 66.4754 110.434 66.475 110.425C66.468 110.285 66.0728 110.01 66.059 109.941C66.0422 109.86 66.2658 109.779 66.2614 109.716C66.2477 109.527 66.0665 109.397 66.2337 109.153C66.2775 109.092 66.5361 109.006 66.5276 108.971C66.5167 108.928 66.2516 108.899 66.2275 108.844C66.1723 108.718 66.2194 108.458 66.1564 108.338C66.1444 108.315 65.9213 108.322 65.8474 108.293C65.5589 108.178 65.5648 108.033 66.2681 108.012C65.8454 107.875 66.1834 107.693 66.1789 107.541C66.1681 107.211 65.9181 106.629 66.1439 106.325C66.2862 106.137 66.5726 106.118 66.2774 105.872C66.2121 105.816 66.1284 105.763 66.0518 105.697C65.8696 105.538 65.3339 105.422 65.9337 105.249C65.7445 105.076 65.8328 104.919 65.2942 104.814C65.4166 104.789 65.5387 104.764 65.6606 104.739C65.6604 104.716 65.6601 104.693 65.6599 104.67C65.5406 104.672 65.4214 104.673 65.3024 104.674C65.25 104.509 65.7023 104.266 65.6775 104.121C65.6375 103.886 65.3722 103.277 65.1869 103.049C65.0888 102.932 65.3278 102.892 64.823 102.883C64.8532 102.849 64.8834 102.815 64.9134 102.781C65.0187 102.748 65.1241 102.716 65.2289 102.681C65.2113 102.544 65.0834 102.396 65.0081 102.246C65.0002 102.23 64.9929 102.214 64.9864 102.199C64.9765 102.178 64.969 102.157 64.9648 102.136C64.9115 101.865 65.1042 101.377 64.8361 101.141C64.769 101.083 64.5283 101.055 64.5112 100.986C64.4855 100.885 64.8361 100.756 64.8012 100.619C64.7422 100.384 64.1816 100.097 64.1072 99.8562C64.0857 99.7845 64.195 99.6911 64.184 99.6341C64.1297 99.385 64.0425 99.2219 63.9682 98.7786C63.3874 98.6497 63.0669 99.0309 62.7121 99.3384C62.5801 99.4582 62.3547 99.6709 62.258 99.9427C62.1502 100.212 62.2177 100.51 62.2491 100.661C62.3084 100.88 62.0776 101.146 62.1408 101.388C61.4832 101.393 61.3613 101.172 61.3249 101.068C61.2982 100.947 61.3874 100.831 61.5272 100.74C61.549 100.788 61.6512 101.031 61.717 101.263C61.8468 101.241 61.9773 101.221 62.1077 101.201C62.1079 101.201 62.1082 101.201 62.1085 101.201C62.2842 101.252 61.9804 101.399 61.9247 101.474C61.6105 101.896 61.7543 102.361 61.9618 102.834C61.9657 102.841 61.9698 102.848 61.9739 102.856C62.0956 103.084 62.2347 103.411 62.2849 103.654C62.3145 103.788 62.1569 104.255 62.3753 104.336C62.4325 104.357 62.6382 104.347 62.6484 104.374C62.5369 104.623 62.42 104.874 62.2976 105.125C62.635 105.597 62.3673 106.137 62.3072 106.646C62.1577 108.019 61.9212 109.39 62.033 110.733C62.0335 110.739 62.0341 110.745 62.0346 110.751C62.0348 110.754 62.035 110.756 62.0352 110.758C62.054 111.011 61.8737 111.345 62.0072 111.585C62.0632 111.688 62.4884 111.703 62.1772 111.861C62.2916 111.856 62.4059 111.85 62.5202 111.845C62.387 111.975 62.1286 112.065 62.1062 112.202C62.0878 112.318 62.0793 112.62 62.1262 112.718C62.1498 112.768 62.3653 112.737 62.3658 112.786C62.3651 112.87 62.0706 113.064 62.0734 113.179C62.076 113.284 62.3316 113.445 62.2976 113.528C62.1769 113.824 61.8086 114.157 61.9155 114.46C61.9458 114.544 62.2349 114.64 62.2276 114.667C62.2122 114.72 61.9338 114.749 61.8987 114.785C61.7208 114.971 62.0585 115.233 62.0759 115.407C62.1318 115.974 62.0208 116.582 62.0851 117.146C62.1259 117.503 62.0879 118.1 62.3128 118.423C62.3614 118.492 62.6771 118.461 62.6787 118.521C62.6804 118.588 62.4676 118.632 62.4511 118.664C62.3357 118.884 62.13 119.367 62.3551 119.562C62.3983 119.6 62.6485 119.618 62.6483 119.641C62.6486 119.653 62.479 119.685 62.4626 119.723C62.3171 120.055 62.4229 120.289 62.4909 120.605C62.5246 120.764 62.5294 120.931 62.5214 121.099C62.5213 121.102 62.5211 121.105 62.521 121.108C62.4976 121.589 62.3739 122.093 62.515 122.556C62.5567 122.694 63.0587 122.77 63.0543 122.791C63.0455 122.835 62.7103 122.87 62.6297 122.96C62.3647 123.253 62.7327 123.627 62.568 123.892C62.487 124.024 62.0616 124.203 61.967 124.319C61.8919 124.415 62.0567 124.624 61.8679 124.656C61.754 124.677 61.3899 124.676 61.3436 124.701ZM66.9121 121.097C66.3346 121.139 66.8059 120.917 67.1198 120.982C67.1905 120.997 67.062 121.087 66.9121 121.097ZM65.3807 111.707C65.5326 111.7 65.6846 111.693 65.8365 111.685C65.7755 111.716 65.7145 111.747 65.6533 111.777C65.5608 111.767 65.4683 111.758 65.3759 111.748C65.3775 111.735 65.3791 111.721 65.3807 111.707Z" fill="black"/>
<path d="M110.302 16.4324C110.307 16.3801 110.474 16.4897 110.514 16.4676C110.686 16.3756 110.826 16.4298 111.005 16.3727C111.271 16.2891 111.665 15.5894 112.561 16.589C112.561 16.589 112.561 16.589 112.561 16.589C112.561 16.589 112.561 16.589 112.561 16.589C112.561 16.589 112.561 16.589 112.561 16.589C112.569 16.5988 112.578 16.6088 112.587 16.619C112.755 16.8116 112.891 17.0643 113.076 17.2867C113.261 17.5093 114.509 18.8976 114.506 19.0402C114.492 19.2362 113.922 19.0991 113.879 19.1638C113.851 19.208 113.914 19.3769 113.885 19.4422C113.788 19.6533 113.623 19.6315 113.778 20.1025C113.562 19.9688 113.346 19.8346 113.131 19.7003C113.129 19.849 112.808 19.7038 112.774 19.7551C112.746 19.7977 112.847 19.9617 112.814 20.0011C112.777 20.0465 112.577 19.946 112.518 20.0363C112.419 20.1839 112.716 20.5831 112.679 20.696C112.639 20.8144 112.34 20.7121 112.348 20.9321C112.37 20.9845 112.392 21.037 112.414 21.0895C112.503 21.1762 112.592 21.2628 112.68 21.3496C112.665 21.4363 112.479 21.2628 112.429 21.2981C112.369 21.3401 112.493 21.5484 112.455 21.5781C112.424 21.6025 112.257 21.4912 112.225 21.5334C112.177 21.5941 112.368 21.7957 112.369 21.8615C112.368 21.8883 112.234 22.1959 112.222 22.2083C112.127 22.3003 111.878 22.0154 111.776 22.0568C111.637 22.1126 111.56 22.2446 111.5 22.396C111.499 22.3972 111.499 22.3984 111.498 22.3996C111.441 22.5489 111.4 22.7171 111.334 22.8449C111.276 22.9584 111.165 23.0211 111.036 23.0488C110.561 22.1945 109.762 21.8842 110.849 22.9372C110.609 22.8569 110.798 23.2266 110.658 23.2527C110.568 23.269 110.39 23.1462 110.305 23.2227C110.155 23.361 110.361 23.9535 109.63 23.1751C109.567 23.471 109.159 23.3081 109.695 24.081C109.685 24.1634 109.202 23.8374 109.101 23.8229C109.005 23.8095 108.454 23.9376 108.383 23.9789C108.31 24.0208 108.19 24.1006 108.189 24.2074C108.187 24.3407 108.761 25.118 107.915 24.3525C107.835 24.5374 107.765 24.553 107.551 24.5598C107.513 24.5609 107.403 24.4352 107.389 24.4464C107.361 24.4696 107.393 24.6037 107.352 24.6568C107.285 24.744 107.012 24.5141 107.366 24.9169C107.37 25.0306 107.373 25.1445 107.376 25.258C107.29 25.1946 107.205 25.1312 107.119 25.0679C107.163 25.1781 107.206 25.2882 107.249 25.3983C106.785 24.7776 106.874 25.2964 107.226 25.5811C107.017 25.5454 106.809 25.5101 106.6 25.4749C106.051 24.7916 106.304 25.5891 106.63 25.9359C106.618 25.9453 106.605 25.9547 106.592 25.9641C106.337 25.8731 106.362 26.0985 106.132 26.0852C105.903 26.0722 105.86 25.9973 105.563 25.7228C105.548 25.7654 105.532 25.8081 105.517 25.8507C106.063 26.8217 104.87 25.3456 105.138 26.2139C104.609 25.7598 104.627 26.2146 104.618 26.4904C104.617 26.5225 104.702 26.6244 104.706 26.674C104.715 26.7939 104.468 26.7765 104.748 27.0998C104.62 27.0443 104.493 26.989 104.366 26.9336C104.377 27.0251 104.388 27.1161 104.398 27.2077C104.484 27.3094 104.57 27.411 104.655 27.5127C104.412 27.327 104.323 27.3646 104.255 27.4025C104.252 27.404 104.249 27.4055 104.246 27.407C104.213 27.4254 104.184 27.4419 104.142 27.4315C104.116 27.4246 103.996 27.2867 103.926 27.2794C103.844 27.2702 103.797 27.3787 103.707 27.3783C103.817 27.5497 103.926 27.721 104.036 27.8921C104.012 28.0516 103.636 27.6716 103.554 27.6849C103.54 27.6875 103.383 27.8644 103.38 27.881C103.357 28.0147 103.67 28.3415 103.375 28.454C103.322 28.4736 103.188 28.382 103.147 28.4073C103.074 28.452 103.099 28.8801 103.291 29.1394C102.95 28.8933 102.84 29.1904 102.701 29.1517C102.659 29.1395 102.49 28.9473 102.396 28.9525C102.32 28.9567 102.328 29.2108 102.246 29.2324C102.158 29.2551 101.998 29.1104 101.959 29.1219C101.923 29.1329 102.009 29.2842 101.971 29.3128C101.851 29.4002 101.57 29.2733 101.475 29.3428C101.339 29.4427 101.545 29.9194 101.576 30.1753C101.528 30.1721 101.432 30.1115 101.402 30.1334C101.034 30.4016 100.571 30.6479 100.147 30.8516C99.9486 30.9448 99.1191 30.7818 99.9278 31.5154C99.9916 31.7032 99.2897 31.7026 99.2068 31.7619C99.1228 31.8202 99.1829 32.0138 99.1217 32.065C98.9372 32.2193 98.7165 32.2224 98.5917 32.5266C98.5599 32.6055 98.6386 32.8219 98.6017 32.8472C98.5568 32.8774 98.3731 32.753 98.3093 32.7863C98.2444 32.8208 98.171 32.8856 98.0958 32.9544C98.0921 32.9578 98.0885 32.9612 98.0848 32.9645C97.9881 33.0533 97.8889 33.1455 97.8062 33.1849C97.7782 33.1977 97.6514 33.0661 97.5812 33.0491C97.3073 32.9829 97.1764 33.1119 97.576 33.5277C97.1965 33.4084 97.2351 33.7518 97.0901 33.8813C96.7831 34.1548 96.1012 34.5048 95.9606 34.8847C95.8716 35.124 96.0283 35.2964 95.6296 35.3367C95.5414 35.3459 95.4433 35.3439 95.3378 35.3567C95.089 35.3851 94.6643 35.1892 94.8698 35.6612C94.6012 35.7033 94.5169 35.8804 94.106 35.674C94.157 35.7615 94.2078 35.8488 94.2587 35.9358C94.2383 35.9549 94.2181 35.974 94.1979 35.9931C94.1278 35.9275 94.0577 35.8621 93.9876 35.7968C93.8141 35.9059 93.8764 36.3516 93.7438 36.4553C93.5204 36.6277 92.877 36.992 92.6045 37.0875C92.4592 37.1361 92.5879 37.2788 92.2529 37.0539C92.2501 37.0949 92.2473 37.1359 92.2443 37.1774C92.2914 37.252 92.3388 37.3263 92.3865 37.4004C92.2947 37.4944 92.1339 37.5499 92.0148 37.6231C92.0092 37.6265 92.0037 37.63 91.9983 37.6335C91.9634 37.6575 91.932 37.6826 91.9065 37.7102C91.6841 37.9507 91.5188 38.4698 91.174 38.6038C91.0878 38.637 90.8881 38.5884 90.8324 38.6487C90.7538 38.7337 90.9417 38.9631 90.8397 39.075C90.6604 39.2717 90.0695 39.3771 89.8935 39.575C89.8429 39.6325 89.8876 39.7401 89.8549 39.7856C89.7101 39.9822 89.5678 40.0994 89.4116 40.4183C88.9505 40.3878 88.7719 40.0496 88.535 39.7574C88.4446 39.6467 88.2857 39.4557 88.228 39.2343C88.1589 39.0115 88.272 38.7878 88.3351 38.6819C88.4371 38.527 88.2563 38.2725 88.3655 38.0998C88.045 38.027 87.9259 38.0753 87.8615 38.0907C87.8 38.1122 87.792 38.1359 87.8002 38.1626C87.82 38.2156 87.9108 38.2868 88.0446 38.351C88.2516 38.1799 88.5183 37.9102 88.7682 37.6481C88.8637 37.6978 88.9599 37.7467 89.0569 37.7949C89.057 37.795 89.0572 37.7952 89.0574 37.7953C89.2417 37.7783 89.0986 37.5471 89.1091 37.4509C89.1745 36.8931 89.6834 36.395 90.2157 35.9577C90.2214 35.953 90.2271 35.9483 90.2328 35.9435C90.6066 35.6328 90.9809 35.3771 91.2394 35.1559C91.3816 35.0341 91.7125 34.5068 91.9203 34.5455C91.9739 34.556 92.0912 34.6712 92.1209 34.6525C92.2782 34.3656 92.4349 34.0768 92.5898 33.7855C93.2232 33.5429 93.5514 32.9289 93.9802 32.4531C94.6141 31.7574 95.2339 31.0587 95.8692 30.3969C95.8727 30.3932 95.8762 30.3896 95.8797 30.3859C96.4165 29.8292 96.9638 29.2888 97.5408 28.7875C97.7877 28.5744 97.9862 28.1686 98.2898 28.0331C98.4162 27.9763 98.6869 28.2103 98.6452 27.8903C98.7085 27.9623 98.7718 28.0343 98.8352 28.1064C98.874 27.9159 98.8045 27.6827 98.9165 27.5503C99.0113 27.439 99.2839 27.1716 99.4026 27.1148C99.4638 27.0847 99.5636 27.2416 99.6088 27.1999C99.6855 27.1275 99.6885 26.782 99.7964 26.6843C99.8938 26.596 100.197 26.6121 100.253 26.521C100.454 26.1944 100.542 25.6822 100.887 25.4906C100.983 25.4384 101.246 25.5358 101.266 25.5088C101.306 25.4546 101.166 25.2574 101.179 25.2045C101.245 24.9361 101.692 24.9253 101.864 24.7908C101.901 24.7617 101.938 24.732 101.974 24.7017C101.977 24.6998 101.979 24.6978 101.982 24.6959C102.497 24.2704 102.968 23.7428 103.494 23.3426C103.852 23.0708 104.389 22.5494 104.824 22.423C104.918 22.3957 105.076 22.6209 105.133 22.5722C105.196 22.518 105.111 22.3468 105.131 22.31C105.268 22.0546 105.598 21.523 105.913 21.5032C105.973 21.4997 106.139 21.6424 106.161 21.6231C106.172 21.6135 106.102 21.4793 106.127 21.4375C106.35 21.0704 106.63 20.9435 106.966 20.7232C107.594 20.3107 108.079 19.5491 108.759 19.1359C108.76 19.1353 108.761 19.1347 108.762 19.1341C108.777 19.1246 108.793 19.1153 108.809 19.1063C108.962 19.0184 109.335 19.2739 109.35 19.2553C109.385 19.2144 109.224 18.9653 109.259 18.8399C109.383 18.4207 109.955 18.3454 110.121 18.0098C110.203 17.8437 110.137 17.406 110.208 17.2348C110.265 17.0981 110.595 17.0072 110.531 16.8439C110.493 16.7448 110.296 16.4904 110.302 16.4324ZM110.054 23.1146C109.749 22.7148 109.825 23.1939 110.071 23.3406C110.126 23.3739 110.133 23.2185 110.054 23.1146ZM100.418 29.9113C100.502 30.0072 100.586 30.1032 100.67 30.1991C100.662 30.1381 100.653 30.077 100.645 30.0159C100.581 29.9688 100.517 29.9217 100.453 29.8747C100.441 29.8869 100.43 29.8991 100.418 29.9113Z" fill="black"/>
<path d="M126.924 61.3507C126.965 61.3184 127.001 61.5169 127.045 61.5312C127.227 61.5931 127.284 61.7337 127.446 61.8254C127.686 61.9616 128.451 61.7759 128.327 63.1209C128.327 63.1209 128.327 63.1209 128.327 63.1209C128.327 63.1209 128.327 63.121 128.327 63.121C128.327 63.121 128.327 63.121 128.327 63.121C128.325 63.1342 128.324 63.1475 128.323 63.161C128.296 63.417 128.207 63.6909 128.171 63.9798C128.135 64.2688 127.968 66.141 127.869 66.2379C127.726 66.3645 127.459 65.8558 127.388 65.8707C127.34 65.881 127.266 66.0457 127.202 66.0703C126.998 66.1497 126.908 66.0158 126.69 66.4619C126.642 66.2118 126.594 65.9618 126.546 65.7118C126.444 65.8163 126.335 65.4823 126.277 65.495C126.23 65.5053 126.186 65.6955 126.138 65.7001C126.083 65.7064 126.02 65.491 125.92 65.5135C125.756 65.5494 125.682 66.0493 125.581 66.1045C125.476 66.1616 125.347 65.8747 125.205 66.0402C125.184 66.0941 125.164 66.1479 125.143 66.2018C125.143 66.3278 125.143 66.4539 125.143 66.5799C125.075 66.6324 125.07 66.3738 125.012 66.3639C124.944 66.3522 124.888 66.592 124.842 66.5868C124.804 66.5823 124.77 66.383 124.72 66.3908C124.647 66.4013 124.638 66.684 124.595 66.7332C124.578 66.7523 124.281 66.8826 124.265 66.8835C124.142 66.8841 124.165 66.4981 124.071 66.456C123.81 66.3409 123.508 66.6286 123.25 66.7254C123.135 66.7688 123.022 66.7368 122.916 66.6661C123.172 65.6947 122.849 64.8957 122.867 66.4502C122.762 66.2207 122.641 66.63 122.53 66.5502C122.459 66.4983 122.424 66.2802 122.316 66.2772C122.124 66.2733 121.869 66.8655 121.899 65.7619C121.66 65.9384 121.495 65.5251 121.343 66.4898C121.281 66.5449 121.176 65.9558 121.117 65.8726C121.061 65.794 120.61 65.4997 120.534 65.48C120.458 65.4601 120.324 65.4352 120.254 65.5162C120.165 65.6162 120.043 66.6198 119.975 65.4327C119.801 65.5172 119.743 65.4798 119.595 65.3333C119.568 65.3068 119.576 65.1317 119.559 65.1305C119.525 65.1285 119.459 65.2542 119.397 65.2664C119.296 65.2862 119.26 64.9149 119.238 65.4777C119.167 65.5682 119.096 65.6586 119.025 65.7492C119.008 65.6394 118.991 65.5296 118.974 65.4198C118.932 65.5361 118.89 65.6524 118.849 65.7688C118.935 64.9573 118.66 65.424 118.716 65.8953C118.598 65.7202 118.48 65.5452 118.36 65.3705C118.424 64.4462 118.085 65.2501 118.087 65.7544C118.072 65.753 118.058 65.7516 118.043 65.7502C117.927 65.4983 117.802 65.6942 117.653 65.5225C117.505 65.3509 117.524 65.2615 117.493 64.8339C117.455 64.8568 117.418 64.8797 117.38 64.9027C117.144 66.0625 117.252 64.0426 116.89 64.9269C116.831 64.387 116.666 64.4448 116.514 64.6003C116.514 64.6004 116.514 64.6006 116.514 64.6007C116.458 64.6574 116.404 64.727 116.356 64.7852C116.336 64.8105 116.332 64.953 116.304 64.9962C116.236 65.1001 116.074 64.913 116.07 65.3725C116.015 65.2382 115.961 65.104 115.906 64.9698C115.857 65.0523 115.809 65.1348 115.76 65.2173C115.758 65.3607 115.755 65.504 115.753 65.6474C115.667 65.1568 115.517 65.3417 115.445 65.2236C115.43 65.1997 115.43 65.002 115.385 64.9473C115.333 64.8824 115.233 64.9393 115.171 64.8767C115.144 65.0951 115.117 65.3134 115.09 65.5318C114.977 65.6485 114.942 65.071 114.876 65.0254C114.864 65.0174 114.645 65.0564 114.634 65.0686C114.537 65.1652 114.562 65.656 114.286 65.5482C114.237 65.5288 114.197 65.3589 114.152 65.3518C114.073 65.339 113.837 65.7216 113.821 66.0759C113.723 65.6313 113.469 65.8116 113.393 65.6834C113.37 65.644 113.362 65.3621 113.291 65.3022C113.233 65.2533 113.09 65.4789 113.018 65.4413C112.94 65.4005 112.909 65.1645 112.874 65.148C112.842 65.1327 112.815 65.3233 112.771 65.3224C112.633 65.3163 112.502 65.0114 112.392 65.0071C112.233 65.0002 112.108 65.5628 111.983 65.8122C111.949 65.7762 111.914 65.6563 111.88 65.6556C111.456 65.6419 110.973 65.5464 110.542 65.4376C110.342 65.3863 109.814 64.6555 110.001 65.8952C109.943 66.1136 109.419 65.6253 109.322 65.6215C109.226 65.6169 109.162 65.84 109.087 65.8452C108.861 65.8608 108.693 65.7075 108.426 65.9068C108.358 65.9588 108.295 66.2202 108.252 66.2183C108.201 66.2154 108.133 65.9667 108.066 65.9529C107.906 65.922 107.616 66.0133 107.462 65.9752C107.439 65.9692 107.421 65.8272 107.392 65.7372C107.392 65.7371 107.392 65.7369 107.392 65.7368C107.385 65.7151 107.377 65.6965 107.368 65.6835C107.197 65.4233 107.026 65.4507 107.095 66.1416C106.875 65.7513 106.71 66.1083 106.527 66.1245C106.139 66.1591 105.421 65.9705 105.097 66.2116C104.893 66.3633 104.915 66.6389 104.586 66.3704C104.513 66.3114 104.44 66.2347 104.351 66.1662C104.144 66.002 103.931 65.5101 103.818 66.0851C103.589 65.9213 103.422 66.0149 103.227 65.5294C103.216 65.6445 103.204 65.7593 103.193 65.8737C103.167 65.8757 103.14 65.8776 103.114 65.8797C103.098 65.7701 103.082 65.6608 103.066 65.5516C102.871 65.5218 102.661 65.961 102.5 65.9564C102.277 65.9498 101.763 65.8524 101.441 65.7672C101.441 65.7672 101.441 65.7672 101.441 65.7671C101.367 65.7484 101.304 65.7284 101.255 65.7079C101.109 65.6463 101.119 65.8685 100.999 65.4205C100.971 65.4549 100.943 65.4893 100.915 65.5236C100.903 65.625 100.892 65.7264 100.881 65.8277C100.701 65.8473 100.475 65.7101 100.303 65.7254C99.992 65.7536 99.5377 66.0626 99.21 65.9022C99.1275 65.8618 99.016 65.662 98.9385 65.669C98.8252 65.679 98.8185 66.0223 98.674 66.0368C98.4264 66.0613 97.9419 65.6856 97.7067 65.7233C97.6383 65.7344 97.6062 65.8628 97.5588 65.8777C97.3549 65.9419 97.1828 65.935 96.9743 66.1324C96.7451 65.804 96.7682 65.3793 96.7126 64.951C96.6627 64.628 96.5562 63.8734 96.5977 63.5922C96.6158 63.3946 96.6462 63.1411 96.6615 62.9232C96.7559 62.7548 96.8885 62.948 97.0607 63.2539C97.3973 63.2387 97.7519 63.2137 98.1029 63.1852C98.1411 63.3028 98.1789 63.4203 98.2167 63.5379C98.2167 63.5381 98.2167 63.5384 98.2167 63.5386C98.3618 63.6693 98.402 63.3596 98.4734 63.286C99.0927 62.631 100.369 62.9502 101.184 62.992C101.184 62.992 101.184 62.992 101.184 62.992C101.243 62.995 101.301 62.9964 101.354 62.9961C101.53 62.9972 102.081 62.769 102.214 62.9499C102.249 62.9974 102.272 63.1839 102.305 63.1884C102.587 63.0435 102.87 62.892 103.151 62.7326C103.768 62.9553 104.363 62.6115 104.958 62.4637C105.701 62.2865 106.439 62.1029 107.178 61.9858C107.178 61.9858 107.178 61.9858 107.178 61.9858C108.036 61.8503 108.901 61.7419 109.77 61.7176C110.082 61.7094 110.471 61.4983 110.783 61.602C110.914 61.6448 110.979 62.045 111.138 61.7362C111.143 61.8448 111.148 61.9533 111.154 62.0619C111.295 61.9239 111.382 61.6716 111.546 61.6386C111.683 61.6112 112.051 61.5791 112.175 61.6165C112.239 61.635 112.22 61.8408 112.279 61.8376C112.381 61.8308 112.592 61.5394 112.732 61.5348C112.86 61.5306 113.078 61.762 113.175 61.7253C113.525 61.5947 113.908 61.2332 114.287 61.324C114.391 61.3497 114.524 61.6183 114.557 61.6106C114.621 61.5947 114.64 61.3327 114.683 61.2988C114.903 61.1273 115.24 61.4394 115.452 61.4539C115.827 61.4788 116.215 61.4623 116.601 61.4544C116.602 61.4544 116.602 61.4544 116.602 61.4544C116.931 61.4478 117.26 61.4467 117.577 61.4815C118.012 61.5285 118.737 61.5174 119.126 61.7375C119.209 61.785 119.17 62.0714 119.242 62.0754C119.322 62.0799 119.377 61.8881 119.415 61.8745C119.68 61.7792 120.265 61.6186 120.496 61.8337C120.54 61.8749 120.559 62.1024 120.587 62.1034C120.601 62.1043 120.643 61.9528 120.688 61.94C121.088 61.8275 121.366 61.9375 121.743 62.0185C122.465 62.1725 123.331 61.9552 124.081 62.175C124.245 62.2228 124.32 62.6775 124.344 62.675C124.396 62.6705 124.454 62.3741 124.565 62.3092C124.931 62.0962 125.366 62.4567 125.707 62.3362C125.875 62.2768 126.133 61.9173 126.299 61.8477C126.433 61.7921 126.719 61.9685 126.79 61.807C126.834 61.7094 126.88 61.3874 126.924 61.3507ZM122.221 66.0182C122.284 65.5022 122.015 65.9141 122.082 66.1989C122.097 66.263 122.205 66.1522 122.221 66.0182ZM111.284 64.7777C111.291 64.9219 111.297 65.0662 111.304 65.2104C111.333 65.1498 111.362 65.0892 111.391 65.0285C111.371 64.942 111.351 64.8556 111.33 64.7692C111.315 64.772 111.299 64.7749 111.284 64.7777Z" fill="black"/>
<path d="M115.735 103.582C115.78 103.576 115.767 103.72 115.804 103.746C115.955 103.853 115.977 103.968 116.104 104.089C116.199 104.179 116.431 104.264 116.608 104.45C116.787 104.635 116.919 104.94 116.655 105.332C116.655 105.332 116.655 105.332 116.655 105.332C116.655 105.332 116.655 105.332 116.655 105.332C116.655 105.332 116.655 105.332 116.655 105.332C116.65 105.34 116.645 105.348 116.64 105.356C116.546 105.509 116.388 105.643 116.276 105.813C116.165 105.983 115.495 107.113 115.41 107.149C115.296 107.194 115.2 106.768 115.134 106.752C115.089 106.741 114.988 106.825 114.929 106.819C114.735 106.8 114.687 106.68 114.397 106.9C114.412 106.718 114.424 106.535 114.438 106.352C114.325 106.386 114.302 106.125 114.249 106.114C114.204 106.104 114.123 106.215 114.08 106.202C114.03 106.187 114.022 106.021 113.928 106.002C113.775 105.968 113.599 106.275 113.498 106.277C113.396 106.279 113.345 106.056 113.19 106.099C113.19 106.099 113.189 106.099 113.189 106.099C113.185 106.101 113.181 106.102 113.177 106.104C113.147 106.132 113.117 106.161 113.087 106.19C113.06 106.274 113.032 106.358 113.005 106.442C112.933 106.453 112.986 106.279 112.936 106.252C112.875 106.22 112.775 106.361 112.735 106.342C112.703 106.326 112.715 106.181 112.668 106.168C112.602 106.15 112.531 106.335 112.482 106.353C112.463 106.36 112.169 106.342 112.154 106.337C112.042 106.293 112.149 106.046 112.074 105.984C111.865 105.816 111.53 105.9 111.276 105.872C111.163 105.86 111.067 105.797 110.989 105.713C111.436 105.159 111.323 104.513 110.992 105.551C110.948 105.361 110.749 105.59 110.666 105.496C110.612 105.435 110.632 105.279 110.535 105.238C110.362 105.165 109.997 105.464 110.277 104.744C110.023 104.774 109.971 104.44 109.608 105.021C109.539 105.034 109.582 104.606 109.549 104.529C109.517 104.457 109.182 104.094 109.119 104.053C109.056 104.011 108.942 103.944 108.859 103.971C108.756 104.003 108.401 104.614 108.63 103.81C108.453 103.799 108.411 103.752 108.315 103.599C108.297 103.572 108.347 103.46 108.333 103.453C108.303 103.439 108.213 103.495 108.155 103.479C108.059 103.453 108.121 103.197 107.959 103.555C107.872 103.586 107.786 103.617 107.699 103.648C107.712 103.57 107.724 103.492 107.737 103.414C107.67 103.473 107.603 103.532 107.536 103.592C107.821 103.098 107.456 103.293 107.384 103.621C107.323 103.461 107.261 103.299 107.201 103.139C107.501 102.567 106.988 102.951 106.855 103.277C106.842 103.27 106.83 103.263 106.817 103.256C106.78 103.047 106.615 103.122 106.529 102.95C106.443 102.779 106.484 102.729 106.574 102.443C106.535 102.442 106.495 102.441 106.455 102.44C105.924 103.085 106.582 101.839 106.015 102.253C106.152 101.749 105.805 101.876 105.584 101.938C105.559 101.945 105.514 102.033 105.477 102.049C105.386 102.085 105.298 101.898 105.159 102.185C105.15 102.077 105.142 101.969 105.133 101.861C105.066 101.892 104.998 101.923 104.931 101.953C104.885 102.042 104.84 102.131 104.795 102.22C104.867 101.875 104.677 101.924 104.65 101.819C104.645 101.798 104.705 101.674 104.682 101.62C104.656 101.556 104.552 101.548 104.516 101.481C104.425 101.606 104.333 101.73 104.242 101.854C104.104 101.876 104.255 101.501 104.212 101.443C104.208 101.439 104.169 101.423 104.124 101.406C104.123 101.406 104.122 101.405 104.121 101.405C104.062 101.383 103.994 101.36 103.986 101.361C103.872 101.378 103.737 101.695 103.53 101.501C103.493 101.466 103.513 101.342 103.477 101.317C103.413 101.273 103.082 101.398 102.952 101.607C103.013 101.288 102.733 101.276 102.711 101.161C102.704 101.126 102.791 100.951 102.75 100.88C102.717 100.823 102.519 100.89 102.47 100.832C102.418 100.77 102.471 100.613 102.447 100.586C102.424 100.561 102.337 100.662 102.299 100.64C102.184 100.568 102.177 100.323 102.086 100.266C101.955 100.185 101.654 100.451 101.463 100.531C101.447 100.493 101.459 100.405 101.43 100.387C101.077 100.161 100.707 99.8524 100.388 99.5633C100.239 99.4269 100.062 98.7572 99.7801 99.5178C99.655 99.6014 99.3961 99.054 99.3193 99.0004C99.2429 98.9455 99.1109 99.0237 99.048 98.9843C98.8587 98.8656 98.7763 98.6956 98.4898 98.6436C98.4156 98.6305 98.273 98.7231 98.2392 98.6975C98.1987 98.6665 98.2315 98.5062 98.1824 98.4616C98.0652 98.3563 97.8 98.2343 97.6897 98.1275C97.6698 98.1078 97.7295 97.9927 97.7185 97.9367C97.6757 97.7186 97.5275 97.6361 97.3374 97.9969C97.299 97.6907 97.0396 97.7658 96.8838 97.6711C96.5554 97.4719 96.0348 96.9925 95.6687 96.9288C95.4381 96.8889 95.3422 97.0318 95.1726 96.7258C95.135 96.6583 95.1046 96.5819 95.0599 96.5012C95.0597 96.5009 95.0595 96.5006 95.0593 96.5002C95.0592 96.5 95.0591 96.4998 95.059 96.4995C94.9553 96.3102 95.0033 95.9522 94.6601 96.176C94.5434 95.9682 94.3719 95.9302 94.4342 95.5701C94.3728 95.6225 94.3113 95.6748 94.2499 95.7272C94.2277 95.7134 94.2056 95.6996 94.1835 95.6858C94.2212 95.6206 94.2589 95.5554 94.2967 95.4902C94.1625 95.3669 93.783 95.4703 93.661 95.3776C93.447 95.2162 92.97 94.7142 92.831 94.4841C92.7546 94.3602 92.6533 94.4848 92.7899 94.1751C92.7525 94.1758 92.7152 94.1766 92.6781 94.1775C92.6205 94.2246 92.5616 94.2707 92.5032 94.3171C92.3622 94.2152 92.2689 94.0048 92.1377 93.9073C91.8985 93.73 91.4222 93.6177 91.2642 93.3317C91.2231 93.2585 91.2428 93.0858 91.1822 93.0412C91.0941 92.976 90.9257 93.1583 90.8134 93.077C90.624 92.9398 90.4544 92.4413 90.2672 92.3188C90.2118 92.2826 90.1308 92.3354 90.0875 92.313C89.9099 92.2236 89.7936 92.1189 89.5508 92.0996C89.5414 91.7802 89.7559 91.5596 89.9145 91.2881C89.9753 91.1862 90.0685 91.01 90.1717 90.8456C90.2264 90.7667 90.2802 90.6867 90.3456 90.6354C90.4084 90.5974 90.5002 90.5194 90.6248 90.76C90.6834 90.9334 90.7203 90.9183 90.7388 90.7486C90.7502 90.5939 90.7181 90.4674 90.7321 90.4134C90.7695 90.3198 90.8145 90.2414 90.9073 90.2319C90.8299 90.1107 90.8698 90.147 90.8727 90.1359C90.8841 90.1361 90.8959 90.1416 90.9077 90.1516C90.9302 90.1706 90.9487 90.2036 90.9556 90.2407C90.9753 90.3198 90.9671 90.4312 90.9626 90.5721C91.2224 90.7776 91.4956 90.9839 91.7725 91.1905C91.7439 91.2775 91.7142 91.3636 91.6858 91.4507C91.6857 91.4508 91.6856 91.451 91.6854 91.4511C91.7297 91.6119 91.9093 91.4709 91.9965 91.475C92.8308 91.5158 93.6765 92.6266 94.2529 93.1207C94.377 93.2275 94.8709 93.4483 94.8802 93.6285C94.8822 93.6752 94.8105 93.7872 94.8319 93.8101C95.0982 93.9081 95.3674 94.0076 95.639 94.1083C95.819 94.3784 96.0716 94.5635 96.3448 94.7276C96.3451 94.7278 96.3453 94.7279 96.3456 94.7281C96.5673 94.8602 96.8045 94.972 97.025 95.1017C98.3313 95.8725 99.7282 96.4709 101.059 97.1697C101.316 97.3066 101.707 97.3612 101.926 97.5549C102.017 97.6351 101.933 97.8912 102.17 97.7857C102.137 97.8497 102.103 97.9137 102.07 97.9777C102.234 97.9623 102.393 97.8558 102.538 97.9075C102.661 97.9516 102.973 98.0908 103.063 98.1662C103.109 98.2046 103.023 98.3178 103.073 98.3416C103.159 98.3817 103.433 98.2996 103.55 98.3565C103.656 98.4083 103.758 98.641 103.85 98.6608C104.183 98.7324 104.618 98.673 104.898 98.8895C104.976 98.9498 104.999 99.1732 105.028 99.1824C105.086 99.1998 105.186 99.0458 105.232 99.0431C105.27 99.0411 105.307 99.0482 105.342 99.0622C105.343 99.0625 105.344 99.0629 105.345 99.0632C105.524 99.1352 105.671 99.3825 105.813 99.4637C106.37 99.781 107.013 100.015 107.571 100.329C107.923 100.527 108.541 100.794 108.817 101.081C108.876 101.143 108.769 101.314 108.83 101.344C108.898 101.377 108.993 101.272 109.03 101.278C109.282 101.315 109.825 101.423 109.971 101.647C109.999 101.69 109.96 101.846 109.984 101.857C109.996 101.863 110.069 101.779 110.112 101.787C110.485 101.857 110.699 102.028 111.01 102.216C111.604 102.575 112.412 102.733 113.025 103.139C113.16 103.228 113.124 103.555 113.147 103.563C113.194 103.578 113.312 103.401 113.422 103.395C113.736 103.383 114.005 103.661 114.28 103.77C114.28 103.77 114.28 103.77 114.28 103.77C114.331 103.79 114.381 103.804 114.431 103.81C114.595 103.829 114.9 103.678 115.066 103.692C115.197 103.701 115.413 103.919 115.515 103.838C115.576 103.789 115.685 103.59 115.735 103.582ZM110.508 105.031C110.682 104.712 110.348 104.888 110.342 105.1C110.341 105.148 110.463 105.114 110.508 105.031ZM101.234 99.5799C101.19 99.6651 101.145 99.7503 101.101 99.8356C101.146 99.8161 101.191 99.7964 101.237 99.7766C101.25 99.7172 101.263 99.6579 101.276 99.5987C101.262 99.5924 101.248 99.5862 101.234 99.5799Z" fill="black"/>
<path d="M27.7142 112.355C27.718 112.403 27.5459 112.302 27.5122 112.323C27.3693 112.408 27.2314 112.357 27.0766 112.408C26.8472 112.485 26.5896 113.12 25.6211 112.177C25.6211 112.177 25.6211 112.177 25.6211 112.177C25.6211 112.177 25.6211 112.177 25.621 112.177C25.621 112.177 25.621 112.177 25.621 112.177C25.6115 112.168 25.602 112.159 25.5923 112.149C25.4095 111.968 25.2454 111.734 25.0421 111.525C24.8388 111.317 23.4871 110.011 23.4628 109.884C23.4374 109.711 23.963 109.861 23.9875 109.805C24.0041 109.766 23.9142 109.613 23.9272 109.556C23.9691 109.372 24.117 109.398 23.8823 108.973C24.0992 109.099 24.3163 109.226 24.5334 109.353C24.5033 109.22 24.817 109.358 24.8359 109.312C24.8515 109.274 24.7265 109.125 24.747 109.091C24.7691 109.051 24.9677 109.145 25.0004 109.064C25.0547 108.933 24.7031 108.572 24.7109 108.47C24.719 108.365 25.0057 108.46 24.9477 108.262C24.9162 108.215 24.8847 108.167 24.8532 108.12C24.7551 108.041 24.6571 107.962 24.5591 107.884C24.5524 107.806 24.7556 107.964 24.7919 107.932C24.8348 107.895 24.6762 107.708 24.7029 107.681C24.7248 107.659 24.8971 107.76 24.9157 107.722C24.9437 107.668 24.7283 107.485 24.7112 107.426C24.7048 107.403 24.7495 107.126 24.7569 107.115C24.8168 107.034 25.1063 107.289 25.1853 107.253C25.4045 107.151 25.3288 106.773 25.3799 106.542C25.403 106.439 25.4835 106.384 25.5908 106.357C26.2242 107.127 27.0099 107.404 25.7844 106.457C26.0161 106.529 25.7545 106.197 25.872 106.172C25.9481 106.156 26.1362 106.267 26.1917 106.197C26.29 106.071 25.9509 105.538 26.8019 106.236C26.7818 105.968 27.1876 106.111 26.5064 105.417C26.4936 105.343 27.0081 105.634 27.1029 105.645C27.192 105.656 27.6474 105.535 27.7011 105.495C27.7547 105.456 27.8404 105.383 27.8122 105.286C27.7781 105.165 27.0516 104.469 28.0169 105.15C28.0384 104.981 28.0961 104.966 28.2855 104.956C28.3198 104.955 28.4534 105.067 28.4626 105.056C28.4814 105.035 28.4159 104.914 28.4374 104.865C28.4726 104.785 28.7822 104.988 28.3517 104.629C28.3169 104.525 28.2819 104.422 28.2466 104.319C28.3411 104.376 28.4359 104.431 28.5305 104.487C28.4607 104.388 28.3907 104.289 28.3206 104.189C28.9127 104.744 28.6856 104.275 28.2887 104.023C28.4859 104.051 28.683 104.079 28.8803 104.107C29.5707 104.717 29.1149 103.997 28.7199 103.688C28.7284 103.679 28.7371 103.67 28.7456 103.661C29.0021 103.738 28.9132 103.534 29.1239 103.54C29.3341 103.547 29.3941 103.615 29.743 103.858C29.7447 103.819 29.7463 103.78 29.7479 103.74C29.0062 102.91 30.3375 104.061 30.0429 103.502C30.0427 103.502 30.0426 103.502 30.0425 103.501C30.0272 103.472 30.0075 103.438 29.9829 103.4C30.5975 103.802 30.4472 103.387 30.3728 103.135C30.3642 103.106 30.2564 103.015 30.2378 102.969C30.1939 102.86 30.424 102.871 30.073 102.582C30.2058 102.629 30.3384 102.677 30.4708 102.725C30.4336 102.642 30.3963 102.559 30.3595 102.476C30.251 102.385 30.1425 102.294 30.034 102.204C30.4566 102.453 30.397 102.24 30.5266 102.267C30.5526 102.273 30.7035 102.396 30.7694 102.401C30.847 102.408 30.8581 102.308 30.94 102.306C30.7891 102.153 30.6384 102 30.4878 101.847C30.4622 101.702 30.9186 102.038 30.9892 102.024C31.0016 102.021 31.0931 101.857 31.0907 101.842C31.0718 101.72 30.6897 101.432 30.927 101.323C30.9692 101.304 31.1186 101.384 31.1491 101.36C31.2028 101.318 31.055 100.931 30.8043 100.703C31.1879 100.916 31.2026 100.646 31.3409 100.677C31.383 100.687 31.5928 100.855 31.6768 100.848C31.7452 100.842 31.6646 100.614 31.734 100.592C31.8084 100.568 31.9958 100.694 32.0275 100.683C32.0572 100.672 31.9358 100.538 31.9624 100.511C32.0471 100.429 32.34 100.534 32.4058 100.469C32.502 100.374 32.1798 99.9524 32.0807 99.7241C32.1258 99.7257 32.2305 99.7767 32.2515 99.7559C32.5136 99.5035 32.8693 99.2659 33.2016 99.0676C33.3578 98.9765 34.1518 99.0941 33.2298 98.462C33.1729 98.3716 33.3324 98.3232 33.5001 98.2886C33.5008 98.2885 33.5016 98.2883 33.5023 98.2882C33.6475 98.2578 33.7991 98.2394 33.8282 98.2145C33.8917 98.1597 33.7917 97.9884 33.8376 97.9408C33.9754 97.7995 34.1784 97.7931 34.2365 97.5249C34.2509 97.4557 34.1388 97.2669 34.1692 97.2449C34.2064 97.2184 34.3999 97.3258 34.4532 97.2969C34.5794 97.2264 34.726 97.0158 34.8533 96.9547C34.8768 96.9437 35.013 97.0557 35.0792 97.0698C35.337 97.1251 35.432 97.0127 35.0107 96.663C35.3703 96.7617 35.2837 96.4705 35.3944 96.3594C35.6298 96.1249 36.1636 95.8075 36.2135 95.4656C36.243 95.2739 36.1171 95.1377 36.3159 95.0661C36.3164 95.0659 36.317 95.0657 36.3176 95.0655C36.3414 95.0569 36.3698 95.0491 36.4036 95.0424C36.4743 95.0283 36.5554 95.0245 36.64 95.0075C36.8382 94.9682 37.2391 95.1321 36.9692 94.7078C37.1892 94.6581 37.2218 94.4925 37.6206 94.6768C37.5588 94.5966 37.497 94.5164 37.4352 94.4362C37.4488 94.4181 37.4624 94.4 37.476 94.382C37.5503 94.4422 37.6245 94.5023 37.6987 94.5626C37.8289 94.4616 37.6823 94.0456 37.7797 93.9461C37.9396 93.7826 38.4564 93.4554 38.6992 93.3853C38.8282 93.3479 38.6845 93.2027 39.0352 93.4424C39.0316 93.4036 39.028 93.3649 39.0242 93.3263C38.9684 93.2515 38.9121 93.1773 38.8566 93.1022C38.957 92.9902 39.1809 92.9607 39.2765 92.8571C39.4516 92.6672 39.5328 92.2125 39.8315 92.1381C39.9055 92.1207 40.1004 92.1905 40.1421 92.1431C40.2022 92.0753 39.9911 91.8408 40.0667 91.7523C40.1996 91.5978 40.7226 91.5769 40.8353 91.4177C40.8695 91.3699 40.8025 91.2705 40.8198 91.2342C40.8955 91.0768 40.9961 90.9849 40.9761 90.7443C41.3129 90.8284 41.5847 91.1072 41.9021 91.3435C42.1454 91.5178 42.722 91.9098 42.9136 92.0854C43.0497 92.207 43.1917 92.3969 43.3441 92.5281C43.3355 92.766 43.1433 92.7123 42.8292 92.6323C42.6301 92.857 42.4286 93.0858 42.2301 93.3117C42.1318 93.2562 42.0332 93.201 41.9344 93.1461C41.9342 93.146 41.934 93.1458 41.9339 93.1456C41.7621 93.1432 41.9335 93.3725 41.936 93.4631C41.9703 94.3186 40.8071 94.8532 40.3035 95.2876C40.1964 95.3799 39.9827 95.8224 39.788 95.7699C39.7369 95.7566 39.609 95.646 39.5851 95.6607C39.4924 95.9059 39.4016 96.1491 39.3088 96.3945C38.9298 96.5237 38.7229 96.8277 38.5207 97.1346C38.5204 97.1351 38.5201 97.1355 38.5198 97.136C38.4394 97.2579 38.3628 97.3809 38.2781 97.4955C37.5129 98.5132 36.9934 99.6705 36.2541 100.634C36.2537 100.634 36.2534 100.634 36.253 100.635C36.2012 100.701 36.148 100.769 36.0944 100.835C35.9347 101.031 35.8743 101.4 35.6439 101.532C35.5486 101.587 35.24 101.387 35.3694 101.673C35.2922 101.611 35.2151 101.549 35.138 101.486C35.1582 101.659 35.2875 101.867 35.2266 101.99C35.1748 102.094 35.0095 102.348 34.9207 102.404C34.8749 102.433 34.7392 102.295 34.7108 102.335C34.6637 102.403 34.7635 102.717 34.6957 102.811C34.635 102.895 34.3573 102.893 34.3343 102.978C34.2506 103.283 34.3258 103.755 34.071 103.944C34.0006 103.995 33.7324 103.916 33.7221 103.941C33.7023 103.992 33.8887 104.168 33.8927 104.217C33.9132 104.466 33.5101 104.491 33.3929 104.62C33.1064 104.938 32.8702 105.32 32.5964 105.661C32.5963 105.661 32.5962 105.661 32.5962 105.661C32.5058 105.774 32.4112 105.883 32.3107 105.984C32.0559 106.239 31.7039 106.723 31.338 106.847C31.259 106.874 31.0539 106.673 31.0151 106.718C30.9719 106.768 31.095 106.922 31.0865 106.956C31.0292 107.191 30.8643 107.68 30.5808 107.704C30.5264 107.708 30.3389 107.581 30.3243 107.599C30.3166 107.608 30.4146 107.729 30.4021 107.767C30.2917 108.104 30.0669 108.224 29.8157 108.429C29.3351 108.821 29.073 109.541 28.5228 109.913C28.4036 109.994 28.0101 109.763 28.0001 109.781C27.9773 109.819 28.1795 110.042 28.1746 110.157C28.1554 110.537 27.6541 110.607 27.5743 110.912C27.5348 111.063 27.6831 111.462 27.6512 111.618C27.6254 111.744 27.3422 111.826 27.4298 111.977C27.4828 112.068 27.7089 112.301 27.7142 112.355ZM26.4415 106.293C26.8147 106.653 26.625 106.22 26.3688 106.089C26.3112 106.06 26.3447 106.2 26.4415 106.293ZM33.2078 99.9218C33.1052 99.8386 33.0026 99.7555 32.8999 99.6723C32.9245 99.7266 32.9491 99.781 32.9737 99.8356C33.0448 99.8757 33.1158 99.9157 33.1866 99.9557C33.1937 99.9443 33.2007 99.9331 33.2078 99.9218Z" fill="black"/>
<path d="M2.24444 73.1158C2.21613 73.1564 2.12799 72.9884 2.08423 72.9879C1.90074 72.984 1.80933 72.874 1.63624 72.8375C1.37934 72.7833 0.733811 73.1669 0.468234 71.9256C0.468234 71.9256 0.468234 71.9256 0.468234 71.9256C0.468229 71.9256 0.468225 71.9256 0.468221 71.9256C0.468221 71.9256 0.468221 71.9256 0.468221 71.9256C0.465619 71.9134 0.46305 71.901 0.460522 71.8886C0.412406 71.6516 0.416455 71.3807 0.368061 71.1114C0.319634 70.842 -0.0562025 69.1161 0.00712684 69.001C0.101582 68.847 0.488851 69.2274 0.549565 69.1939C0.591069 69.1708 0.612326 69.0021 0.663199 68.9621C0.827213 68.833 0.947713 68.9273 1.02162 68.4655C1.13567 68.6762 1.24978 68.8868 1.36391 69.0975C1.42785 68.9748 1.62167 69.2434 1.67061 69.2159C1.7107 69.1932 1.69788 69.0101 1.74088 68.9923C1.78892 68.9713 1.90693 69.1467 1.99212 69.0983C2.13195 69.0198 2.05946 68.5504 2.13667 68.4723C2.21683 68.3914 2.41559 68.6125 2.49953 68.4239C2.50354 68.3697 2.50756 68.3155 2.51157 68.2614C2.47623 68.1483 2.44089 68.0352 2.40555 67.9221C2.45397 67.8556 2.53025 68.0865 2.58618 68.0791C2.65201 68.0704 2.63713 67.8392 2.68089 67.8309C2.71677 67.8244 2.8036 67.9937 2.84746 67.9726C2.91161 67.9427 2.84141 67.6863 2.86733 67.63C2.87777 67.6081 3.11496 67.4076 3.12963 67.4024C3.24234 67.3676 3.32816 67.7206 3.42646 67.7321C3.69868 67.7625 3.89816 67.4198 4.1101 67.2611C4.20469 67.1902 4.3186 67.1875 4.43541 67.2219C4.46468 68.1662 4.98053 68.7958 4.54038 67.4024C4.70001 67.5799 4.7006 67.1783 4.82486 67.2196C4.9053 67.2468 4.9968 67.4335 5.09766 67.4065C5.27634 67.3575 5.35457 66.7546 5.62287 67.7569C5.79709 67.5329 6.05946 67.8613 5.94514 66.9503C5.98825 66.884 6.24227 67.3869 6.31913 67.4462C6.39176 67.502 6.88877 67.6476 6.96454 67.6454C7.04032 67.6433 7.17107 67.6307 7.21574 67.5391C7.27217 67.4256 7.12838 66.4863 7.49693 67.5418C7.6379 67.42 7.7015 67.4389 7.87684 67.5333C7.90859 67.5504 7.94594 67.7108 7.96168 67.7076C7.99404 67.7007 8.02375 67.5699 8.07844 67.5431C8.1684 67.4991 8.29477 67.8264 8.17393 67.3111C8.21808 67.2109 8.26224 67.1108 8.30641 67.0107C8.34967 67.1059 8.39293 67.2011 8.43616 67.2964C8.44646 67.1804 8.45676 67.0644 8.46706 66.9483C8.58721 67.7058 8.72882 67.2136 8.56078 66.8C8.71527 66.9291 8.86957 67.0583 9.02404 67.1874C9.18832 68.0423 9.3115 67.2289 9.18917 66.7711C9.20321 66.7688 9.21726 66.7665 9.2313 66.7642C9.40119 66.9646 9.47336 66.7558 9.65403 66.8761C9.83461 66.9965 9.83828 67.0823 9.96664 67.4644C9.99676 67.4345 10.0269 67.4047 10.057 67.3748C10.0145 66.3264 10.3341 67.9229 10.487 67.3653C10.4874 67.3641 10.4877 67.3629 10.488 67.3616C10.497 67.3282 10.5054 67.2873 10.5131 67.2378C10.7567 67.8913 10.9283 67.4846 11.0488 67.2463C11.0629 67.2186 11.0354 67.0877 11.0523 67.0422C11.0937 66.9324 11.2881 67.0679 11.1933 66.6477C11.2741 66.7585 11.3548 66.8693 11.4356 66.9799C11.4643 66.8943 11.493 66.8088 11.5217 66.7234C11.4937 66.5921 11.4656 66.4609 11.4376 66.3297C11.623 66.7592 11.7287 66.5592 11.8216 66.6523C11.8402 66.6711 11.8814 66.8511 11.9352 66.8917C11.9984 66.9401 12.0814 66.8681 12.1539 66.9125C12.1353 66.7084 12.1167 66.5045 12.0981 66.3007C12.1838 66.1724 12.3328 66.6905 12.4048 66.7189C12.4178 66.7237 12.6189 66.6461 12.6277 66.6328C12.7011 66.5269 12.5813 66.0867 12.8688 66.1339C12.92 66.1425 12.9905 66.2888 13.0349 66.2871C13.1134 66.2839 13.2697 65.8975 13.2213 65.5763C13.3977 65.9597 13.6105 65.7549 13.7077 65.8574C13.7371 65.8888 13.7947 66.14 13.8733 66.1818C13.937 66.2157 14.0363 65.9905 14.1129 66.0125C14.1943 66.0366 14.2641 66.2417 14.3002 66.2507C14.3341 66.2591 14.3279 66.0851 14.3707 66.0789C14.5053 66.0625 14.6807 66.3123 14.787 66.2986C14.9402 66.2794 14.9728 65.7639 15.0561 65.5274C15.0943 65.5543 15.147 65.6546 15.1803 65.6504C15.5944 65.6021 16.0767 65.6212 16.5097 65.6591C16.7119 65.6784 17.3114 66.2325 16.9768 65.2024C17.0076 65.0105 17.5781 65.3643 17.6703 65.356C17.7644 65.3489 17.8023 65.155 17.8744 65.1427C18.0931 65.1058 18.2731 65.2144 18.5108 65.0228C18.5728 64.9727 18.6075 64.7516 18.6491 64.7492C18.6994 64.7468 18.7904 64.9443 18.8574 64.9489C19.0159 64.9583 19.2883 64.8564 19.4424 64.8728C19.4706 64.8762 19.5117 65.0503 19.5598 65.1C19.7462 65.294 19.9107 65.2515 19.7825 64.702C19.9351 64.8829 20.0441 64.8317 20.1442 64.7594C20.145 64.7588 20.1459 64.7582 20.1467 64.7576L20.1926 64.7502C20.2556 64.7076 20.3163 64.6577 20.382 64.6457C20.7523 64.5794 21.4535 64.6586 21.7553 64.4286C21.944 64.2838 21.9111 64.058 22.2431 64.2475C22.3179 64.2891 22.3936 64.3454 22.4821 64.3942C22.6916 64.5111 22.9175 64.9023 23.0059 64.4172C23.2365 64.5359 23.3995 64.4478 23.6042 64.8395C23.6113 64.7435 23.6177 64.648 23.626 64.5525C23.6526 64.5495 23.679 64.5465 23.7053 64.5435C23.7243 64.6333 23.7432 64.723 23.7621 64.8126C23.9511 64.8274 24.1487 64.458 24.3114 64.4596C24.5811 64.4604 25.2872 64.5811 25.5519 64.6802C25.695 64.733 25.6857 64.562 25.7932 64.9112C25.822 64.8853 25.8505 64.8596 25.8787 64.834C25.891 64.7565 25.9032 64.6792 25.9154 64.6022C26.0903 64.5944 26.3051 64.7053 26.4727 64.6981C26.7725 64.685 27.2234 64.4687 27.5567 64.5972C27.638 64.6295 27.7458 64.7794 27.8304 64.7789C27.8522 64.7787 27.8706 64.7717 27.8873 64.7601C27.8875 64.7599 27.8878 64.7598 27.888 64.7596C27.9542 64.701 27.9899 64.529 28.0901 64.5257C28.2955 64.5208 28.6938 64.7974 28.8882 64.7566C28.9452 64.7453 28.9627 64.6501 29 64.6364C29.1551 64.5774 29.2877 64.566 29.3935 64.3994C29.5796 64.6061 29.6412 64.9069 29.7684 65.197C29.8598 65.4176 30.1581 65.8982 30.2551 66.0821C30.3194 66.2134 30.3105 66.4125 30.3854 66.5557C30.1026 66.7774 29.9405 66.6624 29.6826 66.4822C29.2817 66.56 28.8996 66.5979 28.5205 66.6197C28.4831 66.5339 28.4468 66.4478 28.4111 66.3616C28.4111 66.3614 28.4111 66.3612 28.4111 66.361C28.2679 66.2637 28.2111 66.4878 28.1331 66.5388C28.0471 66.5955 27.9503 66.6395 27.8455 66.6722C27.8453 66.6723 27.8452 66.6723 27.8451 66.6724C27.2435 66.9246 26.082 66.7773 25.4304 66.8243C25.268 66.8343 24.7639 67.0569 24.6391 66.9163C24.6061 66.8793 24.5811 66.7273 24.5499 66.7255C24.2908 66.8609 24.0298 67.0036 23.7744 67.1524C23.1891 67.0046 22.6422 67.3257 22.0929 67.4858C21.6117 67.6219 21.133 67.7624 20.6532 67.8938L20.691 67.8877C20.6901 67.888 20.6892 67.8882 20.6884 67.8885C19.6998 68.1886 18.7182 68.5022 17.7182 68.722C17.4329 68.7833 17.1055 69.0362 16.8069 69.0049C16.6829 68.9921 16.5634 68.6565 16.4637 68.9544C16.443 68.8609 16.4224 68.7673 16.4017 68.6738C16.2917 68.8198 16.2496 69.0566 16.1055 69.1168C15.9835 69.1671 15.6541 69.2668 15.5355 69.2582C15.4742 69.2544 15.4585 69.0687 15.4048 69.083C15.3129 69.1085 15.1686 69.4088 15.0414 69.4415C14.9266 69.471 14.6884 69.3084 14.6061 69.3608C14.3094 69.548 14.0293 69.9541 13.671 69.9529C13.5721 69.952 13.3993 69.7373 13.3713 69.7511C13.3168 69.779 13.3497 70.0208 13.3175 70.0608C13.1537 70.2637 12.7874 70.0537 12.592 70.0869C12.1123 70.1696 11.6274 70.3338 11.1435 70.4459C11.1429 70.446 11.1424 70.4462 11.1418 70.4463C10.9836 70.4829 10.826 70.5145 10.6685 70.5365C10.2647 70.5933 9.61251 70.7765 9.2064 70.6729C9.11883 70.6505 9.08357 70.3812 9.01702 70.3954C8.94325 70.4111 8.94141 70.5985 8.91002 70.6203C8.69298 70.7724 8.20486 71.0655 7.94059 70.9306C7.8902 70.9047 7.81484 70.7038 7.78932 70.7101C7.77632 70.7128 7.77712 70.8607 7.73938 70.8839C7.40626 71.0888 7.12584 71.0623 6.7623 71.0891C6.06624 71.1415 5.3387 71.5722 4.59765 71.5815C4.43619 71.5835 4.24238 71.1958 4.22147 71.2046C4.17546 71.2231 4.20379 71.5057 4.12164 71.5945C3.84772 71.8874 3.35157 71.6854 3.07511 71.8892C2.93843 71.9897 2.80568 72.3844 2.67337 72.4938C2.5679 72.5811 2.25772 72.5037 2.23802 72.6688C2.22585 72.7686 2.27483 73.0702 2.24444 73.1158ZM5.25545 67.6137C5.33615 68.0955 5.47404 67.6514 5.33587 67.413C5.30475 67.3593 5.23448 67.4887 5.25545 67.6137ZM15.8863 66.3315C15.8589 66.207 15.8315 66.0825 15.804 65.958C15.785 66.0147 15.7659 66.0717 15.7469 66.1287C15.7789 66.2012 15.8108 66.2735 15.8427 66.3458C15.8572 66.341 15.8718 66.3362 15.8863 66.3315Z" fill="black"/>
<path d="M5.18794 20.032C5.13302 20.036 5.20215 19.8447 5.16892 19.8072C5.03084 19.6483 5.05034 19.4945 4.94682 19.3219C4.79343 19.066 3.98439 18.7826 4.79245 17.6974C4.79245 17.6974 4.79245 17.6974 4.79245 17.6974C4.79247 17.6974 4.79248 17.6974 4.79249 17.6973C4.79249 17.6973 4.79249 17.6973 4.79249 17.6973C4.80042 17.6867 4.8085 17.676 4.81675 17.6652C4.97301 17.4602 5.19692 17.2761 5.37933 17.0485C5.56178 16.8207 6.68009 15.3063 6.82256 15.2804C7.02072 15.2541 7.00809 15.8465 7.08215 15.875C7.13284 15.8944 7.28666 15.7955 7.35836 15.811C7.58956 15.8611 7.60515 16.0287 8.03839 15.7717C7.95437 16.0145 7.87022 16.2573 7.78623 16.5002C7.93541 16.4696 7.86535 16.8202 7.92542 16.8427C7.97466 16.8611 8.11411 16.7234 8.16158 16.7475C8.21551 16.7737 8.16337 16.9955 8.26836 17.0343C8.43947 17.0985 8.76636 16.7117 8.8893 16.7232C9.01638 16.7349 8.98954 17.0572 9.2073 16.9974C9.2545 16.9632 9.30171 16.929 9.34893 16.8949C9.41384 16.7865 9.47876 16.6781 9.54369 16.5697C9.63498 16.5646 9.5057 16.7895 9.55477 16.8318C9.61222 16.8815 9.78899 16.7085 9.82936 16.7399C9.86226 16.7657 9.79134 16.957 9.84212 16.9794C9.91557 17.0129 10.0703 16.7756 10.136 16.7584C10.1619 16.7521 10.5071 16.8139 10.5227 16.8226C10.6377 16.8941 10.4165 17.212 10.4824 17.303C10.6673 17.5551 11.0985 17.4853 11.3908 17.5546C11.5205 17.5849 11.6116 17.6802 11.6726 17.8024C10.9281 18.484 10.8132 19.3582 11.6066 18.0167C11.5857 18.2755 11.9118 17.9961 11.9739 18.13C12.014 18.2171 11.9327 18.4244 12.032 18.4907C12.2102 18.6082 12.7584 18.2534 12.1524 19.1788C12.4676 19.1694 12.4042 19.6205 13.0547 18.8887C13.1419 18.879 12.9298 19.4441 12.9408 19.5502C12.9515 19.6504 13.2181 20.1723 13.2774 20.234C13.3371 20.2961 13.4499 20.3988 13.5577 20.3718C13.693 20.34 14.3427 19.5626 13.773 20.6111C13.9795 20.6441 14.0148 20.712 14.0733 20.9253C14.084 20.9639 13.983 21.1075 13.9977 21.1185C14.0283 21.1409 14.1571 21.0746 14.2213 21.1021C14.3275 21.1479 14.1591 21.4823 14.483 21.0203C14.5979 20.9873 14.7131 20.9545 14.8285 20.9219C14.785 21.025 14.7416 21.1281 14.6982 21.2313C14.7997 21.1587 14.9014 21.086 15.0031 21.0135C14.4833 21.6446 14.9912 21.4195 15.1955 20.9886C15.1997 21.0492 15.204 21.11 15.2084 21.1707C15.2089 21.1778 15.2094 21.1849 15.21 21.1919C15.2199 21.3443 15.2302 21.497 15.241 21.65C14.6774 22.387 15.43 21.9212 15.7052 21.4977C15.7179 21.508 15.7306 21.5182 15.7434 21.5285C15.7135 21.8123 15.9374 21.7267 15.9802 21.9635C16.0235 22.2005 15.9566 22.2633 15.7476 22.6387C15.795 22.6432 15.8423 22.6477 15.8898 22.6523C16.7527 21.8369 15.5283 23.4464 16.3539 22.9416C16.0161 23.6036 16.4774 23.4639 16.763 23.3986C16.7962 23.391 16.8804 23.2764 16.9302 23.2587C17.0509 23.2168 17.0932 23.4748 17.3583 23.1012C17.3318 23.2464 17.3053 23.3916 17.2789 23.5367C17.3704 23.5007 17.4618 23.4648 17.5533 23.429C17.6373 23.3135 17.7213 23.1981 17.8054 23.0826C17.6038 23.539 17.8473 23.4865 17.8449 23.6295C17.8442 23.6582 17.731 23.8192 17.7402 23.8927C17.7506 23.9796 17.8737 23.9982 17.8944 24.0898C18.0449 23.9304 18.1954 23.7711 18.3459 23.6119C18.5171 23.5922 18.2144 24.0824 18.2477 24.1624C18.2538 24.1766 18.4742 24.2887 18.4921 24.2867C18.6359 24.2727 18.8992 23.8605 19.0873 24.1312C19.1206 24.1797 19.0572 24.3426 19.0934 24.378C19.1573 24.4406 19.5965 24.2925 19.8212 24.021C19.6469 24.4415 19.9833 24.4687 19.976 24.6222C19.9734 24.6691 19.8126 24.8985 19.8403 24.9937C19.8627 25.071 20.1264 24.9887 20.1688 25.0674C20.2134 25.1518 20.0993 25.3594 20.1203 25.3957C20.1403 25.4299 20.279 25.2973 20.3179 25.3279C20.4375 25.426 20.3699 25.755 20.4644 25.8326C20.6006 25.9451 21.0555 25.5893 21.3195 25.4795C21.3274 25.5307 21.2855 25.6487 21.3155 25.6728C21.6849 25.9741 22.0526 26.3811 22.3633 26.7646C22.5072 26.9426 22.5057 27.8731 23.1251 26.787C23.3154 26.6597 23.4641 27.4024 23.5447 27.4728C23.6247 27.5433 23.8234 27.4176 23.8921 27.4664C24.0982 27.6131 24.1458 27.8491 24.5035 27.8841C24.5967 27.893 24.8192 27.7375 24.8546 27.7689C24.897 27.8073 24.7947 28.045 24.8441 28.1033C24.9619 28.2399 25.2699 28.3754 25.3765 28.5131C25.3956 28.5387 25.2728 28.7198 25.267 28.8016C25.2436 29.1206 25.4081 29.2181 25.7991 28.6422C25.7634 28.8987 25.8697 28.957 25.9989 28.9792C26.0103 28.9811 26.0218 28.9828 26.0335 28.9843C26.1236 28.9966 26.2193 28.9993 26.2848 29.0412C26.648 29.2742 27.1495 29.9085 27.5981 29.9401C27.8816 29.9601 28.0546 29.724 28.1558 30.165C28.1785 30.2627 28.1904 30.3761 28.2188 30.4926C28.2846 30.769 28.1174 31.3155 28.6229 30.9364C28.7028 31.2326 28.913 31.2814 28.7291 31.8141C28.8211 31.7304 28.9128 31.6471 29.0043 31.564C29.0277 31.582 29.0523 31.6009 29.0761 31.6193C29.0108 31.7186 28.9456 31.8177 28.8804 31.9166C29.0201 32.084 29.5139 31.8994 29.643 32.0308C29.8604 32.249 30.3278 32.9334 30.4556 33.2409C30.5224 33.4043 30.6703 33.2351 30.4446 33.6545C30.4908 33.6525 30.5368 33.6505 30.5825 33.6485C30.662 33.5843 30.7425 33.5213 30.8223 33.458C30.9713 33.5897 31.0505 33.8697 31.1929 33.9949C31.4456 34.2165 31.9833 34.3606 32.16 34.7072C32.1659 34.719 32.1713 34.7309 32.1762 34.7431C32.1776 34.7464 32.1788 34.7499 32.1799 34.7536C32.2094 34.851 32.1586 35.0548 32.2221 35.1084C32.3151 35.187 32.5588 34.9588 32.6775 35.0562C32.8826 35.2254 32.9962 35.8439 33.2019 35.987C33.2636 36.0303 33.3705 35.9597 33.4181 35.9842C33.6144 36.0823 33.7409 36.2075 34.0118 36.1889C33.9572 36.562 33.676 36.8616 33.4614 37.2227C33.3829 37.3605 33.252 37.5896 33.1487 37.8299C33.0988 37.9505 33.0488 38.0726 33.0616 38.2065C33.0804 38.2738 33.083 38.3564 33.279 38.433C33.3981 38.464 33.6225 38.5045 33.9027 38.2957C34.1544 38.0773 34.1747 37.9311 34.2164 37.8423C34.2885 37.6177 34.3378 37.6373 34.3709 37.8492C34.3679 37.9661 34.4016 38.1584 34.1219 38.4904C33.9954 38.6361 33.7856 38.7531 33.6539 38.7983C33.531 38.8452 33.4199 38.8665 33.3285 38.8783C33.1288 38.8967 33.0754 38.9015 33.005 38.9137C32.9405 38.9247 32.8942 38.9373 32.8616 38.9549C32.8032 38.9907 32.7661 39.0417 32.9027 39.1431C32.5099 39.0106 32.5377 38.9918 32.4614 38.9623C32.4049 38.9344 32.3757 38.921 32.3437 38.9041C32.2889 38.8766 32.2516 38.854 32.2212 38.8309C32.1606 38.7845 32.1317 38.7384 32.1109 38.68C32.0725 38.5655 32.0859 38.4169 32.0988 38.2304C31.7789 37.967 31.475 37.7113 31.1673 37.4535C31.2175 37.3431 31.2654 37.2307 31.3164 37.121C31.3165 37.1209 31.3167 37.1207 31.3169 37.1205C31.2913 36.9188 31.045 37.0988 30.9373 37.0934C30.7106 37.0846 30.4923 37.0067 30.2838 36.8845C30.2717 36.8777 30.2597 36.8707 30.2477 36.8635C29.5737 36.4566 28.9232 35.5991 28.4231 35.1693C28.2825 35.046 27.6769 34.8409 27.6994 34.6029C27.7061 34.5411 27.8228 34.3781 27.7995 34.351C27.4673 34.2631 27.1307 34.1816 26.7913 34.1064C26.4543 33.4832 25.7296 33.3234 25.1503 33.0027C24.6471 32.7196 24.144 32.4365 23.6539 32.1384C23.6452 32.1331 23.6366 32.1279 23.6279 32.1226C22.6178 31.5072 21.6182 30.882 20.6893 30.1694C20.4229 29.9641 19.9625 29.8644 19.7654 29.5765C19.6824 29.4563 19.8733 29.0999 19.5489 29.2353C19.6114 29.1471 19.6739 29.0589 19.7364 28.9708C19.5304 28.9835 19.3022 29.1233 19.143 29.0406C19.0089 28.9704 18.6778 28.7543 18.5948 28.644C18.5514 28.5874 18.6926 28.438 18.6401 28.4017C18.5493 28.3407 18.1923 28.4323 18.0695 28.3449C17.9581 28.2657 17.9099 27.9415 17.8043 27.9079C17.4248 27.7854 16.8814 27.8299 16.6085 27.5195C16.5335 27.4332 16.575 27.1336 16.5423 27.1193C16.4776 27.0921 16.3074 27.2904 16.2503 27.2908C15.9611 27.2924 15.8488 26.8311 15.6708 26.6879C15.0903 26.2217 14.3834 25.8536 13.8118 25.3792C13.5309 25.1463 13.0716 24.84 12.7727 24.5196C12.7695 24.5162 12.7663 24.5127 12.7631 24.5093C12.6808 24.4203 12.6117 24.3309 12.5624 24.2421C12.5131 24.1529 12.7031 23.9344 12.6398 23.888C12.5694 23.8365 12.4163 23.966 12.3743 23.9547C12.0822 23.8773 11.4662 23.6696 11.3699 23.3514C11.3521 23.2908 11.4567 23.087 11.4315 23.0696C11.4191 23.0605 11.2997 23.1642 11.2515 23.1483C10.827 23.0094 10.631 22.7533 10.3274 22.4637C9.74553 21.9103 8.83252 21.5924 8.2526 20.9692C8.12637 20.8337 8.29221 20.3998 8.26893 20.3882C8.21832 20.3619 8.01045 20.5822 7.87466 20.574C7.42491 20.5445 7.20652 19.9825 6.82761 19.8888C6.64035 19.8422 6.21628 20.0027 6.02541 19.9661C5.87273 19.9367 5.6972 19.6194 5.54748 19.717C5.45683 19.7758 5.2485 20.0263 5.18794 20.032ZM11.9854 18.7685C11.6567 19.1724 12.1229 18.9793 12.2102 18.6966C12.23 18.633 12.071 18.6638 11.9854 18.7685ZM21.3022 26.7665C21.3853 26.6495 21.4685 26.5324 21.5516 26.4153C21.4887 26.4427 21.4258 26.4701 21.3628 26.4976C21.3271 26.5788 21.2915 26.66 21.2558 26.7411C21.2713 26.7496 21.2867 26.7581 21.3022 26.7665Z" fill="black"/>
</svg>
